SplineFontDB: 3.2
FontName: Multivers-Regular
FullName: Multivers Regular
FamilyName: Multivers
Weight: Regular
Copyright: 
Version: 1.000
ItalicAngle: 0
UnderlinePosition: -195.07
UnderlineWidth: 36.5156
Ascent: 819
Descent: 165
InvalidEm: 0
sfntRevision: 0x00010000
LayerCount: 3
Layer: 0 0 "Back" 1
Layer: 1 0 "Fore" 0
Layer: 2 0 "Back 2" 1
XUID: [1021 473 -325923738 3809896]
StyleMap: 0x0040
FSType: 0
OS2Version: 4
OS2_WeightWidthSlopeOnly: 0
OS2_UseTypoMetrics: 0
CreationTime: 1659194366
ModificationTime: 1743518636
PfmFamily: 33
TTFWeight: 400
TTFWidth: 5
LineGap: 0
VLineGap: 0
Panose: 0 0 0 0 0 0 0 0 0 0
OS2TypoAscent: 954
OS2TypoAOffset: 0
OS2TypoDescent: -246
OS2TypoDOffset: 0
OS2TypoLinegap: 0
OS2WinAscent: 971
OS2WinAOffset: 0
OS2WinDescent: 344
OS2WinDOffset: 0
HheadAscent: 954
HheadAOffset: 0
HheadDescent: -246
HheadDOffset: 0
OS2SubXSize: 640
OS2SubYSize: 590
OS2SubXOff: 0
OS2SubYOff: 74
OS2SupXSize: 640
OS2SupYSize: 590
OS2SupXOff: 0
OS2SupYOff: 344
OS2StrikeYSize: 37
OS2StrikeYPos: 296
OS2CapHeight: 708
OS2XHeight: 502
OS2Vendor: 'NONE'
OS2CodePages: 00000093.00000000
OS2UnicodeRanges: a000006f.0000006a.00000000.00000000
Lookup: 1 0 0 "'aalt' Access All Alternates in Latin lookup 0" { "'aalt' Access All Alternates in Latin lookup 0 subtable"  } ['aalt' ('DFLT' <'dflt' > 'latn' <'AZE ' 'CAT ' 'CRT ' 'KAZ ' 'MOL ' 'ROM ' 'TAT ' 'TRK ' 'dflt' > ) ]
Lookup: 3 0 0 "'aalt' Access All Alternates in Latin lookup 1" { "'aalt' Access All Alternates in Latin lookup 1 subtable"  } ['aalt' ('DFLT' <'dflt' > 'latn' <'AZE ' 'CAT ' 'CRT ' 'KAZ ' 'MOL ' 'ROM ' 'TAT ' 'TRK ' 'dflt' > ) ]
Lookup: 6 0 0 "'ccmp' Glyph Composition/Decomposition in Latin lookup 2" { "'ccmp' Glyph Composition/Decomposition in Latin lookup 2 subtable"  } ['ccmp' ('DFLT' <'dflt' > 'latn' <'AZE ' 'CAT ' 'CRT ' 'KAZ ' 'MOL ' 'ROM ' 'TAT ' 'TRK ' 'dflt' > ) ]
Lookup: 1 0 0 "Single Substitution lookup 3" { "Single Substitution lookup 3 subtable"  } []

StartChar: .notdef
Encoding: 65536 -1 0
Width: 654
Flags: HW
HStem: 0 70<168 488> 639 69<168 488>
VStem: 88 80<70 639> 488 79<70 639>
LayerCount: 3
Fore
SplineSet
88 0 m 1
 88 708 l 1
 567 708 l 1
 567 0 l 1
 88 0 l 1
168 70 m 1
 488 70 l 1
 488 639 l 1
 168 639 l 1
 168 70 l 1
EndSplineSet
Validated: 1
EndChar

StartChar: A
Encoding: 65 65 1
Width: 634
GlyphClass: 2
Flags: HW
HStem: 0 21G<10 102.09 525.91 624> 215 70<139 491> 688 20G<259.74 372.316>
AnchorPoint: "Anchor-1" 328 716 basechar 0
AnchorPoint: "Anchor-4" 638 0 basechar 0
AnchorPoint: "Anchor-3" 624 0 basechar 0
AnchorPoint: "Anchor-2" 317 0 basechar 0
AnchorPoint: "Anchor-0" 317 708 basechar 0
LayerCount: 3
Fore
SplineSet
10 0 m 1
 267 708 l 1
 346 708 l 1
 95 0 l 1
 10 0 l 1
533 0 m 1
 282 708 l 1
 365 708 l 1
 624 0 l 1
 533 0 l 1
139 285 m 5
 491 285 l 5
 491 215 l 1
 139 215 l 1
 139 285 l 5
EndSplineSet
Validated: 1048581
Substitution2: "Single Substitution lookup 17 subtable" ordfeminine
Substitution2: "'aalt' Access All Alternates in Latin lookup 0 subtable" ordfeminine
EndChar

StartChar: AE
Encoding: 198 198 12
Width: 899
Flags: HW
HStem: 0 70<495 826> 334 69<214 793> 639 70<320 819>
VStem: 453 79<70 708> 495 37<0 70>
LayerCount: 3
Fore
SplineSet
40 0 m 1xe0
 298 708 l 1
 368 708 l 1
 116 0 l 1
 40 0 l 1xe0
453 0 m 1xf0
 453 708 l 1
 532 708 l 1xf0
 532 0 l 1xe8
 453 0 l 1xf0
495 0 m 1xe8
 495 70 l 1
 826 70 l 1
 826 0 l 1
 495 0 l 1xe8
214 334 m 1
 214 404 l 1
 793 404 l 1
 793 334 l 1
 214 334 l 1
320 639 m 1
 320 708 l 1
 819 708 l 1
 819 639 l 1
 320 639 l 1
EndSplineSet
Validated: 5
EndChar

StartChar: B
Encoding: 66 66 13
Width: 616
Flags: HW
HStem: 0 74<173 428.188> 334 70<173 404.779> 634 74<173 427.11>
VStem: 83 90<74 334 404 634> 466 89<460.235 597.562> 483 91<125.084 279.368>
LayerCount: 3
Fore
SplineSet
555 534 m 0xf8
 555 457.858398438 517.05078125 400.01953125 448 374 c 1
 527.9921875 347.002929688 574 285.4609375 574 199 c 0xf4
 574 81.560546875 489.1171875 0 361 0 c 2
 83 0 l 1
 83 708 l 1
 350 708 l 2
 412.833007812 708 461.904296875 693.080078125 497.331054688 663.873046875 c 0
 535.216796875 632.638671875 555 588.975585938 555 534 c 0xf8
173 634 m 1
 173 404 l 1
 331 404 l 2
 431 404 466 456.828125 466 534 c 0xf8
 466 599.790039062 421.380859375 634 331 634 c 2
 173 634 l 1
173 334 m 1
 173 74 l 2
 342 74 l 6
 429.3828125 74 483 117.458984375 483 199 c 0xf4
 483 283.078125 434.247070312 334 342 334 c 6
 173 334 l 1
EndSplineSet
Validated: 1
EndChar

StartChar: C
Encoding: 67 67 14
Width: 683
GlyphClass: 2
Flags: HW
HStem: -10 70<273.147 448.911> 502 21G<527.06 627> 649 69<275.567 454.629>
VStem: 43 94<220.996 486.184> 537 95<151.801 230 502 562.479>
AnchorPoint: "Anchor-2" 373 0 basechar 0
AnchorPoint: "Anchor-0" 373 708 basechar 0
LayerCount: 3
Fore
SplineSet
369 -10 m 0
 171.07421875 -10 43 133.396484375 43 355 c 256
 43 564.614257812 159 718 369 718 c 0
 461.133789062 718 534.1171875 685.224609375 579 627.166992188 c 0
 605.048828125 593.47265625 621.631835938 551.26171875 627 502 c 1
 532 502 l 1
 522.12109375 590.9140625 462.184570312 649 370 649 c 3
 227.80078125 649 137 532.135742188 137 355 c 0
 137 176.944335938 227.044921875 60 369 60 c 4
 460.7578125 60 531.884765625 134.28125 537 230 c 1
 632 230 l 1
 630.278320312 143.364257812 593.456054688 75.1162109375 531 33.8935546875 c 0
 488.081054688 5.5654296875 433.056640625 -10 369 -10 c 0
EndSplineSet
Validated: 1048577
EndChar

StartChar: D
Encoding: 68 68 19
Width: 697
GlyphClass: 2
Flags: HW
HStem: 0 70<130 392.243> 638 70<130 392.619>
VStem: 130 42<0 70 638 708> 550 90<235.054 479.766>
AnchorPoint: "Anchor-2" 334 0 basechar 0
AnchorPoint: "Anchor-0" 334 708 basechar 0
LayerCount: 3
Fore
SplineSet
640 357 m 260
 640 139.09375 501.47265625 0 290 0 c 6
 130 0 l 1
 130 70 l 1
 279 70 l 6
 456 70 550 190 550 358 c 4
 550 518 461 638 279 638 c 6
 130 638 l 1
 130 708 l 1
 289 708 l 6
 504.142578125 708 640 572.1171875 640 357 c 260
82 0 m 1
 82 708 l 1
 172 708 l 1
 172 0 l 1
 82 0 l 1
EndSplineSet
Validated: 1048581
EndChar

StartChar: Eth
Encoding: 208 208 20
Width: 719
GlyphClass: 2
Flags: HW
HStem: 0 70<136 431> 322 65<6 363> 639 70<135 434>
VStem: 136 32<0 70 639 708> 585 81<232 482>
CounterMasks: 1 e0
AnchorPoint: "Anchor-2" 360 0 basechar 0
AnchorPoint: "Anchor-0" 360 708 basechar 0
LayerCount: 3
Fore
SplineSet
6 322 m 1
 6 386 l 1
 363 386 l 1
 363 322 l 1
 6 322 l 1
136 0 m 1
 136 70 l 1
 315 70 l 2
 372 70 420 82 460 106 c 0
 500 130 531 163 553 206 c 0
 575 249 585 299 585 358 c 0
 585 416 575 465 553 507 c 0
 531 549 500 581 460 604 c 0
 420 627 372 639 315 639 c 2
 135 639 l 1
 135 708 l 1
 315 708 l 2
 386 708 447 694 500 665 c 0
 553 636 593 596 622 543 c 0
 651 490 666 428 666 357 c 256
 666 286 651 223 622 169 c 0
 593 115 552 74 499 44 c 0
 446 14 386 0 316 0 c 2
 136 0 l 1
88 0 m 1
 88 708 l 1
 168 708 l 1
 168 0 l 1
 88 0 l 1
EndSplineSet
Validated: 1048581
EndChar

StartChar: E
Encoding: 69 69 23
Width: 568
GlyphClass: 2
Flags: HW
HStem: 0 70<120 530> 334 70<120 496> 638 70<120 523>
VStem: 120 48<0 70 334 404 638 708>
AnchorPoint: "Anchor-3" 499 0 basechar 0
AnchorPoint: "Anchor-2" 296 0 basechar 0
AnchorPoint: "Anchor-0" 306 708 basechar 0
LayerCount: 3
Fore
SplineSet
79 0 m 1
 79 708 l 1
 168 708 l 1
 168 0 l 1
 79 0 l 1
120 0 m 1
 120 70 l 5
 530 70 l 5
 530 0 l 1
 120 0 l 1
120 334 m 1
 120 404 l 1
 250 404 l 0
 496 404 l 1
 496 334 l 1
 120 334 l 1
120 638 m 1
 120 708 l 1
 523 708 l 1
 523 638 l 1
 120 638 l 1
EndSplineSet
Validated: 1048581
EndChar

StartChar: F
Encoding: 70 70 32
Width: 532
Flags: HW
HStem: 0 21G<79 168> 300 70<120 480> 638 70<120 506>
VStem: 79 89<0 300 370 638> 120 48<300 370 638 708>
LayerCount: 3
Fore
SplineSet
79 0 m 1xf0
 79 708 l 1xf0
 168 708 l 1xe8
 168 0 l 1
 79 0 l 1xf0
120 300 m 1xe8
 120 370 l 1
 480 370 l 1
 480 300 l 1
 120 300 l 1xe8
120 638 m 5
 120 708 l 1
 506 708 l 1
 506 638 l 5
 120 638 l 5
EndSplineSet
Validated: 5
EndChar

StartChar: G
Encoding: 71 71 33
Width: 703
GlyphClass: 2
Flags: HW
HStem: -10 70<291.875 535.723> 294 70<397 560> 649 70<286.601 459.922>
VStem: 43 93<213.331 463.6> 558 89<81.1997 294 484 551.06>
AnchorPoint: "Anchor-2" 367 0 basechar 0
AnchorPoint: "Anchor-0" 367 708 basechar 0
LayerCount: 3
Fore
SplineSet
647 364 m 1
 647 36 l 1
 622.551261665 22.8655797534 516.629458429 -10.0000172928 400.147675297 -10.0000172928 c 0
 232.509897213 -10.0000172928 43 58.0721060371 43 351 c 1
 43.0000011316 577.311425617 177.954776313 720 392 720 c 0
 498.238699776 720 628.169921875 651.375976562 647 484 c 1
 557 484 l 1
 547.819335938 526.84375 523.000470834 646 387 646 c 0
 241.584856796 646 137.393582215 539.970447449 136 351 c 0
 135.993110871 350.065830586 135.989672542 349.133353187 135.989672542 348.20257628 c 4
 135.989672542 174.380590207 225.902487486 59.863814617 414.497051104 59.863814617 c 4
 460.412818988 59.863814617 479.570886972 62.4625986886 560 90 c 1
 560 294 l 1
 397 294 l 1
 397 295 397 286 397 364 c 1
 647 364 l 1
EndSplineSet
Substitution2: "'ss07' Style Set 7 in Latin lookup 28 subtable" G.ss07
Substitution2: "'aalt' Access All Alternates in Latin lookup 0 subtable" G.ss07
EndChar

StartChar: H
Encoding: 72 72 37
Width: 695
GlyphClass: 2
Flags: HW
HStem: 0 21G<82 172 524 613> 334 70<124 568> 688 20G<82 172 524 613>
VStem: 82 90<0 334 404 708> 124 48<334 404> 524 89<0 334 404 708> 524 44<334 404>
AnchorPoint: "Anchor-2" 348 0 basechar 0
AnchorPoint: "Anchor-0" 348 708 basechar 0
LayerCount: 3
Fore
SplineSet
82 0 m 1xf0
 82 708 l 1
 172 708 l 1
 172 0 l 1
 82 0 l 1xf0
524 0 m 1xe4
 524 708 l 1
 613 708 l 1
 613 0 l 1
 524 0 l 1xe4
124 404 m 1xea
 568 404 l 1
 568 334 l 1
 427 334 l 4
 124 334 l 1
 124 404 l 1xea
EndSplineSet
Validated: 1048581
EndChar

StartChar: Hbar
Encoding: 294 294 38
Width: 706
GlyphClass: 2
Flags: HW
HStem: 0 21G<88 168 539 619> 334 69<130 573> 533 65<6 701> 689 19G<88 168 539 619>
VStem: 88 80<0 334 404 708> 130 38<334 404> 539 80<0 334 404 708> 539 35<334 404>
AnchorPoint: "Anchor-2" 353 0 basechar 0
AnchorPoint: "Anchor-0" 353 708 basechar 0
LayerCount: 3
Fore
SplineSet
6 533 m 1xf0
 6 599 l 1
 701 599 l 1
 701 533 l 1
 6 533 l 1xf0
88 0 m 1xf8
 88 708 l 1
 168 708 l 1
 168 0 l 1
 88 0 l 1xf8
539 0 m 1xf2
 539 708 l 1
 619 708 l 1
 619 0 l 1
 539 0 l 1xf2
130 404 m 1xf5
 573 404 l 1
 573 334 l 1
 130 334 l 1
 130 404 l 1xf5
EndSplineSet
Validated: 1048581
EndChar

StartChar: I
Encoding: 73 73 39
Width: 254
GlyphClass: 2
Flags: HW
HStem: 0 21G<82 172> 688 20G<82 172>
VStem: 82 90<0 708>
AnchorPoint: "Anchor-3" 150 0 basechar 0
AnchorPoint: "Anchor-2" 127 0 basechar 0
AnchorPoint: "Anchor-0" 127 708 basechar 0
LayerCount: 3
Fore
SplineSet
82 0 m 5
 82 708 l 5
 172 708 l 5
 172 0 l 5
 82 0 l 5
EndSplineSet
Validated: 1048577
EndChar

StartChar: J
Encoding: 74 74 48
Width: 366
Flags: HW
HStem: -10 77.4258<6.0248 162.187> 688 20G<202 291>
VStem: 202 89<106.809 708>
LayerCount: 3
Fore
SplineSet
72 -10 m 3
 39.984375 -10 6 -9.83984375 6 -9.83984375 c 2
 6 67.42578125 l 1
 78 67.42578125 l 2
 155 67.42578125 202 98 202 181 c 2
 202 708 l 1
 291 708 l 1
 291 178 l 2
 291 115 272 68 235 37 c 0
 196 5 141.006835938 -10 72 -10 c 3
EndSplineSet
Validated: 1
Substitution2: "'ss08' Style Set 8 in Latin lookup 29 subtable" J.ss08
Substitution2: "'aalt' Access All Alternates in Latin lookup 0 subtable" J.ss08
EndChar

StartChar: K
Encoding: 75 75 49
Width: 629
GlyphClass: 2
Flags: HW
HStem: 0 21G<79 168 504.652 647> 688 20G<79 168 488.941 626>
VStem: 79 89<0 708>
AnchorPoint: "Anchor-2" 343 0 basechar 0
AnchorPoint: "Anchor-0" 332 708 basechar 0
LayerCount: 3
Fore
SplineSet
79 0 m 1
 79 708 l 1
 168 708 l 1
 168 0 l 1
 79 0 l 1
168 368 m 1
 509 708 l 1
 626 708 l 1
 272 368 l 1
 168 368 l 1
524 0 m 1
 168 368 l 1
 272 368 l 1
 647 0 l 5
 524 0 l 1
EndSplineSet
Validated: 1048581
Substitution2: "'ss04' Style Set 4 in Latin lookup 25 subtable" K.ss04
Substitution2: "'aalt' Access All Alternates in Latin lookup 0 subtable" K.ss04
EndChar

StartChar: L
Encoding: 76 76 51
Width: 513
GlyphClass: 2
Flags: HW
HStem: 0 70<124 504> 688 20G<82 172>
VStem: 82 90<70 708> 124 48<0 70>
AnchorPoint: "Anchor-2" 311 0 basechar 0
AnchorPoint: "Anchor-1" 369 708 basechar 0
AnchorPoint: "Anchor-0" 121 708 basechar 0
LayerCount: 3
Fore
SplineSet
82 0 m 1xe0
 82 708 l 1
 172 708 l 1xe0
 172 0 l 1xd0
 82 0 l 1xe0
124 0 m 1xd0
 124 70 l 5
 504 70 l 5
 504 0 l 1
 124 0 l 1xd0
EndSplineSet
Validated: 1048581
EndChar

StartChar: Lslash
Encoding: 321 321 55
Width: 562
GlyphClass: 2
Flags: HW
HStem: 0 70<130 511> 689 19G<88 168>
VStem: 88 80<70 339 406 708> 130 38<0 70 343 406>
AnchorPoint: "Anchor-2" 317 0 basechar 0
AnchorPoint: "Anchor-1" 375 708 basechar 0
AnchorPoint: "Anchor-0" 127 708 basechar 0
LayerCount: 3
Fore
SplineSet
132 339 m 1xc0
 6 287 l 1
 6 351 l 1
 130 402 l 1
 132 339 l 1xc0
130 406 m 1
 308 479 l 1
 308 416 l 1
 132 343 l 1
 130 406 l 1
88 0 m 1xe0
 88 708 l 1
 168 708 l 1xe0
 168 0 l 1xd0
 88 0 l 1xe0
130 0 m 1xd0
 130 70 l 1
 511 70 l 1
 511 0 l 1
 130 0 l 1xd0
EndSplineSet
Validated: 1048581
EndChar

StartChar: M
Encoding: 77 77 56
Width: 862
Flags: HW
HStem: 0 21G<82 172 368.813 487.193 691 780> 688 20G<82 211.235 649.824 780>
VStem: 141 31<634.831 654> 691 26<639.847 659>
LayerCount: 3
Fore
SplineSet
82 0 m 5
 82 708 l 5
 204 708 l 5
 450 28 l 5
 413 28 l 5
 657 708 l 5
 780 708 l 5
 780 0 l 5
 691 0 l 5
 691 659 l 5
 717 659 l 5
 480 0 l 5
 376 0 l 5
 141 654 l 5
 172 654 l 5
 172 0 l 5
 82 0 l 5
EndSplineSet
Validated: 5
Substitution2: "'ss06' Style Set 6 in Latin lookup 27 subtable" M.ss06
Substitution2: "'aalt' Access All Alternates in Latin lookup 0 subtable" M.ss06
EndChar

StartChar: N
Encoding: 78 78 57
Width: 690
GlyphClass: 2
Flags: HW
HStem: 0 21G<81 170 510.169 611> 688 20G<81 176.852 522 611>
VStem: 81 89<0 597> 522 89<112 708>
AnchorPoint: "Anchor-2" 347 0 basechar 0
AnchorPoint: "Anchor-0" 347 708 basechar 0
LayerCount: 3
Fore
SplineSet
81 0 m 5
 81 708 l 5
 164 708 l 5
 547 112 l 5
 522 111 l 5
 522 708 l 5
 611 708 l 5
 611 0 l 5
 523 0 l 5
 140 597 l 5
 170 599 l 5
 170 0 l 5
 81 0 l 5
EndSplineSet
Validated: 1048581
EndChar

StartChar: Eng
Encoding: 330 330 62
Width: 706
Flags: HW
HStem: -211 70<404 525> 0 25<545 619> 689 19G<88 185 544 619>
VStem: 88 76<0 597> 544 75<-125 25 112 708>
LayerCount: 3
Fore
SplineSet
88 0 m 1
 88 708 l 1
 172 708 l 1
 565 112 l 1
 544 111 l 1
 544 708 l 1
 619 708 l 1
 619 0 l 1
 545 0 l 1
 153 597 l 1
 164 599 l 1
 164 0 l 1
 88 0 l 1
473 -211 m 0
 456 -211 442 -211 430 -209 c 0
 418 -207 410 -204 404 -202 c 1
 404 -133 l 1
 411 -135 419 -136 430 -138 c 0
 441 -140 453 -141 466 -141 c 0
 496 -141 515 -137 526 -126 c 0
 537 -115 542 -98 542 -76 c 2
 542 25 l 1
 619 25 l 1
 619 -79 l 2
 619 -118 607 -150 584 -175 c 0
 561 -200 525 -211 473 -211 c 0
EndSplineSet
Validated: 5
EndChar

StartChar: O
Encoding: 79 79 63
Width: 720
GlyphClass: 2
Flags: HW
HStem: -10 70<266.755 457.758> 649 69<263.822 452.085>
VStem: 43 93<209.041 493.124> 584 94<213.248 496.324>
AnchorPoint: "Anchor-3" 493 19 basechar 0
AnchorPoint: "Anchor-2" 360 0 basechar 0
AnchorPoint: "Anchor-1" 709 708 basechar 0
AnchorPoint: "Anchor-0" 360 708 basechar 0
LayerCount: 3
Fore
SplineSet
359.502929688 -10 m 0
 169.391601562 -10 43 133.1015625 43 350 c 0
 43 567.802734375 170.205078125 718 356.02734375 718 c 3
 554.513671875 718 678 577.16015625 678 350 c 0
 678 137.1171875 549.401367188 -10 359.502929688 -10 c 0
363 60 m 260
 501.836914062 60 584 168.647460938 584 348 c 256
 584 543.357421875 504.833984375 649 351.915039062 649 c 256
 218.48828125 649 136 536.005859375 136 350 c 0
 136 166.125 217.309570312 60 363 60 c 260
EndSplineSet
Validated: 1
Substitution2: "Single Substitution lookup 17 subtable" ordmasculine
Substitution2: "'aalt' Access All Alternates in Latin lookup 0 subtable" ordmasculine
EndChar

StartChar: Oslash
Encoding: 216 216 70
Width: 749
GlyphClass: 2
Flags: HW
HStem: -10 72<276 472> 647 72<274 475>
VStem: 54 81<225 489> 615 82<228 489>
AnchorPoint: "Anchor-3" 508 19 basechar 0
AnchorPoint: "Anchor-2" 375 0 basechar 0
AnchorPoint: "Anchor-1" 724 708 basechar 0
AnchorPoint: "Anchor-0" 375 708 basechar 0
LayerCount: 3
Fore
SplineSet
110 -10 m 1
 62 29 l 1
 640 719 l 1
 688 680 l 1
 110 -10 l 1
375 -10 m 0
 328 -10 285 -1 246 17 c 0
 207 35 173 60 144 93 c 0
 115 126 93 165 78 209 c 0
 63 253 54 303 54 357 c 0
 54 428 68 490 95 545 c 0
 122 600 160 642 208 673 c 0
 256 704 312 719 374 719 c 0
 437 719 494 704 542 673 c 0
 590 642 627 600 655 545 c 0
 683 490 696 428 696 357 c 0
 696 303 688 253 672 209 c 0
 656 165 634 126 605 93 c 0
 576 60 542 35 503 17 c 0
 464 -1 421 -10 375 -10 c 0
374 62 m 256
 422 62 462 74 499 99 c 0
 536 124 564 159 584 204 c 0
 604 249 615 300 615 358 c 256
 615 416 605 466 585 509 c 0
 565 552 537 586 500 610 c 0
 463 634 423 647 374 647 c 256
 325 647 284 634 248 610 c 0
 212 586 183 552 164 509 c 0
 145 466 134 416 134 358 c 0
 134 299 145 248 165 204 c 0
 185 160 213 124 249 99 c 0
 285 74 326 62 374 62 c 256
EndSplineSet
Validated: 5
EndChar

StartChar: OE
Encoding: 338 338 72
Width: 1008
Flags: HW
HStem: -10 72<285 504> 0 70<583 938> 334 69<583 903> 639 70<583 930> 647 72<285 504>
VStem: 54 81<224 487> 504 79<70 334 404 623> 504 33<7 7 623 701>
LayerCount: 3
Fore
SplineSet
402 -10 m 0xad
 331 -10 269 6 217 37 c 0
 165 68 124 110 96 165 c 0
 68 220 54 284 54 356 c 0
 54 427 68 489 96 544 c 0
 124 599 165 641 217 672 c 0
 269 703 331 719 402 719 c 0
 430 719 455 717 477 714 c 0
 499 711 520 707 537 701 c 1
 537 623 l 1
 524 631 504 637 480 641 c 0
 456 645 430 647 402 647 c 0
 344 647 295 634 255 610 c 0
 215 586 185 552 165 509 c 0
 145 466 134 415 134 356 c 256
 134 297 145 244 165 200 c 0
 185 156 215 122 255 98 c 0
 295 74 344 62 402 62 c 0
 430 62 456 64 480 68 c 0
 504 72 524 78 537 86 c 1
 537 7 l 1
 520 1 499 -3 477 -6 c 0
 455 -9 430 -10 402 -10 c 0xad
504 0 m 1x75
 504 708 l 1x75
 930 708 l 1
 930 639 l 1
 583 639 l 1
 583 404 l 1
 903 404 l 1
 903 334 l 1
 583 334 l 1
 583 70 l 1x76
 938 70 l 1
 938 0 l 1
 504 0 l 1x75
EndSplineSet
Validated: 5
EndChar

StartChar: P
Encoding: 80 80 73
Width: 601
Flags: HW
HStem: 0 21G<82 172> 292 70<141 437.36> 638 70<172 438.588>
VStem: 82 90<0 292 362 638> 141 31<292 362> 499 79<423.06 582.351>
LayerCount: 3
Fore
SplineSet
578 502 m 260xf4
 578 370.21875 491.587890625 292 346 292 c 6
 141 292 l 5
 141 362 l 5xec
 342 362 l 6
 443.604492188 362 499 411.396484375 499 502 c 260
 499 591.866210938 445.7421875 638 342 638 c 6
 172 638 l 5
 172 0 l 5
 82 0 l 5
 82 708 l 5
 346 708 l 6
 494.189453125 708 578 633.58203125 578 502 c 260xf4
EndSplineSet
Validated: 5
EndChar

StartChar: Thorn
Encoding: 222 222 74
Width: 629
Flags: HW
HStem: 0 21G<88 168> 159 70<147 445> 500 70<147 445> 689 19G<88 168>
VStem: 88 80<0 159 229 500 570 708> 147 22<159 229 500 570> 505 79<285 442>
LayerCount: 3
Fore
SplineSet
147 159 m 1xf6
 147 229 l 1
 348 229 l 2
 400 229 438 239 465 263 c 0
 492 287 505 321 505 364 c 256
 505 407 492 440 465 464 c 0
 438 488 400 500 348 500 c 2
 147 500 l 1
 147 570 l 1
 351 570 l 2
 400 570 441 561 476 545 c 0
 511 529 538 505 556 474 c 0
 574 443 584 406 584 364 c 0
 584 322 574 286 556 255 c 0
 538 224 511 200 476 184 c 0
 441 168 400 159 351 159 c 2
 147 159 l 1xf6
88 0 m 1xfa
 88 708 l 1
 168 708 l 1
 168 0 l 1
 88 0 l 1xfa
EndSplineSet
Validated: 5
EndChar

StartChar: Q
Encoding: 81 81 75
Width: 756
Flags: HW
HStem: -1 21G<696 721> 649 69<265.345 453.803>
VStem: 43 92<217.661 497.798> 584 94<205.037 487.662>
LayerCount: 3
Fore
SplineSet
366 60 m 0
 506 60 584 164 584 348 c 0
 584 537 504 649 359 649 c 0
 216 649 137 539 137 358 c 0
 137 172 220 60 366 60 c 0
359 718 m 0
 552 718 678 570 678 339 c 0
 678 246 658 183 610 128 c 0
 570 82 515 46 461 30 c 1
 489 57 531 72 590 76 c 0
 629 78 676 86 721 90 c 1
 721 -1 l 1
 671 5 610 6 538 3 c 1
 404 -7 l 2
 388.858398438 -8.1298828125 377.198242188 -10.0322265625 363 -10 c 4
 226.163085938 -9.69140625 129.720703125 49.986328125 80 166 c 0
 56 222 43 287 43 356 c 0
 43 574 169 718 359 718 c 0
EndSplineSet
Validated: 37
Substitution2: "'ss09' Style Set 9 in Latin lookup 30 subtable" Q.ss09
Substitution2: "'aalt' Access All Alternates in Latin lookup 0 subtable" Q.ss09
EndChar

StartChar: R
Encoding: 65537 -1 76
Width: 629
GlyphClass: 2
Flags: HW
HStem: 0 21G<88 168 465 602> 312 70<232 427> 312 41<147 232> 639 70<168 429>
VStem: 88 80<0 312 381 639> 147 22<312 381> 487 79<437 585>
AnchorPoint: "Anchor-2" 315 0 basechar 0
AnchorPoint: "Anchor-0" 315 708 basechar 0
LayerCount: 3
Fore
SplineSet
88 0 m 1xda
 88 708 l 1
 334 708 l 2
 383 708 425 700 460 684 c 0
 495 668 521 645 539 616 c 0
 557 587 566 551 566 511 c 256
 566 471 557 436 539 406 c 0
 521 376 495 353 460 337 c 0
 425 321 383 312 334 312 c 2xda
 147 312 l 1xb6
 147 381 l 1xd6
 331 381 l 2
 382 381 421 394 448 417 c 0
 475 440 487 471 487 511 c 0
 487 550 474 581 448 604 c 0
 422 627 382 639 331 639 c 2
 168 639 l 1
 168 0 l 1
 88 0 l 1xda
485 0 m 1
 126 354 l 1
 232 354 l 1xb2
 602 0 l 1
 485 0 l 1
EndSplineSet
Validated: 1048581
Substitution2: "'calt' Contextual Alternates in Latin lookup 26 subtable" R
Substitution2: "'aalt' Access All Alternates in Latin lookup 0 subtable" R
EndChar

StartChar: S
Encoding: 83 83 80
Width: 568
GlyphClass: 2
Flags: HW
HStem: -10 70<205.119 394.116> 505 21G<431.5 523> 649 69<199.631 378.077>
VStem: 37 94<135.054 227> 67 88<473.99 606.253> 432 91<505 593.143> 445 86<106.608 253.364>
AnchorPoint: "Anchor-2" 293 0 basechar 0
AnchorPoint: "Anchor-0" 293 708 basechar 0
LayerCount: 3
Fore
SplineSet
308 -10 m 0xea
 131 -10 41 70 37 227 c 1
 131 227 l 1
 133 116 186 60 308 60 c 0
 331 60 445 65 445 174 c 0xf2
 445 242 417 283 351 304 c 2
 234 340 l 2
 165 362 67 414 67 535 c 0
 67 653.674804688 165.459960938 717.649414062 287 717.999023438 c 4
 287.333007812 718 287.666015625 718 288 718 c 0
 442 718 521 647 523 505 c 1
 432 505 l 1xec
 431 601 390 649 287 649 c 0
 244 649 155 639 155 542 c 0
 155 518 154 455 263 419 c 2
 375 379 l 2
 494 340 531 260 531 175 c 0
 531 151 523 -10 308 -10 c 0xea
EndSplineSet
Validated: 1048609
EndChar

StartChar: uni1E9E
Encoding: 7838 7838 85
Width: 683
Flags: HW
HStem: -9 69<271 499> 0 20G<88 177> 650 70<268 482>
VStem: 88 88<0 550> 549 89<109 266>
LayerCount: 3
Fore
SplineSet
397 -9 m 0xb8
 337 -9 299 -3 270 0 c 1x78
 270 72 l 1
 304 65 365 61 398 61 c 0xb8
 470 61 549 77 549 187 c 0
 549 265 509 317 367 360 c 1
 342 369 l 1
 554 634 l 1
 544 577 l 5
 509 617 453 650 373 650 c 4
 314 650 177 639 177 437 c 2
 177 0 l 1
 88 0 l 1x78
 88 437 l 2
 88 560 134 720 376 720 c 0
 429 720 476 711 515 695 c 0
 554 679 595 652 633 615 c 1
 435 365 l 1
 408 422 l 1
 485 398 543 366 581 325 c 0
 619 284 639 235 639 179 c 0
 639 140 629 106 611 78 c 0
 593 50 565 27 528 13 c 0
 491 -1 449 -9 397 -9 c 0xb8
EndSplineSet
Validated: 5
EndChar

StartChar: T
Encoding: 84 84 86
Width: 556
GlyphClass: 2
Flags: HW
HStem: 0 21G<234 324> 638 70<7 234 324 550>
VStem: 234 90<0 638>
AnchorPoint: "Anchor-2" 277 0 basechar 0
AnchorPoint: "Anchor-0" 278 708 basechar 0
LayerCount: 3
Fore
SplineSet
234 0 m 1
 234 638 l 5
 7 638 l 5
 7 708 l 1
 550 708 l 1
 550 638 l 5
 324 638 l 5
 324 0 l 1
 234 0 l 1
EndSplineSet
Validated: 1048577
EndChar

StartChar: U
Encoding: 85 85 89
Width: 669
GlyphClass: 2
Flags: HW
HStem: -10 70<242.335 425.341> 688 20G<76 165 504 595>
VStem: 76 89<146.537 708> 504 91<146.062 708>
AnchorPoint: "Anchor-3" 465 19 basechar 0
AnchorPoint: "Anchor-2" 334 0 basechar 0
AnchorPoint: "Anchor-1" 651 708 basechar 0
AnchorPoint: "Anchor-0" 334 708 basechar 0
LayerCount: 3
Fore
SplineSet
333 -10 m 0
 251 -10 189 15 144 65 c 0
 99 115 76 186 76 275 c 2
 76 708 l 1
 165 708 l 1
 165 264 l 2
 165 152.78125 202.583984375 60 328 60 c 0
 373.787109375 60 504 60 504 264 c 2
 504 708 l 1
 595 708 l 1
 595 274 l 2
 595 186 570 115 525 65 c 0
 480 15 416 -10 333 -10 c 0
EndSplineSet
Validated: 1
EndChar

StartChar: V
Encoding: 86 86 99
Width: 621
Flags: HW
HStem: 0 21G<256.712 368.316> 688 20G<6 107.094 517.906 620>
LayerCount: 3
Fore
SplineSet
264 0 m 1
 6 708 l 1
 100 708 l 1
 338 37 l 1
 287 37 l 5
 525 708 l 5
 620 708 l 1
 361 0 l 1
 264 0 l 1
EndSplineSet
Validated: 5
EndChar

StartChar: W
Encoding: 87 87 100
Width: 940
GlyphClass: 2
Flags: HW
HStem: 0 21G<199.463 308.483 631.517 739.537> 688 20G<9 110.346 412.747 530.315 834.624 930>
AnchorPoint: "Anchor-2" 471 0 basechar 0
AnchorPoint: "Anchor-0" 471 708 basechar 0
LayerCount: 3
Fore
SplineSet
205 0 m 1
 9 708 l 1
 105 708 l 1
 279 57 l 1
 247 57 l 1
 418 708 l 1
 525 708 l 5
 698 57 l 5
 665 57 l 1
 840 708 l 1
 930 708 l 1
 734 0 l 1
 637 0 l 1
 464 631 l 1
 476 631 l 1
 303 0 l 1
 205 0 l 1
EndSplineSet
Validated: 1048581
EndChar

StartChar: X
Encoding: 88 88 105
Width: 580
Flags: HW
HStem: 0 21G<-1 106.6 468.807 583> 688 20G<14 129.248 473.39 582>
LayerCount: 3
Fore
SplineSet
482 0 m 1
 263 332 l 1
 14 708 l 1
 116 708 l 1
 322 397 l 1
 583 0 l 1
 482 0 l 1
274 395 m 1
 487 708 l 1
 582 708 l 5
 325 329 l 5
 274 395 l 1
314 325 m 5
 93 0 l 5
 -1 0 l 1
 262 392 l 1
 314 325 l 5
EndSplineSet
Validated: 5
EndChar

StartChar: Y
Encoding: 89 89 106
Width: 599
GlyphClass: 2
Flags: HW
HStem: 0 21G<262 351> 688 20G<5 123.097 496.844 598>
VStem: 262 89<0 322>
AnchorPoint: "Anchor-2" 301 0 basechar 0
AnchorPoint: "Anchor-0" 301 708 basechar 0
LayerCount: 3
Fore
SplineSet
262 0 m 1
 262 322 l 1
 5 708 l 1
 110 708 l 5
 332 369 l 5
 287 369 l 1
 510 708 l 1
 598 708 l 1
 351 322 l 1
 351 0 l 1
 262 0 l 1
EndSplineSet
Validated: 1048581
EndChar

StartChar: Z
Encoding: 90 90 111
Width: 539
GlyphClass: 2
Flags: HW
HStem: 0 70<113 519> 638 70<39 426>
AnchorPoint: "Anchor-2" 267 0 basechar 0
AnchorPoint: "Anchor-0" 267 708 basechar 0
LayerCount: 3
Fore
SplineSet
30 0 m 1
 30 60 l 1
 426 678 l 1
 454 638 l 1
 39 638 l 1
 39 708 l 1
 510 708 l 1
 510 649 l 1
 113 31 l 1
 75 70 l 1
 387 70 l 4
 519 70 l 1
 519 0 l 1
 30 0 l 1
EndSplineSet
Validated: 1048581
EndChar

StartChar: K.ss04
Encoding: 65559 -1 133
Width: 664
GlyphClass: 2
Flags: HW
HStem: 0 21G<88 168 523 637> 689 19G<88 168 496 617>
VStem: 88 80<0 708>
AnchorPoint: "Anchor-2" 343 0 basechar 0
AnchorPoint: "Anchor-0" 332 708 basechar 0
LayerCount: 3
Fore
SplineSet
88 0 m 1
 88 708 l 1
 168 708 l 1
 168 0 l 1
 88 0 l 1
107 252 m 1
 514 708 l 1
 617 708 l 1
 327 390 l 1
 310 381 l 1
 135 190 l 1
 107 252 l 1
536 0 m 1
 251 406 l 1
 340 408 l 1
 637 0 l 1
 536 0 l 1
EndSplineSet
Validated: 1048581
EndChar

StartChar: R
Encoding: 82 82 135
Width: 619
GlyphClass: 2
Flags: HW
HStem: 0 21G<82 173 492.516 597> 311 75<141 376.694> 331 26<379 436> 633 75<173 412.246>
VStem: 82 91<0 311 386 633> 141 32<311 386> 472 88<444.842 580.806>
AnchorPoint: "Anchor-5" 306 701 basechar 0
AnchorPoint: "Anchor-6" 329 0 basechar 0
AnchorPoint: "Anchor-2" 317 0 basechar 0
AnchorPoint: "Anchor-0" 308 708 basechar 0
LayerCount: 3
Fore
SplineSet
82 0 m 1xda
 82 708 l 1
 328 708 l 17
 372 708 414 699 452 682 c 1
 487 667 514 644 532 615 c 1
 550 586 560 554 560 517 c 1
 560 472 545 434 515 403 c 1
 481 369 436 344 379 331 c 1
 299 357 l 1xba
 411 355 492.853515625 302.296875 525.173828125 205.5625 c 1
 552.879882812 137.47265625 564.1171875 52.9130859375 597 0 c 5
 554 0 542 0 499 0 c 1
 445.06640625 174.793945312 l 2
 412.701171875 279.688476562 328 311 254 311 c 2
 141 311 l 1
 141 386 l 1xd6
 316 386 l 18
 394 386 472 427 472 513 c 0
 472 597 402 633 316 633 c 10
 173 633 l 1
 173 0 l 1
 82 0 l 1xda
EndSplineSet
Validated: 1048581
EndChar

StartChar: M.ss06
Encoding: 65561 -1 139
Width: 853
Flags: HW
HStem: 0 21G<69 144 361 486 704 785> 689 19G<132 250 602 721>
VStem: 69 73<0 71> 706 79<0 71>
LayerCount: 3
Fore
SplineSet
69 0 m 1
 133 708 l 1
 244 708 l 1
 438 28 l 1
 415 28 l 1
 608 708 l 1
 720 708 l 1
 785 0 l 1
 706 0 l 1
 643 659 l 1
 666 659 l 1
 480 0 l 1
 367 0 l 1
 183 654 l 1
 204 654 l 1
 142 0 l 1
 69 0 l 1
EndSplineSet
Validated: 5
EndChar

StartChar: G.ss07
Encoding: 65562 -1 140
Width: 728
GlyphClass: 2
Flags: HW
HStem: -10 72<276 484> 295 70<401 599> 295 30<599 618> 647 72<278 484>
VStem: 54 81<218 486> 584 80<484 550>
AnchorPoint: "Anchor-2" 375 0 basechar 0
AnchorPoint: "Anchor-0" 375 708 basechar 0
LayerCount: 3
Fore
SplineSet
379 -10 m 0xbc
 314 -10 257 6 208 37 c 0
 159 68 121 110 94 165 c 0
 67 220 54 283 54 352 c 0
 54 425 67 488 95 543 c 0
 123 598 161 641 210 672 c 0
 259 703 316 719 379 719 c 0
 433 719 481 708 521 687 c 0
 561 666 594 639 619 603 c 0
 644 567 658 527 664 484 c 1
 584 484 l 1
 580 514 570 540 554 565 c 0
 538 590 515 611 486 625 c 0
 457 639 421 647 381 647 c 0
 330 647 288 634 251 610 c 0
 214 586 185 551 165 507 c 0
 145 463 134 412 134 352 c 0
 134 294 145 242 164 199 c 0
 183 156 212 122 249 98 c 0
 286 74 329 62 382 62 c 0
 422 62 460 70 493 87 c 0
 526 104 552 133 571 171 c 0
 590 209 599 261 599 325 c 1
 675 325 l 1
 675 249 662 186 636 136 c 0
 610 86 573 50 529 26 c 0
 485 2 434 -10 379 -10 c 0xbc
618 295 m 1
 401 295 l 1
 401 365 l 1
 675 365 l 1xdc
 675 325 l 1
 618 295 l 1
EndSplineSet
Validated: 1048581
EndChar

StartChar: J.ss08
Encoding: 65566 -1 144
Width: 598
Flags: HW
HStem: -10 72<208 369> 689 19G<438 517>
VStem: 63 78<131 221> 438 79<135 708>
LayerCount: 3
Fore
SplineSet
289 -10 m 0
 245 -10 207 -1 173 17 c 0
 139 35 111 62 92 97 c 0
 73 132 63 173 63 221 c 1
 141 221 l 1
 141 169 155 130 183 103 c 0
 211 76 246 62 288 62 c 0
 317 62 343 69 365 81 c 0
 387 93 405 111 418 137 c 0
 431 163 438 196 438 235 c 2
 438 708 l 1
 517 708 l 1
 517 238 l 2
 517 184 506 139 487 102 c 0
 468 65 441 37 407 18 c 0
 373 -1 333 -10 289 -10 c 0
EndSplineSet
Validated: 1
EndChar

StartChar: Q.ss09
Encoding: 65567 -1 145
Width: 749
Flags: HW
HStem: -10 72<276 475> 647 72<274 475>
VStem: 54 81<225 489> 615 82<226 489>
LayerCount: 3
Fore
SplineSet
375 -10 m 0
 328 -10 285 -1 246 17 c 0
 207 35 173 60 144 93 c 0
 115 126 93 165 78 209 c 0
 63 253 54 303 54 357 c 0
 54 428 68 490 95 545 c 0
 122 600 160 642 208 673 c 0
 256 704 312 719 374 719 c 0
 437 719 494 704 542 673 c 0
 590 642 627 600 655 545 c 0
 683 490 696 428 696 357 c 0
 696 303 688 253 672 209 c 0
 656 165 634 126 605 93 c 0
 576 60 542 35 503 17 c 0
 464 -1 421 -10 375 -10 c 0
374 62 m 0
 411 62 443 70 473 84 c 0
 503 98 528 117 549 144 c 0
 570 171 586 201 598 238 c 0
 610 275 615 314 615 358 c 0
 615 416 605 466 585 509 c 0
 565 552 537 586 500 610 c 0
 463 634 423 647 374 647 c 256
 325 647 284 634 248 610 c 0
 212 586 183 552 164 509 c 0
 145 466 134 416 134 358 c 0
 134 299 145 248 165 204 c 0
 185 160 213 124 249 99 c 0
 285 74 326 62 374 62 c 0
377 218 m 1
 439 253 l 1
 634 -85 l 1
 573 -119 l 1
 377 218 l 1
EndSplineSet
Validated: 5
EndChar

StartChar: a
Encoding: 97 97 150
Width: 514
GlyphClass: 2
Flags: HW
HStem: -10 63<158.705 309.52> 0 21G<385.5 464> 244 58<181.141 388> 448 62<195.996 340.58>
VStem: 40 88<83.449 202.917> 78 87<363 417.952> 374 77<0.565418 92 209 244 302 413.885> 374 14<244 302> 376 23<84 132.643> 387 77<0 90.9717>
AnchorPoint: "Anchor-3" 464 0 basechar 0
AnchorPoint: "Anchor-2" 259 0 basechar 0
AnchorPoint: "Anchor-0" 268 502 basechar 0
LayerCount: 3
Fore
SplineSet
387 0 m 5x7040
 384 12 381 24 380 38 c 0
 379 52 378 70 378 92 c 1
 374 92 l 1
 374 339 l 2
 374 416 335 448 273 448 c 0
 203 448 168 418 165 363 c 1
 78 363 l 1
 81 403 97 444 125 467 c 0
 155 492 202 510 266 510 c 0
 382 510 451 463 451 339 c 2
 451 92 l 2x76
 451 78 452 62 454 45 c 0
 456 28 459 12 464 0 c 5
 387 0 l 5x7040
212 -10 m 0xb880
 162 -10 123 4 94 31 c 0
 71 52 52 80 44 117 c 0
 42 127 40 137 40 149 c 3
 40 207 74 254 133 278 c 0
 195 303 286 312 388 302 c 0
 388 244 l 1xb9
 195 242 128 231 128 139 c 0
 128 109 145 54 231 53 c 0
 347 51 376 157 376 209 c 1
 399 100 l 1
 394 84 358 -10 212 -10 c 0xb880
EndSplineSet
Validated: 1048613
Substitution2: "'ss02' Style Set 2 in Latin lookup 23 subtable" a.ss02
Substitution2: "Single Substitution lookup 17 subtable" ordfeminine
AlternateSubs2: "'aalt' Access All Alternates in Latin lookup 1 subtable" a.ss02 ordfeminine
EndChar

StartChar: ae
Encoding: 230 230 161
Width: 831
Flags: HW
HStem: -10 66<152 306 507 654> 229 65<412 712> 446 66<178 327 510 653>
VStem: 50 78<78 184> 65 75<357 408> 357 78<165 229 246 310 339 376> 365 13<246 308> 412 23<229 293>
LayerCount: 3
Fore
SplineSet
357 132 m 1xe4
 357 339 l 2
 357 376 349 403 333 420 c 0
 317 437 291 446 256 446 c 256
 221 446 194 437 174 422 c 0
 154 407 143 385 140 357 c 1
 65 357 l 1
 68 406 86 442 121 470 c 0
 156 498 201 511 260 511 c 256
 319 511 363 497 392 468 c 0
 421 439 435 396 435 339 c 2xec
 435 132 l 1xe1
 357 132 l 1xe4
209 -10 m 0
 160 -10 122 2 93 27 c 0
 64 52 50 85 50 126 c 0
 50 166 64 199 91 225 c 0
 118 251 160 269 219 281 c 2
 378 310 l 1
 378 246 l 1
 232 220 l 2
 195 213 169 203 153 188 c 0
 137 173 128 153 128 129 c 0xf2
 128 106 136 87 152 75 c 0
 168 63 192 56 223 56 c 0
 249 56 272 60 292 70 c 0
 312 80 328 93 340 109 c 0
 352 125 357 143 357 165 c 1
 418 132 l 1
 399 80 370 43 333 22 c 0
 296 1 254 -10 209 -10 c 0
577 -10 m 0
 533 -10 496 2 464 24 c 0
 432 46 408 77 391 116 c 0
 374 155 365 201 365 253 c 0
 365 304 374 349 392 388 c 0
 410 427 435 458 468 480 c 0
 501 502 538 511 581 511 c 0
 623 511 661 501 692 481 c 0
 723 461 747 433 763 396 c 0
 779 359 787 315 787 264 c 0
 787 257 787 253 787 247 c 0
 787 241 786 236 785 229 c 1
 412 229 l 1
 412 293 l 1xe3
 738 293 l 1
 712 257 l 1
 712 319 701 366 679 398 c 0
 657 430 624 446 580 446 c 0
 552 446 528 437 506 422 c 0
 484 407 466 385 454 356 c 0
 442 327 435 292 435 253 c 0xe4
 435 193 449 146 475 110 c 0
 501 74 536 56 581 56 c 0
 610 56 635 64 655 78 c 0
 675 92 690 113 700 141 c 1
 774 141 l 1
 759 95 734 58 700 31 c 0
 666 4 625 -10 577 -10 c 0
EndSplineSet
Validated: 5
EndChar

StartChar: b
Encoding: 98 98 162
Width: 581
Flags: W
HStem: -9 62<240.008 374.988> 0 21G<69 157.65> 448 64<242.315 382.94> 688 20G<75 161>
VStem: 75 86<0.0676537 123 143.109 356.838 412 708> 157 4<387 412> 453 91<137.895 361.348>
AnchorPoint: "Anchor-0" 297 718 basechar 0
AnchorPoint: "Anchor-1" 19 710 basechar 0
AnchorPoint: "Anchor-2" 297 1 basechar 0
LayerCount: 3
Fore
SplineSet
326 -9 m 0xb6
 240 -10 181 22 137 118 c 1
 161 123 l 1xba
 157 0 l 1x76
 69 0 l 5
 69 0 75 93 75 158 c 7
 75 368 75 708 75 708 c 5
 161 708 l 1x7a
 161 387 l 1
 157 412 l 1
 194 486 253 512 334 512 c 0
 376 512 409 501 441 480 c 0
 475 457 502 426 519 389 c 0
 534 356 541 315 544 258 c 0
 551 99 463 -8 326 -9 c 0xb6
304 53 m 0
 395 53 453 129 453 248 c 0
 453 371 399 448 311 448 c 256
 219 448 158 350 158 251 c 0
 158 139 226 53 304 53 c 0
EndSplineSet
Validated: 1048613
EndChar

StartChar: c
Encoding: 99 99 163
Width: 526
GlyphClass: 2
Flags: HW
HStem: -10 63<207.588 354.908> 448 63<209.72 359.612>
VStem: 40 87<146.994 355.645> 407 84<103.239 167 333 399.287>
AnchorPoint: "Anchor-2" 260 0 basechar 0
AnchorPoint: "Anchor-0" 265 502 basechar 0
LayerCount: 3
Fore
SplineSet
280 -10 m 0
 127 -10 40 86 40 253 c 256
 40 413 133 511 283 511 c 0
 409 511 488 444 488 333 c 5
 404 333 l 7
 404 408 359 448 278 448 c 0
 193 448 127 366 127 253 c 256
 127 136 192 53 278 53 c 3
 352 53 407 101 407 167 c 0
 491 167 l 0
 491 62 405 -10 280 -10 c 0
EndSplineSet
Validated: 1048577
EndChar

StartChar: d
Encoding: 100 100 168
Width: 581
GlyphClass: 2
Flags: W
HStem: -9 62<207.012 341.676> 448 64<198.944 339.824>
VStem: 38 90<143.316 361.348> 419 85<0.0603027 123 139.133 356.838>
AnchorPoint: "Anchor-0" 319 706 basechar 0
AnchorPoint: "Anchor-1" 40 688 basechar 0
AnchorPoint: "Anchor-2" 296 0 basechar 0
LayerCount: 3
Fore
SplineSet
256 -9 m 0
 342 -10 400 22 444 118 c 1
 419 123 l 1
 424 0 l 1
 511 -1 l 5
 511 -1 504 92 504 157 c 7
 504 367 504 707 504 707 c 5
 419 708 l 1
 419 416 l 1
 382 490 329 512 248 512 c 0
 206 512 173 501 141 480 c 0
 107 457 80 426 63 389 c 0
 48 356 41 315 38 258 c 0
 31 99 119 -8 256 -9 c 0
278 53 m 0
 187 53 128 129 128 248 c 0
 128 371 183 448 271 448 c 256
 363 448 423 350 423 251 c 0
 423 139 356 53 278 53 c 0
EndSplineSet
Validated: 1048613
EndChar

StartChar: eth
Encoding: 240 240 169
Width: 574
Flags: HW
HStem: -10 70<195 357> 420 67<195 357> 655 63<117 256>
VStem: 44 80<135 345> 437 91<174 409>
LayerCount: 3
Fore
SplineSet
276 -10 m 0
 233 -10 193 0 157 19 c 0
 121 38 95 67 75 104 c 0
 55 141 44 184 44 237 c 0
 44 290 55 336 75 373 c 0
 95 410 122 438 156 457 c 0
 190 476 229 487 270 487 c 0
 304 487 334 481 362 469 c 0
 390 457 414 440 433 417 c 0
 452 394 465 367 470 337 c 1
 450 294 l 1
 450 352 l 2
 450 417 436 473 409 518 c 0
 382 563 343 598 292 621 c 0
 241 644 179 655 107 655 c 1
 117 719 l 1
 179 719 236 709 286 693 c 0
 336 677 378 653 415 621 c 0
 452 589 480 550 499 503 c 0
 518 456 528 401 528 339 c 0
 528 227 505 140 460 80 c 0
 415 20 354 -10 276 -10 c 0
273 60 m 0
 305 60 332 68 357 82 c 0
 382 96 402 117 416 145 c 0
 430 173 437 207 437 247 c 0
 437 285 429 318 414 343 c 0
 399 368 379 388 354 401 c 0
 329 414 304 420 275 420 c 0
 231 420 194 405 166 375 c 0
 138 345 124 299 124 238 c 0
 124 199 131 166 144 139 c 0
 157 112 174 93 197 80 c 0
 220 67 245 60 273 60 c 0
187 521 m 1
 156 569 l 1
 426 743 l 1
 456 695 l 1
 187 521 l 1
EndSplineSet
Validated: 5
EndChar

StartChar: dcroat
Encoding: 273 273 171
Width: 587
GlyphClass: 2
Flags: HW
HStem: -10 68<199 358> 0 21G<434 505> 443 68<200 358> 585 56<262 582> 689 19G<429 505>
VStem: 47 79<139 361> 429 77<0 111 134 368 381 708>
AnchorPoint: "Anchor-2" 294 0 basechar 0
AnchorPoint: "Anchor-1" 573 708 basechar 0
AnchorPoint: "Anchor-0" 294 726 basechar 0
LayerCount: 3
Fore
SplineSet
262 585 m 1x3e
 262 642 l 1
 582 642 l 1
 582 585 l 1
 262 585 l 1x3e
434 0 m 1x7e
 434 115 l 1
 443 111 l 1
 431 74 409 45 377 23 c 0
 345 1 308 -10 264 -10 c 256xbe
 220 -10 182 1 149 23 c 0
 116 45 91 74 74 112 c 0
 57 150 47 196 47 249 c 256
 47 302 56 347 74 386 c 0
 92 425 118 457 151 479 c 0
 184 501 223 510 267 510 c 0
 312 510 350 500 381 478 c 0
 412 456 433 422 444 381 c 1
 429 379 l 1
 429 708 l 1
 505 708 l 1
 505 0 l 1
 434 0 l 1x7e
278 58 m 0
 327 58 365 76 392 110 c 0
 419 144 433 191 433 252 c 0
 433 312 420 358 392 392 c 0
 364 426 326 443 278 443 c 256
 230 443 193 426 166 392 c 0
 139 358 126 311 126 249 c 0
 126 189 139 143 166 109 c 0
 193 75 230 58 278 58 c 0
EndSplineSet
Validated: 1048581
EndChar

StartChar: e
Encoding: 101 101 172
Width: 518
GlyphClass: 2
Flags: HW
HStem: -10 63<203.224 353.6> 229 64<126 404> 451 60<202.675 346.827>
VStem: 40 85<144.459 229 293 361.107> 404 88<106.531 167 293 382.172>
AnchorPoint: "Anchor-3" 389 18 basechar 0
AnchorPoint: "Anchor-2" 274 0 basechar 0
AnchorPoint: "Anchor-0" 275 502 basechar 0
LayerCount: 3
Fore
SplineSet
282 -10 m 0
 127 -10 40 86 40 246 c 0
 40 410 132 511 280 511 c 0
 407 511 492 425 492 265 c 0
 492 257 492 252 492 246 c 0
 492 241 491 236 490 229 c 1
 125 229 l 5
 132 127 185 53 283 53 c 0
 354 53 397 100 403 167 c 1
 489 167 l 1
 489 80 406 -10 282 -10 c 0
404 293 m 1
 397 398 355 451 276 451 c 0
 177 451 136 364 126 293 c 5
 404 293 l 1
EndSplineSet
Validated: 1048577
EndChar

StartChar: f
Encoding: 102 102 181
Width: 327
Flags: W
HStem: 0 21G<115 201> 436 66<16 310> 650 61<212.356 317>
VStem: 115 86<0 636.04>
LayerCount: 3
Fore
SplineSet
115 0 m 5
 115 578 l 6
 115 620 127 654 152 676 c 0
 177 698 220 711 266 711 c 27
 282 711 302 709 317 706 c 0
 317 645 l 1
 312 647 283 650 267 650 c 3
 250 650 231 644 219 634 c 0
 204 622 201 621 201 573 c 2
 201 0 l 1
 115 0 l 5
16 436 m 1
 16 502 l 1
 310 502 l 1
 310 436 l 1
 16 436 l 1
EndSplineSet
Validated: 5
EndChar

StartChar: g
Encoding: 103 103 182
Width: 575
GlyphClass: 2
Flags: HW
HStem: -171.75 66<179.88 347.749> 21 66<191.88 342.864> 444 66<193.323 348.792> 482 20G<425.852 506>
VStem: 36 89<159.062 369.068> 52 87<-68.1781 -20> 415 84<-40.8695 142 156.87 372.298> 427 79<381.952 502>
AnchorPoint: "Anchor-2" 263 -171.75 basechar 0
AnchorPoint: "Anchor-0" 269 502 basechar 0
LayerCount: 3
Fore
SplineSet
499 387 m 1041xc2
256 -171.75 m 0
 140 -171.75 52 -104 52 -20 c 4
 139 -20 l 7xd6
 139 -64 187 -105.75 257 -105.75 c 0
 347 -105.75 415 -64 415 47 c 2
 415 145 l 1
 424 142 l 1
 404 65 337 21 245 21 c 0
 115 21 36 111 36 258 c 256
 36 308 45 352 63 390 c 0
 81 427 107 458 140 479 c 0
 174 500 213 510 257 510 c 0xea
 302 510 340 500 370 477 c 0
 400 455 419 422 429 381 c 1
 420 380 l 1
 427 502 l 1
 506 502 l 1xd9
 505 489 502 449 499 387 c 1
 499 48 l 2
 499 -95 392 -171.75 256 -171.75 c 0
271 87 m 256
 362 87 419 155 419 265 c 0
 419 319 405 363 379 395 c 0
 353 428 316 444 271 444 c 0
 180 444 125 378 125 267 c 0xe8
 125 230 130 198 140 172 c 0
 162 115 209 87 271 87 c 256
EndSplineSet
Validated: 1048581
EndChar

StartChar: h
Encoding: 104 104 186
Width: 559
GlyphClass: 2
Flags: HW
HStem: 0 21G<71 157 409 496> 448 63<225.822 368.188> 691 20G<71 157>
VStem: 71 86<0 711> 409 87<0 401.631>
AnchorPoint: "Anchor-2" 296 0 basechar 0
AnchorPoint: "Anchor-0" 296 502 basechar 0
LayerCount: 3
Fore
SplineSet
71 0 m 1
 71 711 l 1
 157 711 l 1
 157 0 l 1
 71 0 l 1
409 0 m 1
 409 299 l 2
 409 399 378 448 302 448 c 3
 213 448 157 381 157 271 c 1
 139 388 l 1
 173 471 231 511 317 511 c 0
 432 511 496 446 496 327 c 2
 496 0 l 1
 409 0 l 1
EndSplineSet
Validated: 1048581
EndChar

StartChar: hbar
Encoding: 295 295 187
Width: 580
GlyphClass: 2
Flags: HW
HStem: 0 21G<82 160 428 504> 444 68<241 394> 585 56<6 327> 689 19G<82 160>
VStem: 82 78<0 279 394 708> 428 77<0 408>
AnchorPoint: "Anchor-2" 308 0 basechar 0
AnchorPoint: "Anchor-0" 308 502 basechar 0
LayerCount: 3
Fore
SplineSet
6 585 m 1
 6 642 l 1
 327 642 l 1
 327 585 l 1
 6 585 l 1
82 0 m 1
 82 708 l 1
 160 708 l 1
 160 0 l 1
 82 0 l 1
428 0 m 1
 428 333 l 2
 428 370 419 398 401 416 c 0
 383 434 357 444 320 444 c 0
 288 444 260 437 236 423 c 0
 212 409 193 389 180 364 c 0
 167 339 160 312 160 279 c 1
 148 394 l 1
 164 431 189 459 223 480 c 0
 257 501 295 511 337 511 c 0
 388 511 428 497 459 468 c 0
 490 439 504 402 504 354 c 2
 504 0 l 1
 428 0 l 1
EndSplineSet
Validated: 1048581
EndChar

StartChar: dotlessi
Encoding: 305 305 189
Width: 242
GlyphClass: 2
Flags: HW
HStem: 0 21G<79 165> 482 20G<79 165>
VStem: 79 86<0 502>
AnchorPoint: "Anchor-3" 160 0 basechar 0
AnchorPoint: "Anchor-2" 121 0 basechar 0
AnchorPoint: "Anchor-0" 121 502 basechar 0
LayerCount: 3
Fore
SplineSet
79 0 m 1
 79 502 l 1
 165 502 l 1
 165 0 l 1
 79 0 l 1
EndSplineSet
Validated: 1048577
EndChar

StartChar: uni0237
Encoding: 567 567 199
Width: 242
GlyphClass: 2
Flags: HW
HStem: -171.75 62<-26.4346 71.0379> 482 20G<81 167>
VStem: 81 86<-99.1029 502>
AnchorPoint: "Anchor-2" 121 -162.75 basechar 0
AnchorPoint: "Anchor-0" 121 502 basechar 0
LayerCount: 3
Fore
SplineSet
23 -171.75 m 4
 -1 -170.75 -18 -169.75 -27 -166.75 c 5
 -27 -102.75 l 5
 -15 -106.75 1 -109.75 17 -109.75 c 4
 70 -109.75 81 -86.75 81 -50.75 c 6
 81 502 l 1
 167 502 l 1
 167 -54.75 l 6
 167 -104.75 134 -171.75 32 -171.75 c 4
 28 -171.75 27 -171.75 23 -171.75 c 4
EndSplineSet
Validated: 1048577
EndChar

StartChar: k
Encoding: 107 107 200
Width: 489
GlyphClass: 2
Flags: HW
HStem: 0 21G<71 157 369.308 500> 482 20G<357.901 491> 688 20G<71 157>
VStem: 71 86<0 708>
AnchorPoint: "Anchor-2" 278 0 basechar 0
AnchorPoint: "Anchor-0" 258 708 basechar 0
LayerCount: 3
Fore
SplineSet
71 0 m 1
 71 708 l 5
 157 708 l 5
 157 0 l 1
 71 0 l 1
387 0 m 1
 157 260 l 1
 376 502 l 1
 491 502 l 1
 232 239 l 1
 236 284 l 1
 500 0 l 1
 387 0 l 1
EndSplineSet
Validated: 1048581
Substitution2: "'ss04' Style Set 4 in Latin lookup 25 subtable" k.ss04
Substitution2: "'aalt' Access All Alternates in Latin lookup 0 subtable" k.ss04
EndChar

StartChar: l
Encoding: 108 108 202
Width: 231
GlyphClass: 2
Flags: HW
HStem: 0 21G<73 159> 688 20G<73 159>
VStem: 73 86<0 708>
AnchorPoint: "Anchor-2" 115 0 basechar 0
AnchorPoint: "Anchor-1" 220 719 basechar 0
AnchorPoint: "Anchor-0" 115 708 basechar 0
LayerCount: 3
Fore
SplineSet
73 0 m 1
 73 708 l 5
 159 708 l 5
 159 0 l 1
 73 0 l 1
EndSplineSet
Validated: 1048577
EndChar

StartChar: lslash
Encoding: 322 322 206
Width: 259
GlyphClass: 2
Flags: HW
HStem: 0 21G<91 168> 689 19G<91 168>
VStem: 91 77<0 340 406 708> 130 37<344 406>
AnchorPoint: "Anchor-2" 130 0 basechar 0
AnchorPoint: "Anchor-1" 235 708 basechar 0
AnchorPoint: "Anchor-0" 130 708 basechar 0
LayerCount: 3
Fore
SplineSet
132 340 m 1xd0
 6 288 l 1
 6 351 l 1
 130 402 l 1
 132 340 l 1xd0
130 406 m 1
 253 456 l 1
 253 395 l 1
 132 344 l 1
 130 406 l 1
91 0 m 1xe0
 91 708 l 1
 168 708 l 1
 168 0 l 1
 91 0 l 1xe0
EndSplineSet
Validated: 1048581
EndChar

StartChar: m
Encoding: 109 109 207
Width: 906
Flags: HW
HStem: 0 21G<75 161 413 499 751 839> 448 63<227.181 367.434 565.565 705.83> 482 20G<69 156.579>
VStem: 75 86<0 271 426 502> 413 86<0 397.227> 751 88<0 397.227>
AnchorPoint: "Anchor-0" 302 502 basechar 0
AnchorPoint: "Anchor-2" 302 0 basechar 0
LayerCount: 3
Fore
SplineSet
751 0 m 5xdc
 751 299 l 6
 751 399 714 448 638 448 c 7
 549 448 499 381 499 271 c 5
 481 388 l 5
 515 471 573 511 659 511 c 4
 774 511 839 446 839 327 c 6
 839 0 l 5
 751 0 l 5xdc
75 0 m 5
 75 260 73 468 69 502 c 5
 155 502 l 5xbc
 161 426 l 4
 161 0 l 5
 75 0 l 5
413 0 m 5
 413 299 l 6
 413 399 375 448 299 448 c 7
 210 448 161 381 161 271 c 5
 143 388 l 5
 177 471 235 511 321 511 c 4xdc
 436 511 499 446 499 327 c 6
 499 0 l 5
 413 0 l 5
EndSplineSet
Validated: 1048581
EndChar

StartChar: n
Encoding: 110 110 208
Width: 564
GlyphClass: 2
Flags: HW
HStem: 0 21G<75 161 413 499> 448 63<229.757 367.969> 482 20G<69 156.579>
VStem: 75 86<0 501.956> 413 86<0 395.803>
LayerCount: 3
Fore
SplineSet
75 0 m 1xb8
 75 444 69 502 69 502 c 1
 155 502 l 1
 161 426 l 0
 161 0 l 1
 75 0 l 1xb8
413 0 m 1
 413 299 l 2
 413 390 381 448 299 448 c 3
 207 448 161 378 161 271 c 1
 143 388 l 1
 174 464 227 511 329 511 c 0xd8
 372 511 499 497 499 327 c 2
 499 0 l 1
 413 0 l 1
EndSplineSet
Validated: 5
EndChar

StartChar: eng
Encoding: 331 331 213
Width: 580
Flags: HW
HStem: -211 62<319 413> 0 21G<82 160> 444 68<241 394> 482 19G<82 155>
VStem: 82 78<0 279 394 502> 428 77<-133 408>
LayerCount: 3
Fore
SplineSet
368 -211 m 0xec
 356 -211 345 -210 337 -209 c 0
 329 -208 324 -207 319 -205 c 1
 319 -144 l 1
 323 -145 328 -147 336 -148 c 0
 344 -149 352 -150 362 -150 c 0
 386 -150 403 -145 413 -134 c 0
 423 -123 428 -107 428 -86 c 2
 428 333 l 2
 428 370 419 398 401 416 c 0
 383 434 357 444 320 444 c 0
 288 444 260 437 236 423 c 0
 212 409 193 389 180 364 c 0
 167 339 160 312 160 279 c 1
 148 394 l 1
 164 431 189 459 223 480 c 0
 257 501 295 511 337 511 c 0
 388 511 428 497 459 468 c 0
 490 439 504 402 504 354 c 2
 504 -89 l 2
 504 -127 495 -159 473 -180 c 0
 451 -201 416 -211 368 -211 c 0xec
82 0 m 1
 82 502 l 1
 155 502 l 1xdc
 155 386 l 1
 160 386 l 1
 160 0 l 1
 82 0 l 1
EndSplineSet
Validated: 5
EndChar

StartChar: o
Encoding: 111 111 214
Width: 544
GlyphClass: 2
Flags: HW
HStem: -10 63<198.566 343.233> 448 63<198.298 346.648>
VStem: 36 87<141.275 361.416> 421 88<141.829 361.547>
AnchorPoint: "Anchor-3" 390 19 basechar 0
AnchorPoint: "Anchor-2" 273 0 basechar 0
AnchorPoint: "Anchor-1" 530 502 basechar 0
AnchorPoint: "Anchor-0" 273 502 basechar 0
LayerCount: 3
Fore
SplineSet
273 -10 m 256
 130 -10 36 90 36 252 c 0
 36 411 125 511 270 511 c 256
 414 511 509 412 509 251 c 0
 509 93 419 -10 273 -10 c 256
271 53 m 256
 363 53 421 131 421 253 c 0
 421 373 365 448 272 448 c 256
 179 448 123 373 123 252 c 0
 123 131 179 53 271 53 c 256
EndSplineSet
Validated: 1
Substitution2: "Single Substitution lookup 17 subtable" ordmasculine
Substitution2: "'aalt' Access All Alternates in Latin lookup 0 subtable" ordmasculine
EndChar

StartChar: oslash
Encoding: 248 248 221
Width: 567
Flags: HW
HStem: -10 66<205 363> 446 66<204 365> 485 19G<467 505>
VStem: 45 79<142 359> 444 80<147 364>
LayerCount: 3
Fore
SplineSet
284 -10 m 256xd8
 236 -10 195 2 158 25 c 0
 121 48 94 79 75 118 c 0
 56 157 45 203 45 253 c 0
 45 304 55 348 75 386 c 0
 95 424 122 457 158 479 c 0
 194 501 236 511 284 511 c 256
 332 511 374 501 410 479 c 0
 446 457 474 424 494 386 c 0
 514 348 524 304 524 253 c 0
 524 203 514 157 494 118 c 0
 474 79 446 48 410 25 c 0
 374 2 332 -10 284 -10 c 256xd8
284 56 m 256
 317 56 345 65 369 81 c 0
 393 97 411 121 424 151 c 0
 437 181 444 216 444 254 c 0
 444 313 430 359 401 394 c 0
 372 429 333 446 284 446 c 256
 235 446 197 429 168 394 c 0
 139 359 124 313 124 254 c 0
 124 216 131 181 144 151 c 0
 157 121 175 97 199 81 c 0
 223 65 251 56 284 56 c 256
82 -3 m 1
 42 36 l 1
 485 504 l 1xb8
 525 466 l 1
 82 -3 l 1
EndSplineSet
Validated: 5
EndChar

StartChar: oe
Encoding: 339 339 223
Width: 905
Flags: HW
HStem: -10 66<202 347 580 724> 229 65<481 787> 446 66<200 349 578 722>
VStem: 45 79<147 359> 434 70<208 298> 481 12<230 292>
LayerCount: 3
Fore
SplineSet
275 -10 m 256xf4
 231 -10 190 2 155 25 c 0
 120 48 93 79 74 118 c 0
 55 157 45 203 45 253 c 0
 45 304 56 348 75 386 c 0
 94 424 120 457 155 479 c 0
 190 501 231 511 275 511 c 256
 319 511 358 501 391 479 c 0
 424 457 449 424 467 386 c 0
 485 348 494 304 494 253 c 0
 494 203 485 157 467 118 c 0
 449 79 424 48 391 25 c 0
 358 2 319 -10 275 -10 c 256xf4
275 56 m 256
 305 56 330 65 352 81 c 0
 374 97 392 121 404 151 c 0
 416 181 424 216 424 254 c 0
 424 293 416 327 404 356 c 0
 392 385 374 407 352 422 c 0
 330 437 305 446 275 446 c 256
 245 446 219 437 197 422 c 0
 175 407 157 385 144 356 c 0
 131 327 124 293 124 254 c 0
 124 216 131 181 144 151 c 0
 157 121 175 97 197 81 c 0
 219 65 245 56 275 56 c 256
649 -10 m 0
 607 -10 570 2 537 24 c 0
 504 46 479 77 461 116 c 0
 443 155 434 201 434 253 c 0xf8
 434 304 443 349 461 388 c 0
 479 427 504 458 537 480 c 0
 570 502 608 511 652 511 c 0
 693 511 730 501 762 481 c 0
 794 461 819 433 836 396 c 0
 853 359 862 315 862 264 c 0
 862 257 862 253 862 247 c 0
 862 241 860 236 859 229 c 1
 481 229 l 1
 481 293 l 1xf4
 813 293 l 1
 787 257 l 1
 786 319 774 366 750 398 c 0
 726 430 693 446 652 446 c 0
 623 446 598 437 575 422 c 0
 552 407 535 385 523 356 c 0
 511 327 503 292 503 253 c 256xf8
 503 214 511 180 523 150 c 0
 535 120 552 97 575 81 c 0
 598 65 623 56 653 56 c 0
 679 56 704 64 726 78 c 0
 748 92 764 113 775 141 c 1
 848 141 l 1
 833 95 807 58 771 31 c 0
 735 4 695 -10 649 -10 c 0
EndSplineSet
Validated: 5
EndChar

StartChar: p
Encoding: 112 112 224
Width: 581
Flags: W
HStem: -10 63<242.619 380.565> 448 63<240.008 374.988>
VStem: 76 86<142.666 362.551 379 501.925> 157 5<99 115> 453 91<140.358 363.808>
AnchorPoint: "Anchor-0" 270 -192 basechar 0
AnchorPoint: "Anchor-1" -9 -216 basechar 0
AnchorPoint: "Anchor-2" 270 503 basechar 0
LayerCount: 3
Fore
SplineSet
326 511 m 0xd8
 240 512 181 470 137 374 c 1
 162 379 l 1xe8
 157 502 l 1xd8
 70 502 l 5
 70 502 76 399 76 334 c 7
 76 124 76 -165 76 -165 c 5xe8
 162 -165 l 1
 162 115 l 1
 157 99 l 1
 194 25 253 -10 334 -10 c 0
 376 -10 409 0 441 21 c 0
 475 44 502 76 519 113 c 0
 534 146 541 186 544 243 c 0
 551 402 463 510 326 511 c 0xd8
304 448 m 0
 395 448 453 373 453 254 c 0
 453 131 399 53 311 53 c 256
 228 53 158 138 158 251 c 0
 158 363 226 448 304 448 c 0
EndSplineSet
Validated: 1048613
EndChar

StartChar: thorn
Encoding: 254 254 225
Width: 587
Flags: HW
HStem: -9 68<230 390> 444 68<232 389> 689 19G<82 160>
VStem: 82 78<-202 120 132 370 391 708> 462 80<140 361>
LayerCount: 3
Fore
SplineSet
322 -9 m 0
 277 -9 238 3 207 25 c 0
 176 47 157 79 145 120 c 1
 160 123 l 1
 160 -202 l 1
 82 -202 l 1
 82 708 l 1
 160 708 l 1
 160 386 l 1
 145 391 l 1
 157 429 178 459 212 480 c 0
 246 501 284 511 328 511 c 0
 371 511 409 501 441 480 c 0
 473 459 499 428 516 390 c 0
 533 352 542 306 542 254 c 0
 542 201 533 154 515 115 c 0
 497 76 471 46 438 24 c 0
 405 2 366 -9 322 -9 c 0
310 59 m 0
 359 59 396 77 423 111 c 0
 450 145 462 192 462 253 c 0
 462 313 449 359 422 393 c 0
 395 427 358 444 310 444 c 256
 262 444 225 427 197 393 c 0
 169 359 155 311 155 250 c 0
 155 190 169 144 197 110 c 0
 225 76 262 59 310 59 c 0
EndSplineSet
Validated: 5
EndChar

StartChar: q
Encoding: 113 113 226
Width: 581
Flags: W
HStem: -10 63<200.357 338.709> 448 63<203.969 338.676> 482 20G<420.187 509>
VStem: 34 91<140.966 363.808> 416 86<-165 99 138.693 362.551 379 501.925> 416 5<99 115>
AnchorPoint: "Anchor-2" 350 503 basechar 0
AnchorPoint: "Anchor-1" 627 -216 basechar 0
AnchorPoint: "Anchor-0" 350 -192 basechar 0
LayerCount: 3
Fore
SplineSet
253 511 m 0xd4
 339 512 397 470 441 374 c 1
 416 379 l 1xd8
 421 502 l 1xb4
 509 502 l 5
 509 502 502 399 502 334 c 7
 502 124 502 -165 502 -165 c 5
 416 -165 l 1xb8
 416 115 l 1
 421 99 l 1
 384 25 326 -10 245 -10 c 0
 203 -10 170 0 138 21 c 0
 104 44 77 76 60 113 c 0
 45 146 37 186 34 243 c 0
 27 402 116 510 253 511 c 0xd4
275 448 m 0
 184 448 125 373 125 254 c 0
 125 131 183 53 271 53 c 256
 354 53 420 138 420 251 c 0
 420 363 353 448 275 448 c 0
EndSplineSet
Validated: 1048613
EndChar

StartChar: r
Encoding: 114 114 227
Width: 355
GlyphClass: 2
Flags: HW
HStem: 0 21G<71 157> 436 75<220.959 335.715> 482 20G<71 149>
VStem: 71 86<0 377> 71 78<397 502>
AnchorPoint: "Anchor-2" 118 0 basechar 0
AnchorPoint: "Anchor-0" 207 502 basechar 0
LayerCount: 3
Fore
SplineSet
71 0 m 1xb0
 73 256 73 464 71 502 c 1
 149 502 l 1
 149 397 l 1xa8
 157 377 l 1
 157 0 l 1
 71 0 l 1xb0
157 270 m 1xd0
 144 382 l 1
 156 424 176 457 206 480 c 0
 234 501 268 511 306 511 c 0
 319 511 330 510 336 507 c 1
 336 433 l 1
 333 434 330 435 323 435 c 0
 319 435 312 436 306 436 c 0
 255 436 219 422 194 392 c 0
 170 363 157 323 157 270 c 1xd0
EndSplineSet
Validated: 1048613
EndChar

StartChar: s
Encoding: 115 115 231
Width: 457
GlyphClass: 2
Flags: HW
HStem: -11 64<161.739 318.93> 450 61<160.945 308.04>
VStem: 30 86<98.7773 157> 48 81<334.069 420.352> 331 86<366 426.141> 356 81<86.6466 180.341>
AnchorPoint: "Anchor-0" 222 502 basechar 0
AnchorPoint: "Anchor-2" 230 0 basechar 0
LayerCount: 3
Fore
SplineSet
242 450 m 0xd8
 177 450 129 419 129 379 c 0xd8
 129 340 171 306 245 288 c 2
 284 279 l 2
 395 252 437 214 437 144 c 0
 437 49 358 -11 235 -11 c 0
 107 -11 30 53 30 157 c 1
 116 157 l 1
 120 93 166 53 239 53 c 0
 308 53 356 87 356 135 c 0xe4
 356 175 324 199 243 218 c 2
 203 229 l 2
 95 255 48 296 48 363 c 0
 48 452 127 511 247 511 c 0
 356 511 412 463 417 366 c 1
 331 366 l 1
 328 424 302 450 242 450 c 0xd8
EndSplineSet
Validated: 1048577
EndChar

StartChar: germandbls
Encoding: 223 223 236
Width: 593
Flags: HW
HStem: -9 65<242 410> 0 20G<82 167> 338 68<260 330> 364 20<340 452> 656 62<226 382>
VStem: 82 85<0 591> 431 84<458 606> 467 85<109 272>
LayerCount: 3
Fore
SplineSet
551 191 m 0x5d
 551 82 471 -9 308 -9 c 0x9d
 289 -9 264 -9 241 -4 c 1x4d
 241 61 l 5
 256 58 269 57 303 57 c 0
 365 57 408 69 433 94 c 0
 458 119 467 152 467 193 c 0x8d
 467 276 415 338 317 338 c 2
 260 338 l 1
 260 406 l 1
 309 406 l 2
 378 406 431 455 431 528 c 0
 431 551 430 656 302 656 c 0
 265 656 167 643 167 496 c 2
 167 0 l 1
 82 0 l 1
 82 500 l 2
 82 569 103 623 142 661 c 0
 181 699 235 719 301 719 c 0
 426 719 515 648 515 534 c 0x6e
 515 445 452 364 340 364 c 1
 333 384 l 1
 491 384 551 281 551 191 c 0x5d
EndSplineSet
Validated: 5
EndChar

StartChar: t
Encoding: 116 116 237
Width: 322
GlyphClass: 2
Flags: W
HStem: -5 65<202.039 293.079> 442 60<14 294>
VStem: 100 86<76.5719 616>
AnchorPoint: "Anchor-2" 223 1 basechar 0
AnchorPoint: "Anchor-1" 278 767 basechar 0
AnchorPoint: "Anchor-0" 163 503 basechar 0
LayerCount: 3
Back
SplineSet
196.223632812 107.255859375 m 1152
EndSplineSet
Fore
SplineSet
100 135 m 2
 100 616 l 1
 186 665 l 1
 186 135 l 2
 186 106.623046875 196 60 247 60 c 0
 260 60 275.344726562 59.3359375 294 64 c 5
 294 4 l 1
 273.333984375 0.125 250.043945312 -5 227 -5 c 0
 162.653320312 -5 100 22.7255859375 100 135 c 2
14 442 m 1
 14 502 l 1
 294 502 l 1
 294 442 l 1
 14 442 l 1
EndSplineSet
Validated: 1572901
EndChar

StartChar: u
Encoding: 117 117 240
Width: 566
GlyphClass: 2
Flags: HW
HStem: -10 63<197.18 341.035> 0 21G<410.421 499> 482 20G<68 155 406 493>
VStem: 68 87<100.461 502> 406 87<0 76 232 502>
AnchorPoint: "Anchor-3" 489 0 basechar 0
AnchorPoint: "Anchor-2" 280 0 basechar 0
AnchorPoint: "Anchor-1" 541 502 basechar 0
AnchorPoint: "Anchor-0" 280 502 basechar 0
LayerCount: 3
Fore
SplineSet
493 502 m 1x78
 493 242 495 34 499 0 c 1
 412 0 l 1
 406 76 l 0
 406 502 l 1
 493 502 l 1x78
155 502 m 1
 155 203 l 2
 155 103 190 53 266 53 c 3
 355 53 406 122 406 232 c 1
 425 113 l 1
 391 30 333 -10 247 -10 c 0xb8
 132 -10 68 56 68 175 c 2
 68 502 l 1
 155 502 l 1
EndSplineSet
Validated: 5
EndChar

StartChar: v
Encoding: 118 118 250
Width: 521
Flags: HW
HStem: 0 21G<200.952 306.207> 482 20G<7 113.444 410.422 504>
LayerCount: 3
Fore
SplineSet
209 0 m 1
 7 502 l 1
 106 502 l 1
 272 56 l 1
 249 56 l 1
 418 502 l 1
 504 502 l 1
 298 0 l 1
 209 0 l 1
EndSplineSet
Validated: 5
EndChar

StartChar: w
Encoding: 119 119 251
Width: 722
GlyphClass: 2
Flags: HW
HStem: 0 21G<144.422 242.167 486.921 584.259> 482 20G<10 111.871 310.052 421.574 619.754 711>
AnchorPoint: "Anchor-2" 365 0 basechar 0
AnchorPoint: "Anchor-0" 365 502 basechar 0
LayerCount: 3
Fore
SplineSet
150 0 m 5
 10 502 l 5
 107 502 l 5
 211 75 l 5
 189 75 l 5
 316 502 l 5
 416 502 l 5
 535 75 l 5
 513 75 l 5
 625 502 l 5
 711 502 l 5
 579 0 l 5
 493 0 l 5
 355 454 l 5
 376 454 l 5
 236 0 l 5
 150 0 l 5
EndSplineSet
Validated: 1048581
EndChar

StartChar: x
Encoding: 120 120 256
Width: 488
Flags: HW
HStem: 0 21G<0 110.113 373.043 490> 482 20G<11 132.074 374.991 483>
LayerCount: 3
Back
SplineSet
382.696289062 0 m 5
 240.015625 204.671875 l 5
 97.3359375 0 l 5
 1.8876953125 0 l 5
 193.767578125 254.85546875 l 5
 12.7119140625 496.919921875 l 5
 120.952148438 496.919921875 l 5
 250.83984375 307.9921875 l 5
 383.680664062 496.919921875 l 5
 479.127929688 496.919921875 l 5
 299.055664062 254.85546875 l 5
 491.919921875 0 l 5
 382.696289062 0 l 5
EndSplineSet
Fore
SplineSet
388 0 m 1
 213 234 l 1
 11 502 l 1
 118 502 l 1
 270 286 l 1
 490 0 l 1
 388 0 l 1
237 285 m 1
 389 502 l 1
 483 502 l 1
 278 230 l 1
 237 285 l 1
259 231 m 1
 96 0 l 1
 0 0 l 1
 222 286 l 1
 259 231 l 1
EndSplineSet
Validated: 5
EndChar

StartChar: y
Encoding: 65573 -1 257
Width: 508
GlyphClass: 2
Flags: HW
HStem: -205 62<67 170> 482 19G<24 113 401 486>
AnchorPoint: "Anchor-2" 255 0 basechar 0
AnchorPoint: "Anchor-0" 257 502 basechar 0
LayerCount: 3
Fore
SplineSet
119 -205 m 0
 101 -205 83 -205 67 -204 c 1
 67 -142 l 1
 67 -142 67 -142 115 -142 c 0
 142 -142 160 -140 170 -131 c 0
 184 -118 196 -96 207 -67 c 6
 246 43 l 1
 256 76 l 1
 407 502 l 1
 486 502 l 1
 267 -91 l 6
 257 -118 244 -142 230 -160 c 0
 217 -178 200 -190 182 -196 c 0
 164 -202 143 -205 119 -205 c 0
240 -4 m 1
 24 502 l 1
 106 502 l 1
 290 52 l 1
 240 -4 l 1
EndSplineSet
Validated: 1048581
Substitution2: "'calt' Contextual Alternates in Latin lookup 24 subtable" y
Substitution2: "'aalt' Access All Alternates in Latin lookup 0 subtable" y
EndChar

StartChar: z
Encoding: 122 122 262
Width: 431
GlyphClass: 2
Flags: HW
HStem: 0 60<106 401> 442 60<33 318>
AnchorPoint: "Anchor-2" 208 0 basechar 0
AnchorPoint: "Anchor-0" 208 502 basechar 0
LayerCount: 3
Fore
SplineSet
24 0 m 1
 24 56 l 1
 318 471 l 1
 346 442 l 1
 33 442 l 1
 33 502 l 1
 401 502 l 1
 401 446 l 1
 106 31 l 1
 69 60 l 1
 401 60 l 1
 401 0 l 1
 24 0 l 1
EndSplineSet
Validated: 1048581
EndChar

StartChar: a.ss02
Encoding: 65601 -1 289
Width: 587
GlyphClass: 2
Flags: HW
HStem: -10 68<199 358> 0 21G<434 505> 443 68<200 358> 482 19G<434 505>
VStem: 47 79<139 361> 434 72<0 111 143 358 381 502>
AnchorPoint: "Anchor-3" 505 0 basechar 0
AnchorPoint: "Anchor-2" 294 0 basechar 0
AnchorPoint: "Anchor-0" 294 502 basechar 0
LayerCount: 3
Fore
SplineSet
264 -10 m 256x8c
 220 -10 182 1 149 23 c 0
 116 45 91 74 74 112 c 0
 57 150 47 196 47 249 c 256
 47 302 56 347 74 386 c 0
 92 425 118 457 151 479 c 0
 184 501 223 510 267 510 c 0xac
 312 510 350 500 381 478 c 0
 412 456 433 422 444 381 c 1
 434 379 l 1
 434 502 l 1
 505 502 l 1
 505 0 l 1
 434 0 l 1x5c
 434 115 l 1
 443 111 l 1
 431 74 409 45 377 23 c 0
 345 1 308 -10 264 -10 c 256x8c
278 58 m 0
 327 58 365 76 392 110 c 0
 419 144 433 191 433 252 c 0
 433 312 420 358 392 392 c 0
 364 426 326 443 278 443 c 256
 230 443 193 426 166 392 c 0
 139 358 126 311 126 249 c 0
 126 189 139 143 166 109 c 0
 193 75 230 58 278 58 c 0
EndSplineSet
Validated: 1048581
EndChar

StartChar: y
Encoding: 121 121 300
Width: 472
GlyphClass: 2
Flags: HW
HStem: 482 20G<-7 95.651 389.356 485>
AnchorPoint: "Anchor-2" 245 0 basechar 0
AnchorPoint: "Anchor-0" 245 502 basechar 0
LayerCount: 3
Back
SplineSet
203.607421875 -182.040039062 m 5
 117.015625 -182.040039062 l 5
 198.6875 5.9033203125 l 5
 -12.8720703125 501.83984375 l 5
 85.5283203125 501.83984375 l 5
 241.984375 95.4482421875 l 5
 397.456054688 501.83984375 l 5
 485.032226562 501.83984375 l 5
 203.607421875 -182.040039062 l 5
EndSplineSet
Fore
SplineSet
130 -164 m 1
 222 60 l 1
 238 86 l 1
 397 502 l 1
 485 502 l 1
 212 -164 l 1
 130 -164 l 1
219 15 m 1
 -7 502 l 1
 87 502 l 1
 273 72 l 1
 219 15 l 1
EndSplineSet
Validated: 1048581
EndChar

StartChar: k.ss04
Encoding: 65612 -1 305
Width: 520
GlyphClass: 2
Flags: HW
HStem: 0 21G<82 160 401 503> 482 19G<377 491> 689 19G<82 160>
VStem: 82 78<0 133 232 708> 150 11<133 232>
AnchorPoint: "Anchor-2" 281 0 basechar 0
AnchorPoint: "Anchor-0" 262 728 basechar 0
LayerCount: 3
Fore
SplineSet
82 0 m 1xf0
 82 708 l 1
 160 708 l 1
 160 0 l 1
 82 0 l 1xf0
150 232 m 1xe8
 396 502 l 1
 491 502 l 1
 282 273 l 1
 275 272 l 1
 145 133 l 1
 150 232 l 1xe8
301 299 m 1
 503 0 l 1
 414 0 l 1
 231 276 l 1
 301 299 l 1
EndSplineSet
Validated: 1048581
EndChar

StartChar: f_f_i
Encoding: 65617 -1 310
Width: 900
GlyphClass: 3
LigCaretCntFixed: 1
Flags: HW
HStem: 0 21G<102 188 429 517 738 824> 436 66<11 806> 617 91<732 831> 651 61<273 316 600 645> 656 62<212 316 539 645>
VStem: 102 86<0 634> 429 87<0 634> 732 99<617 708> 738 86<0 436> 738 68<436 502>
LayerCount: 3
Fore
SplineSet
102 0 m 1xce
 102 578 l 2
 102 639 136 719 267 719 c 0xce
 280 719 289 717 297 716 c 0
 305 715 311 713 316 711 c 1
 316 651 l 1xd6
 311 652 305 653 297 654 c 0
 289 655 282 656 273 656 c 0
 244 656 221 648 208 634 c 0
 195 620 188 600 188 573 c 2
 188 0 l 1
 102 0 l 1xce
429 0 m 1
 429 578 l 2
 429 634 461 719 595 719 c 0xce
 608 719 617 717 625 716 c 0
 633 715 640 713 645 711 c 1
 645 651 l 1xd6
 640 652 633 653 625 654 c 0
 617 655 610 656 600 656 c 0
 571 656 550 648 537 634 c 0
 524 620 517 600 517 573 c 2
 517 0 l 1
 429 0 l 1
738 0 m 1xc680
 738 502 l 1xc640
 824 502 l 1
 824 0 l 1
 738 0 l 1xc680
11 436 m 1
 11 502 l 1
 806 502 l 1
 806 436 l 1
 11 436 l 1
732 617 m 1xe7
 732 708 l 1
 831 708 l 1
 831 617 l 1
 732 617 l 1xe7
EndSplineSet
Validated: 5
Substitution2: "'ss01' Style Set 1 in Latin lookup 22 subtable" f_f_i.ss01
Ligature2: "'liga' Standard Ligatures in Latin lookup 21 subtable" f f i
Substitution2: "'aalt' Access All Alternates in Latin lookup 0 subtable" f_f_i.ss01
LCarets2: 2 359 708
EndChar

StartChar: f_f_l
Encoding: 65618 -1 311
Width: 899
GlyphClass: 3
LigCaretCntFixed: 1
Flags: HW
HStem: 0 21G<111 198 430 517 738 824> 436 66<22 626> 647 62<219 326 540 763>
VStem: 111 86<0 624> 430 86<0 625> 738 86<0 647> 738 25<647 708>
LayerCount: 3
Fore
SplineSet
430 0 m 1xfa
 430 568 l 2
 430 637 469 708 599 708 c 2
 763 708 l 1
 763 647 l 1
 600 647 l 2
 571 647 550 639 537 625 c 0
 524 611 517 590 517 563 c 2
 517 0 l 1
 430 0 l 1xfa
111 0 m 1
 111 568 l 2
 111 634 150 708 277 708 c 0
 290 708 299 707 307 706 c 0
 315 705 321 703 326 701 c 1
 326 641 l 1
 321 642 315 644 307 645 c 0
 299 646 291 647 282 647 c 0
 253 647 231 639 218 625 c 0
 205 611 198 590 198 563 c 2
 198 0 l 1
 111 0 l 1
22 436 m 1
 22 502 l 1
 626 502 l 1
 626 436 l 1
 22 436 l 1
738 0 m 1xfc
 738 708 l 1xfa
 824 708 l 1
 824 0 l 1
 738 0 l 1xfc
EndSplineSet
Validated: 5
Ligature2: "'liga' Standard Ligatures in Latin lookup 21 subtable" f f l
LCarets2: 2 294 587
EndChar

StartChar: f_i
Encoding: 65619 -1 312
Width: 568
GlyphClass: 3
LigCaretCntFixed: 1
Flags: HW
HStem: 0 21G<111 198 410 497> 436 66<22 410> 617 91<405 502> 656 62<222 326>
VStem: 111 86<0 634> 410 86<0 436 617 708>
AnchorPoint: "Anchor-5" 148 0 baselig 0
AnchorPoint: "Anchor-4" 148 728 baselig 0
AnchorPoint: "Anchor-5" 433 0 baselig 1
AnchorPoint: "Anchor-4" 433 728 baselig 1
LayerCount: 3
Fore
SplineSet
405 617 m 1xec
 405 708 l 1
 502 708 l 1
 502 617 l 1
 405 617 l 1xec
111 0 m 1
 111 578 l 2
 111 639 146 719 277 719 c 0
 290 719 299 717 307 716 c 0
 315 715 321 713 326 711 c 1
 326 651 l 1
 321 652 315 653 307 654 c 0
 299 655 291 656 282 656 c 0xdc
 253 656 231 648 218 634 c 0
 205 620 198 600 198 573 c 2
 198 0 l 1
 111 0 l 1
22 436 m 1
 22 502 l 1
 410 502 l 1
 472 502 l 1
 497 502 l 1
 497 0 l 1
 410 0 l 1
 410 436 l 1
 22 436 l 1
EndSplineSet
Validated: 5
Substitution2: "'ss01' Style Set 1 in Latin lookup 22 subtable" f_i.ss01
Ligature2: "'liga' Standard Ligatures in Latin lookup 21 subtable" f i
Substitution2: "'aalt' Access All Alternates in Latin lookup 0 subtable" f_i.ss01
LCarets2: 1 284
EndChar

StartChar: f_l
Encoding: 65620 -1 313
Width: 587
GlyphClass: 3
LigCaretCntFixed: 1
Flags: HW
HStem: 0 21G<111 198 419 505> 436 66<22 309> 647 62<223 419>
VStem: 111 86<0 624> 419 86<0 647>
AnchorPoint: "Anchor-5" 150 0 baselig 0
AnchorPoint: "Anchor-4" 150 728 baselig 0
AnchorPoint: "Anchor-5" 439 0 baselig 1
AnchorPoint: "Anchor-4" 439 728 baselig 1
LayerCount: 3
Fore
SplineSet
22 436 m 1
 22 502 l 1
 309 502 l 1
 309 436 l 1
 22 436 l 1
111 0 m 1
 111 568 l 2
 111 640 154 708 280 708 c 2
 419 708 l 1
 459 708 l 1
 505 708 l 1
 505 0 l 1
 419 0 l 1
 419 647 l 1
 282 647 l 2
 253 647 231 639 218 625 c 0
 205 611 198 590 198 563 c 2
 198 0 l 1
 111 0 l 1
EndSplineSet
Validated: 5
Ligature2: "'liga' Standard Ligatures in Latin lookup 21 subtable" f l
LCarets2: 1 287
EndChar

StartChar: w_w_w.liga
Encoding: 65621 -1 314
Width: 2016
GlyphClass: 3
LigCaretCntFixed: 1
Flags: HW
HStem: 0 21G<178 252 486 569 813 887 1120 1205 1448 1523 1756 1840> 482 19G<33 137 328 412 646 749 964 1047 1282 1385 1600 1683 1895 1984>
AnchorPoint: "Anchor-0" 374 502 basechar 0
AnchorPoint: "Anchor-2" 374 0 basechar 0
AnchorPoint: "Anchor-5" 340 0 baselig 0
AnchorPoint: "Anchor-4" 340 502 baselig 0
AnchorPoint: "Anchor-5" 1009 0 baselig 1
AnchorPoint: "Anchor-4" 1009 502 baselig 1
AnchorPoint: "Anchor-5" 1678 0 baselig 2
AnchorPoint: "Anchor-4" 1678 502 baselig 2
LayerCount: 3
Back
SplineSet
174.087890625 0 m 5
 35.3447265625 501.83984375 l 5
 131.776367188 501.83984375 l 5
 236.080078125 74.7841796875 l 5
 213.448242188 74.7841796875 l 5
 340.383789062 501.83984375 l 5
 440.751953125 501.83984375 l 5
 559.81640625 74.7841796875 l 5
 537.18359375 74.7841796875 l 5
 545.841796875 217.135742188 599.3828125 359.487304688 650.344726562 501.83984375 c 5
 735.952148438 501.83984375 l 5
 604.096679688 0 l 5
 517.50390625 0 l 5
 379.744140625 453.624023438 l 5
 400.407226562 453.624023438 l 5
 260.680664062 0 l 5
 174.087890625 0 l 5
EndSplineSet
Fore
SplineSet
184 0 m 1
 33 502 l 1
 131 502 l 1
 246 75 l 1
 198 75 l 1
 334 502 l 1
 405 502 l 1
 544 75 l 1
 516 75 l 1
 652 502 l 1
 743 502 l 1
 881 75 l 1
 832 75 l 1
 970 502 l 1
 1041 502 l 1
 1179 75 l 1
 1150 75 l 1
 1288 502 l 1
 1379 502 l 1
 1517 75 l 1
 1468 75 l 1
 1606 502 l 1
 1677 502 l 1
 1815 75 l 1
 1786 75 l 1
 1900 502 l 1
 1984 502 l 1
 1834 0 l 1
 1762 0 l 1
 1626 438 l 1
 1655 438 l 1
 1516 0 l 1
 1455 0 l 1
 1317 438 l 1
 1337 438 l 1
 1198 0 l 1
 1127 0 l 1
 990 438 l 1
 1019 438 l 1
 881 0 l 1
 819 0 l 1
 681 438 l 1
 702 438 l 1
 563 0 l 1
 492 0 l 1
 354 438 l 1
 385 438 l 1
 245 0 l 1
 184 0 l 1
EndSplineSet
Validated: 1048581
Ligature2: "'liga' Standard Ligatures in Latin lookup 21 subtable" w w w
LCarets2: 2 669 1338
EndChar

StartChar: f_f_i.ss01
Encoding: 65622 -1 315
Width: 894
GlyphClass: 3
LigCaretCntFixed: 1
Flags: HW
HStem: 0 21G<121 198 427 504 734 811> 436 66<22 776> 598 110<736 811> 651 61<282 326 589 633> 656 62<219 326 525 632>
VStem: 121 77<0 634> 427 78<0 634> 720 108<613 691> 734 77<0 436> 734 42<436 502>
AnchorPoint: "Anchor-5" 154 0 baselig 0
AnchorPoint: "Anchor-4" 154 728 baselig 0
AnchorPoint: "Anchor-5" 448 0 baselig 1
AnchorPoint: "Anchor-4" 448 728 baselig 1
AnchorPoint: "Anchor-5" 742 0 baselig 2
AnchorPoint: "Anchor-4" 742 728 baselig 2
LayerCount: 3
Fore
SplineSet
427 0 m 1xce
 427 578 l 2
 427 622 440 656 466 681 c 0
 492 706 530 719 582 719 c 0xce
 595 719 606 717 614 716 c 0
 622 715 628 713 633 711 c 1
 633 651 l 1xd6
 628 652 622 653 614 654 c 0
 606 655 598 656 588 656 c 0
 559 656 537 648 524 634 c 0
 511 620 504 600 504 573 c 2
 504 0 l 1
 427 0 l 1xce
121 0 m 1
 121 578 l 2
 121 622 133 656 159 681 c 0
 185 706 224 719 277 719 c 0xce
 290 719 299 717 307 716 c 0
 315 715 321 713 326 711 c 1
 326 651 l 1xd6
 321 652 315 653 307 654 c 0
 299 655 291 656 282 656 c 0
 253 656 231 648 218 634 c 0
 205 620 198 600 198 573 c 2
 198 0 l 1
 121 0 l 1
22 436 m 1
 22 502 l 1
 776 502 l 1
 776 436 l 1xc640
 22 436 l 1
734 0 m 1xc680
 734 502 l 1xc640
 811 502 l 1
 811 0 l 1
 734 0 l 1xc680
773 598 m 256xe7
 758 598 746 602 735 613 c 0
 724 624 720 637 720 652 c 0
 720 668 724 682 735 692 c 0
 746 702 758 706 773 706 c 256
 788 706 800 702 811 692 c 0
 822 682 826 668 826 652 c 0
 826 637 822 624 811 613 c 0
 800 602 788 598 773 598 c 256xe7
EndSplineSet
Validated: 5
LCarets2: 2 294 588
EndChar

StartChar: f_i.ss01
Encoding: 65623 -1 316
Width: 595
GlyphClass: 3
LigCaretCntFixed: 1
Flags: HW
HStem: 0 21G<121 198 427 504> 436 66<22 470> 598 110<429 504> 656 62<219 326>
VStem: 121 77<0 634> 412 109<613 691> 427 78<0 436> 427 42<436 502>
AnchorPoint: "Anchor-5" 153 0 baselig 0
AnchorPoint: "Anchor-4" 153 728 baselig 0
AnchorPoint: "Anchor-5" 445 0 baselig 1
AnchorPoint: "Anchor-4" 445 728 baselig 1
LayerCount: 3
Fore
SplineSet
121 0 m 1xd8
 121 578 l 2
 121 622 133 656 159 681 c 0
 185 706 224 719 277 719 c 0
 290 719 299 717 307 716 c 0
 315 715 321 713 326 711 c 1
 326 651 l 1
 321 652 315 653 307 654 c 0
 299 655 291 656 282 656 c 0
 253 656 231 648 218 634 c 0
 205 620 198 600 198 573 c 2
 198 0 l 1
 121 0 l 1xd8
427 0 m 1xca
 427 502 l 1xc9
 504 502 l 1
 504 0 l 1
 427 0 l 1xca
466 598 m 0xea
 452 598 439 602 428 613 c 0
 417 624 412 637 412 652 c 0xec
 412 668 417 682 428 692 c 0
 439 702 452 706 466 706 c 0
 481 706 493 702 504 692 c 0xea
 515 682 521 668 521 652 c 0xec
 521 637 515 624 504 613 c 0
 493 602 481 598 466 598 c 0xea
22 436 m 1
 22 502 l 1
 470 502 l 1
 470 436 l 1xc9
 22 436 l 1
EndSplineSet
Validated: 5
LCarets2: 1 292
EndChar

StartChar: ordfeminine
Encoding: 170 170 317
Width: 365
Flags: HW
HStem: 406 49<119 211> 669 49<131 223>
VStem: 50 60<463 529> 59 58<625 656> 233 60<411 468 514 558 603 655> 240 59<411 468>
LayerCount: 3
Fore
SplineSet
241 411 m 1xc4
 239 419 238 426 237 436 c 0
 236 446 236 456 236 468 c 1
 233 468 l 1
 233 614 l 2
 233 632 229 645 220 655 c 0
 211 665 197 669 179 669 c 0
 162 669 147 666 135 657 c 0
 123 648 118 638 117 625 c 1
 59 625 l 1
 62 654 73 677 95 693 c 0
 117 709 145 719 181 719 c 0
 218 719 246 709 265 691 c 0
 284 673 293 647 293 613 c 2
 293 468 l 2xd8
 293 457 294 449 295 439 c 0
 296 429 297 421 299 411 c 1
 241 411 l 1xc4
143 406 m 0
 115 406 91 413 75 428 c 0
 59 443 50 463 50 489 c 0
 50 514 59 535 75 551 c 0
 91 567 118 577 153 584 c 2
 245 603 l 1
 245 558 l 1
 163 542 l 2
 147 539 135 534 125 527 c 0
 115 520 110 509 110 495 c 0
 110 482 114 472 123 465 c 0
 132 458 144 455 159 455 c 0
 180 455 198 460 212 472 c 0
 226 484 233 498 233 514 c 1xe8
 240 469 l 1xc4
 232 447 220 432 203 421 c 0
 186 410 165 406 143 406 c 0
EndSplineSet
Validated: 5
EndChar

StartChar: ordmasculine
Encoding: 186 186 318
Width: 406
Flags: HW
HStem: 406 51<148 258> 667 51<147 260>
VStem: 54 62<490 635> 290 62<489 636>
LayerCount: 3
Fore
SplineSet
203 406 m 0
 173 406 148 413 125 426 c 0
 102 439 84 458 72 482 c 0
 60 506 54 533 54 563 c 0
 54 609 68 646 95 675 c 0
 122 704 159 719 203 719 c 0
 248 719 284 704 311 675 c 0
 338 646 352 609 352 563 c 0
 352 518 338 480 311 450 c 0
 284 420 248 406 203 406 c 0
203 456 m 0
 230 456 252 467 267 486 c 0
 282 505 290 532 290 564 c 0
 290 596 282 621 267 639 c 0
 252 657 230 667 203 667 c 0
 177 667 156 657 140 639 c 0
 124 621 116 596 116 564 c 0
 116 532 124 505 140 486 c 0
 156 467 177 456 203 456 c 0
EndSplineSet
Validated: 1
EndChar

StartChar: zero
Encoding: 48 48 319
Width: 640
Flags: HW
HStem: -10 75<243.643 396.33> 644 75<244.413 400.331>
VStem: 54 98<201.886 504.685> 491 97<200.577 512.092>
LayerCount: 3
Fore
SplineSet
321 -10 m 0
 158 -10 54 141 54 357 c 256
 54 399 63 719 321 719 c 0
 485 719 588 569 588 357 c 0
 588 145 487 -10 321 -10 c 0
321 65 m 260
 433 65 491 167 491 358 c 0
 491 465 480 644 321 644 c 0
 210 644 152 551 152 358 c 0
 152 273 158 65 321 65 c 260
EndSplineSet
Validated: 1
Substitution2: "'tnum' Tabular Numbers in Latin lookup 19 subtable" zero.tf
Substitution2: "'aalt' Access All Alternates in Latin lookup 0 subtable" zero.tf
EndChar

StartChar: one
Encoding: 49 49 320
Width: 383
Flags: HW
HStem: 0 21G<219 306> 506 21G<70 154.5> 688 20G<209.609 306>
VStem: 219 87<0 623>
LayerCount: 3
Fore
SplineSet
219 0 m 1
 219 628 l 1
 239 623 l 1
 239 623 239 622 70 506 c 1
 70 593 l 1
 239 708 l 1
 306 708 l 5
 306 0 l 5
 219 0 l 1
EndSplineSet
Validated: 5
Substitution2: "'tnum' Tabular Numbers in Latin lookup 19 subtable" one.tf
Substitution2: "'aalt' Access All Alternates in Latin lookup 0 subtable" one.tf
EndChar

StartChar: two
Encoding: 50 50 321
Width: 530
Flags: HW
HStem: 0 80<136 497> 504 21G<39 137.5> 649 70<192.895 349.947>
VStem: 39 93<504 581.026> 401 92<430.632 598.871>
LayerCount: 3
Fore
SplineSet
46 0 m 1
 46 68 l 1
 113 127 170 178 215 222 c 0
 260 266 297 305 325 341 c 0
 353 377 371 408 383 437 c 0
 395 466 401 494 401 522 c 0
 401 562 390 593 367 615 c 0
 344 637 312 649 271 649 c 0
 185 649 143 597 132 504 c 1
 39 504 l 1
 45 568 69 620 110 659 c 0
 151 698 208 719 277 719 c 0
 317 719 493 707 493 523 c 4
 493 394 410 276 136 42 c 5
 109 80 l 1
 497 80 l 1
 497 0 l 1
 46 0 l 1
EndSplineSet
Validated: 5
Substitution2: "'ss10' Style Set 10 in Latin lookup 31 subtable" two.ss10
Substitution2: "'tnum' Tabular Numbers in Latin lookup 19 subtable" two.tf
AlternateSubs2: "'aalt' Access All Alternates in Latin lookup 1 subtable" two.ss10 two.tf
EndChar

StartChar: three
Encoding: 51 51 322
Width: 555
Flags: HW
HStem: -10 75<213.312 370.491> 337 68<206 315.062> 363 20<324 426> 644 75<200.379 364.399>
VStem: 44 92<145.743 213> 54 93<513 588.639> 410 94<453.756 599.086> 425 96<115.206 276.807>
LayerCount: 3
Fore
SplineSet
286 -10 m 0xb1
 240 -10 201 -1 166 16 c 0
 131 33 103 58 82 92 c 0
 61 126 49 166 44 213 c 1
 136 213 l 1
 143 155 182 69 287 65 c 0
 372 62 425 109 425 193 c 0xb9
 425 235 413 270 389 297 c 0
 365 324 331 337 291 337 c 2
 206 337 l 1
 206 405 l 1
 288 405 l 2
 364 405 410 454 410 528 c 0
 410 558 400 644 283 644 c 256
 160 644 152 554 147 513 c 1
 54 513 l 1
 57 555 69 591 89 622 c 0
 109 653 136 676 170 693 c 0
 204 710 243 719 285 719 c 0
 404 719 504 651 504 533 c 0xd6
 504 434 426 363 324 363 c 1
 318 383 l 1
 435 383 521 304 521 190 c 0
 521 77 425 -10 286 -10 c 0xb1
EndSplineSet
Validated: 37
Substitution2: "'tnum' Tabular Numbers in Latin lookup 19 subtable" three.tf
Substitution2: "'aalt' Access All Alternates in Latin lookup 0 subtable" three.tf
EndChar

StartChar: four
Encoding: 52 52 323
Width: 579
Flags: HW
HStem: 0 21G<374 463> 154 73<117 374 376 555> 688 20G<363.008 463>
VStem: 376 87<0 206>
LayerCount: 3
Fore
SplineSet
374 0 m 1
 374 186 l 1
 376 206 l 1
 376 606 l 1
 400 606 l 1
 117 201 l 1
 91 227 l 1
 555 227 l 1
 555 154 l 1
 37 154 l 1
 37 222 l 1
 377 708 l 1
 463 708 l 5
 463 0 l 5
 374 0 l 1
EndSplineSet
Validated: 5
Substitution2: "'tnum' Tabular Numbers in Latin lookup 19 subtable" four.tf
Substitution2: "'aalt' Access All Alternates in Latin lookup 0 subtable" four.tf
EndChar

StartChar: five
Encoding: 53 53 324
Width: 556
Flags: HW
HStem: -10 67<214.568 356.109> 397 63<199.422 358.232> 640 68<190 475>
VStem: 48 94<133.589 195> 427 89<127.529 324.341>
LayerCount: 3
Fore
SplineSet
283 -10 m 0
 215 -10 161 10 121 47 c 0
 81 84 56 134 48 195 c 1
 142 195 l 1
 150 152 166 118 193 95 c 0
 220 72 243 57 281 57 c 4
 321 57 357 73 385 99 c 0
 413 125 427 167 427 225 c 256
 427 283 413 327 385 355 c 0
 357 383 322 397 278 397 c 0
 247 397 220 390 197 377 c 0
 174 364 160 348 152 331 c 1
 81 331 l 1
 112 708 l 1
 475 708 l 1
 475 640 l 1
 160 640 l 1
 190 667 l 1
 169 385 l 1
 147 391 l 1
 159 410 177 427 202 440 c 0
 227 453 257 460 294 460 c 0
 412 460 516 383 516 225 c 256
 516 175 496 -10 283 -10 c 0
EndSplineSet
Validated: 5
Substitution2: "'tnum' Tabular Numbers in Latin lookup 19 subtable" five.tf
Substitution2: "'aalt' Access All Alternates in Latin lookup 0 subtable" five.tf
EndChar

StartChar: six
Encoding: 54 54 325
Width: 580
Flags: HW
HStem: -10 73<227.237 387.472> 373 73<224.46 387.871> 649 70<233.684 388.007>
VStem: 54 100<176.013 432.436> 431 93<533 607.002> 450 87<125.528 307.411>
LayerCount: 3
Fore
SplineSet
304 -10 m 4xf4
 223 -10 162 20 119 81 c 4
 76 142 54 229 54 344 c 4
 54 424 64 492 84 548 c 4
 104 604 135 646 173 675 c 4
 211 704 258 719 312 719 c 4
 372 719 504 701 524 533 c 5
 431 533 l 5xf8
 427 558 431 649 310 649 c 4
 175 649 141 512 141 288 c 5
 119 296 l 5
 125 326 137 353 156 375 c 4
 175 397 200 415 229 427 c 4
 258 439 288 446 322 446 c 4
 365 446 403 436 435 417 c 4
 467 398 492 370 510 336 c 4
 528 302 537 262 537 216 c 4
 537 171 527 131 508 97 c 4
 489 63 461 36 426 18 c 4
 391 0 350 -10 304 -10 c 4xf4
307 63 m 4
 330 63 450 67 450 217 c 4xf4
 450 258 439 373 305 373 c 4
 285 373 154 372 154 225 c 4
 154 122 221 63 307 63 c 4
EndSplineSet
Validated: 5
Substitution2: "'tnum' Tabular Numbers in Latin lookup 19 subtable" six.tf
Substitution2: "'aalt' Access All Alternates in Latin lookup 0 subtable" six.tf
EndChar

StartChar: seven
Encoding: 55 55 326
Width: 515
Flags: HW
HStem: 0 21G<155 259.301> 634 74<71 412>
LayerCount: 3
Fore
SplineSet
155 0 m 5
 155 0 155 0 412 668 c 5
 430 634 l 1
 71 634 l 1
 71 708 l 1
 490 708 l 1
 490 652 l 1
 252 0 l 1
 155 0 l 5
EndSplineSet
Validated: 5
Substitution2: "'tnum' Tabular Numbers in Latin lookup 19 subtable" seven.tf
Substitution2: "'aalt' Access All Alternates in Latin lookup 0 subtable" seven.tf
EndChar

StartChar: eight
Encoding: 56 56 327
Width: 564
Flags: HW
HStem: -10 71<197.208 366.529> 337 68<222.625 341.017> 363 20<192 219 346 373> 649 70<206.784 356.889>
VStem: 48 87<123.193 272.764> 65 85<455.229 593.757> 414 85<454.564 593.926> 429 89<123.193 272.807>
LayerCount: 3
Fore
SplineSet
282 -10 m 256xb1
 234 -10 193 -1 156 17 c 0
 122 34 96 58 77 89 c 0
 58 120 48 154 48 193 c 0xb9
 48 228 56 260 71 290 c 0
 85 319 106 341 132 357 c 0
 159 374 187 383 219 383 c 1
 222 363 l 1
 192 363 165 371 141 385 c 0
 117 399 98 421 85 447 c 0
 72 473 65 500 65 531 c 0
 65 568 75 600 93 629 c 0
 111 657 136 680 169 695 c 0
 203 711 240 719 283 719 c 256
 326 719 365 711 398 695 c 0
 430 680 454 657 472 629 c 0
 490 600 499 569 499 532 c 0xb6
 499 501 492 473 479 447 c 0
 466 422 448 400 425 386 c 0
 401 371 373 363 342 363 c 1
 346 383 l 1
 378 383 406 374 433 357 c 0
 458 341 479 318 494 290 c 0
 510 260 518 229 518 193 c 0
 518 154 508 120 489 89 c 0
 470 58 443 34 408 17 c 0
 371 -1 330 -10 282 -10 c 256xb1
281 61 m 260
 376 61 429 122 429 199 c 0
 429 237 414 272 388 298 c 0
 361 325 326 337 282 337 c 256xd9
 238 337 203 325 176 298 c 0
 150 272 135 237 135 199 c 0
 135 122 188 61 281 61 c 260
282 405 m 0
 322 405 355 415 379 438 c 0
 401 460 414 490 414 526 c 0
 414 560 402 588 378 611 c 0
 352 636 318 649 281 649 c 256
 244 649 212 636 186 611 c 0
 162 588 150 560 150 526 c 0xd6
 150 491 163 460 186 438 c 0
 210 415 242 405 282 405 c 0
EndSplineSet
Validated: 5
Substitution2: "'tnum' Tabular Numbers in Latin lookup 19 subtable" eight.tf
Substitution2: "'aalt' Access All Alternates in Latin lookup 0 subtable" eight.tf
EndChar

StartChar: nine
Encoding: 57 57 328
Width: 580
Flags: HW
HStem: -10 70<201.189 357.316> 262 73<203.344 363.763> 646 73<204.444 364.036>
VStem: 54 87<400.589 582.559> 67 89<106.798 175> 438 99<276.969 536.027>
LayerCount: 3
Fore
SplineSet
287 719 m 0xf4
 368 719 430 688 473 627 c 0
 516 566 537 479 537 364 c 0
 537 284 526 216 506 160 c 0
 486 104 456 63 418 34 c 0
 380 5 333 -10 279 -10 c 0
 219 -10 87 7 67 175 c 1
 156 175 l 5
 160 150 160 60 281 60 c 0
 416 60 450 196 450 420 c 1
 473 412 l 1
 467 382 453 355 434 333 c 0
 415 311 391 294 362 282 c 0
 333 270 304 262 270 262 c 0
 227 262 188 273 156 292 c 0xec
 124 311 99 338 81 372 c 0
 63 406 54 446 54 492 c 0
 54 537 64 577 83 611 c 0
 102 645 130 672 165 690 c 0
 200 708 241 719 287 719 c 0xf4
284 646 m 0
 261 646 141 641 141 491 c 0xf4
 141 450 152 335 286 335 c 0
 306 335 438 336 438 483 c 0
 438 586 370 646 284 646 c 0
EndSplineSet
Validated: 5
Substitution2: "'tnum' Tabular Numbers in Latin lookup 19 subtable" nine.tf
Substitution2: "'aalt' Access All Alternates in Latin lookup 0 subtable" nine.tf
EndChar

StartChar: two.ss10
Encoding: 65624 -1 329
Width: 530
Flags: HW
HStem: 0 70<125 497> 504 21G<39 125> 649 70<193 351>
VStem: 39 83<504 574> 401 86<449 600>
LayerCount: 3
Fore
SplineSet
46 0 m 1
 46 50 l 2
 46 91 55 128 72 160 c 0
 89 192 110 218 137 243 c 0
 164 268 194 291 224 312 c 0
 254 333 282 354 309 375 c 0
 336 396 360 419 376 443 c 0
 392 467 401 495 401 525 c 0
 401 563 389 594 365 616 c 0
 341 638 311 649 273 649 c 0
 233 649 198 636 171 610 c 0
 144 584 127 549 122 504 c 1
 39 504 l 1
 46 570 71 623 113 661 c 0
 155 699 211 719 278 719 c 0
 341 719 391 701 429 667 c 0
 467 633 486 586 486 525 c 0
 486 491 479 459 466 432 c 0
 453 405 434 380 412 358 c 0
 390 336 365 316 339 298 c 0
 313 280 286 260 260 242 c 0
 234 224 211 204 190 185 c 0
 169 166 152 144 140 121 c 0
 128 98 123 72 125 43 c 1
 109 70 l 1
 497 70 l 1
 497 0 l 1
 46 0 l 1
EndSplineSet
Validated: 37
EndChar

StartChar: zero.tf
Encoding: 65625 -1 330
Width: 589
Flags: HW
HStem: -10 70<222 367> 649 70<221 370>
VStem: 39 88<197 516> 461 89<197 516>
LayerCount: 3
Fore
SplineSet
295 -10 m 256
 244 -10 199 6 161 37 c 0
 123 68 92 110 71 165 c 0
 50 220 39 284 39 357 c 256
 39 430 50 494 71 548 c 0
 92 602 123 644 161 674 c 0
 199 704 244 719 295 719 c 0
 346 719 391 704 429 674 c 0
 467 644 497 602 519 548 c 0
 541 494 551 430 551 357 c 256
 551 284 541 221 519 165 c 0
 497 109 466 67 428 36 c 0
 390 5 346 -10 295 -10 c 256
295 60 m 0
 330 60 360 71 385 95 c 0
 410 119 429 154 442 198 c 0
 455 242 461 296 461 358 c 256
 461 420 454 473 442 516 c 0
 430 559 411 591 386 614 c 0
 361 637 331 649 295 649 c 256
 259 649 229 637 204 615 c 0
 179 593 161 560 148 517 c 0
 135 474 128 420 128 358 c 0
 128 295 135 241 148 197 c 0
 161 153 180 118 205 95 c 0
 230 72 259 60 295 60 c 0
EndSplineSet
Validated: 1
Substitution2: "'pnum' Proportional Numbers in Latin lookup 18 subtable" zero
Substitution2: "'aalt' Access All Alternates in Latin lookup 0 subtable" zero
EndChar

StartChar: one.tf
Encoding: 65626 -1 331
Width: 589
Flags: HW
HStem: 0 75<114 300 390 540> 11 64<300 390> 689 19G<290 390>
VStem: 300 89<11 623>
LayerCount: 3
Fore
SplineSet
300 11 m 1x70
 300 628 l 1
 318 623 l 1
 122 500 l 1
 122 576 l 1
 319 708 l 1
 390 708 l 1
 390 11 l 1
 300 11 l 1x70
114 0 m 1xb0
 114 75 l 5
 540 75 l 5
 540 0 l 1
 114 0 l 1xb0
EndSplineSet
Validated: 5
Substitution2: "'pnum' Proportional Numbers in Latin lookup 18 subtable" one
Substitution2: "'aalt' Access All Alternates in Latin lookup 0 subtable" one
EndChar

StartChar: two.tf
Encoding: 65627 -1 332
Width: 589
Flags: HW
HStem: 0 80<143 497> 504 21G<39 148> 649 70<196 352>
VStem: 39 104<504 587> 401 97<430 598>
LayerCount: 3
Fore
SplineSet
46 0 m 1
 46 68 l 1
 113 127 170 178 215 222 c 0
 260 266 297 305 325 341 c 0
 353 377 371 408 383 437 c 0
 395 466 401 494 401 522 c 0
 401 562 390 593 367 615 c 0
 344 637 312 649 271 649 c 0
 185 649 154 597 143 504 c 1
 39 504 l 1
 45 568 69 620 110 659 c 0
 151 698 208 719 277 719 c 0
 317 719 499 707 499 523 c 0
 499 394 417 276 143 42 c 1
 109 80 l 5
 497 80 l 5
 497 0 l 1
 46 0 l 1
EndSplineSet
Validated: 5
Substitution2: "'ss10' Style Set 10 in Latin lookup 31 subtable" two.tf.ss10
Substitution2: "'pnum' Proportional Numbers in Latin lookup 18 subtable" two
AlternateSubs2: "'aalt' Access All Alternates in Latin lookup 1 subtable" two two.tf.ss10
EndChar

StartChar: three.tf
Encoding: 65628 -1 333
Width: 589
Flags: HW
HStem: -10 75<214 371> 337 67<206 315> 363 21<324 425> 513 21G<54 149> 644 75<201 365>
VStem: 44 92<146 213> 54 92<513 588> 410 94<453 599> 425 95<115 277>
LayerCount: 3
Fore
SplineSet
286 -10 m 0xb880
 240 -10 201 -1 166 16 c 0
 131 33 103 58 82 92 c 0
 61 126 49 166 44 213 c 1
 136 213 l 1
 143 155 182 69 287 65 c 4
 372 62 425 109 425 193 c 0xbc80
 425 235 413 270 389 297 c 0
 365 324 331 337 291 337 c 2
 206 337 l 1
 206 405 l 1
 288 405 l 2
 364 405 410 454 410 528 c 0
 410 558 400 644 283 644 c 256
 160 644 152 554 147 513 c 1
 54 513 l 1
 57 555 69 591 89 622 c 0
 109 653 136 676 170 693 c 0
 204 710 243 719 285 719 c 0
 404 719 504 651 504 533 c 0xdb
 504 434 426 363 324 363 c 1
 318 383 l 1
 435 383 521 304 521 190 c 0
 521 77 425 -10 286 -10 c 0xb880
EndSplineSet
Validated: 37
Substitution2: "'pnum' Proportional Numbers in Latin lookup 18 subtable" three
Substitution2: "'aalt' Access All Alternates in Latin lookup 0 subtable" three
EndChar

StartChar: four.tf
Encoding: 65629 -1 334
Width: 589
Flags: HW
HStem: 0 21G<374 470> 154 79<127 374 376 555> 689 19G<364 470>
VStem: 376 93<0 206>
LayerCount: 3
Fore
SplineSet
374 0 m 1
 374 186 l 1
 376 206 l 1
 376 606 l 1
 409 606 l 1
 127 201 l 1
 91 233 l 1
 555 233 l 1
 555 154 l 5
 37 154 l 5
 37 222 l 1
 377 708 l 1
 470 708 l 1
 470 0 l 1
 374 0 l 1
EndSplineSet
Validated: 5
Substitution2: "'pnum' Proportional Numbers in Latin lookup 18 subtable" four
Substitution2: "'aalt' Access All Alternates in Latin lookup 0 subtable" four
EndChar

StartChar: five.tf
Encoding: 65630 -1 335
Width: 589
Flags: HW
HStem: -10 70<211 358> 397 64<201 359> 640 69<200 475>
VStem: 48 93<134 195> 427 98<128 325>
LayerCount: 3
Fore
SplineSet
283 -10 m 0
 215 -10 161 10 121 47 c 0
 81 84 56 134 48 195 c 1
 142 195 l 1
 150 152 166 118 193 95 c 0
 220 72 243 60 281 60 c 0
 321 60 357 73 385 99 c 0
 413 125 427 167 427 225 c 256
 427 283 413 327 385 355 c 0
 357 383 322 397 278 397 c 0
 247 397 220 390 197 377 c 0
 174 364 160 348 152 331 c 1
 81 331 l 1
 112 708 l 1
 475 708 l 1
 475 640 l 1
 160 640 l 1
 200 667 l 1
 179 385 l 1
 147 391 l 1
 159 410 177 427 202 440 c 0
 227 453 257 460 294 460 c 0
 412 460 525 383 525 225 c 260
 525 175 496 -10 283 -10 c 0
EndSplineSet
Validated: 5
Substitution2: "'pnum' Proportional Numbers in Latin lookup 18 subtable" five
Substitution2: "'aalt' Access All Alternates in Latin lookup 0 subtable" five
EndChar

StartChar: six.tf
Encoding: 65631 -1 336
Width: 589
Flags: HW
HStem: -10 75<229 383> 373 73<223 386> 649 70<234 381>
VStem: 54 108<172 431> 431 93<533 596> 441 96<125 317>
LayerCount: 3
Fore
SplineSet
304 -10 m 4xf4
 223 -10 162 20 119 81 c 4
 76 142 54 229 54 344 c 4
 54 424 64 492 84 548 c 4
 104 604 135 646 173 675 c 4
 211 704 258 719 312 719 c 4
 372 719 504 701 524 533 c 5
 431 533 l 5xf8
 427 558 416 648 310 649 c 4
 183 650 141 512 141 288 c 5
 119 296 l 5
 125 326 137 353 156 375 c 4
 175 397 200 415 229 427 c 4
 258 439 288 446 322 446 c 4
 365 446 403 436 435 417 c 4
 467 398 492 370 510 336 c 4
 528 302 537 262 537 216 c 4
 537 171 527 131 508 97 c 4
 489 63 461 36 426 18 c 4
 391 0 350 -10 304 -10 c 4xf4
307 65 m 4
 330 65 441 67 441 217 c 4xf4
 441 258 439 373 305 373 c 4
 285 373 161 372 161 225 c 4
 161 122 221 65 307 65 c 4
EndSplineSet
Validated: 37
Substitution2: "'pnum' Proportional Numbers in Latin lookup 18 subtable" six
Substitution2: "'aalt' Access All Alternates in Latin lookup 0 subtable" six
EndChar

StartChar: seven.tf
Encoding: 65632 -1 337
Width: 589
Flags: HW
HStem: 0 21G<152 259> 634 74<71 408>
LayerCount: 3
Fore
SplineSet
152 0 m 1
 152 0 151 0 408 668 c 1
 430 634 l 5
 71 634 l 5
 71 708 l 1
 490 708 l 1
 490 652 l 1
 252 0 l 1
 152 0 l 1
EndSplineSet
Validated: 37
Substitution2: "'pnum' Proportional Numbers in Latin lookup 18 subtable" seven
Substitution2: "'aalt' Access All Alternates in Latin lookup 0 subtable" seven
EndChar

StartChar: eight.tf
Encoding: 65633 -1 338
Width: 589
Flags: HW
HStem: -10 75<198 365> 337 67<223 342> 363 21<192 219 346 374> 644 75<206 359>
VStem: 48 92<122 280> 65 91<453 595> 409 90<453 595> 425 93<123 280>
LayerCount: 3
Fore
SplineSet
282 -10 m 256xb1
 234 -10 193 -1 157 16 c 0
 121 33 96 58 77 89 c 0
 58 120 48 155 48 193 c 0xb9
 48 229 56 260 71 289 c 0
 86 318 106 341 132 358 c 0
 158 375 187 383 219 383 c 1
 222 363 l 1
 192 363 165 371 141 385 c 0
 117 399 98 420 85 446 c 0
 72 472 65 500 65 531 c 0
 65 568 74 600 92 628 c 0
 110 656 136 680 169 695 c 0
 202 710 240 719 283 719 c 256
 326 719 365 710 397 695 c 0
 429 680 455 656 473 628 c 0
 491 600 499 569 499 532 c 0xb6
 499 500 492 473 479 447 c 0
 466 421 448 400 424 385 c 0
 400 370 373 363 342 363 c 1
 346 383 l 1
 378 383 406 375 432 358 c 0
 458 341 480 318 495 289 c 0
 510 260 518 229 518 193 c 0
 518 155 508 120 489 89 c 0
 470 58 443 33 407 16 c 0
 371 -1 330 -10 282 -10 c 256xb1
282 65 m 256
 325 65 360 78 386 103 c 0
 412 128 425 158 425 200 c 0
 425 242 411 275 386 300 c 0
 361 325 326 337 282 337 c 256xd9
 238 337 203 325 178 300 c 0
 153 275 140 242 140 200 c 0
 140 158 153 127 179 102 c 0
 205 77 239 65 282 65 c 256
282 405 m 0
 321 405 353 415 376 437 c 0
 399 459 409 488 409 525 c 0
 409 563 398 588 375 610 c 4
 352 632 320 644 282 644 c 260
 244 644 214 632 191 610 c 4
 168 588 156 563 156 525 c 0xd6
 156 488 167 459 190 437 c 0
 213 415 244 405 282 405 c 0
EndSplineSet
Validated: 5
Substitution2: "'pnum' Proportional Numbers in Latin lookup 18 subtable" eight
Substitution2: "'aalt' Access All Alternates in Latin lookup 0 subtable" eight
EndChar

StartChar: nine.tf
Encoding: 65634 -1 339
Width: 589
Flags: HW
HStem: -10 70<209 356> 262 73<205 368> 644 75<207 363>
VStem: 54 96<392 583> 67 93<113 175> 430 108<277 536>
LayerCount: 3
Fore
SplineSet
287 719 m 4xf4
 368 719 430 688 473 627 c 4
 516 566 537 479 537 364 c 4
 537 284 526 216 506 160 c 4
 486 104 456 63 418 34 c 4
 380 5 333 -10 279 -10 c 4
 219 -10 87 7 67 175 c 5
 160 175 l 5xec
 164 150 175 61 281 60 c 4
 408 59 450 196 450 420 c 5
 473 412 l 5
 467 382 453 355 434 333 c 4
 415 311 391 294 362 282 c 4
 333 270 304 262 270 262 c 4
 227 262 188 273 156 292 c 4
 124 311 99 338 81 372 c 4
 63 406 54 446 54 492 c 4
 54 537 64 577 83 611 c 4
 102 645 130 672 165 690 c 4
 200 708 241 719 287 719 c 4xf4
284 644 m 4
 261 644 151 641 151 491 c 4xf4
 151 450 152 335 286 335 c 4
 306 335 430 336 430 483 c 4
 430 586 370 644 284 644 c 4
EndSplineSet
Validated: 37
Substitution2: "'pnum' Proportional Numbers in Latin lookup 18 subtable" nine
Substitution2: "'aalt' Access All Alternates in Latin lookup 0 subtable" nine
EndChar

StartChar: two.tf.ss10
Encoding: 65635 -1 340
Width: 589
Flags: HW
HStem: 0 70<164 517> 504 21G<77 163> 649 70<226 370>
VStem: 77 85<504 577> 417 87<447 602>
LayerCount: 3
Fore
SplineSet
83 0 m 1
 83 50 l 2
 83 91 91 128 107 160 c 0
 123 192 145 218 170 243 c 0
 195 268 222 291 251 312 c 0
 280 333 306 354 331 375 c 0
 356 396 377 419 393 443 c 0
 409 467 417 495 417 525 c 0
 417 563 406 594 384 616 c 0
 362 638 334 649 300 649 c 0
 262 649 230 635 205 609 c 0
 180 583 166 548 161 504 c 1
 77 504 l 1
 82 569 106 621 146 660 c 0
 186 699 239 719 304 719 c 0
 365 719 413 701 450 667 c 0
 487 633 504 586 504 525 c 0
 504 491 497 459 485 432 c 0
 473 405 456 380 435 358 c 0
 414 336 391 316 366 298 c 0
 341 280 317 260 292 242 c 0
 267 224 245 204 225 185 c 0
 205 166 190 144 178 121 c 0
 166 98 162 72 164 43 c 1
 149 70 l 1
 517 70 l 1
 517 0 l 1
 83 0 l 1
EndSplineSet
Validated: 37
EndChar

StartChar: hyphen_greater.liga
Encoding: 65636 -1 343
Width: 823
GlyphClass: 3
LigCaretCntFixed: 1
Flags: HW
HStem: 320 69<65 660>
LayerCount: 3
Fore
SplineSet
65 388 m 1
 693 388 l 1
 660 362 l 1
 346 679 l 1
 442 679 l 1
 764 355 l 1
 441 30 l 1
 345 30 l 1
 660 346 l 1
 693 320 l 1
 65 320 l 1
 65 388 l 1
EndSplineSet
Validated: 5
Ligature2: "'liga' Standard Ligatures in Latin lookup 21 subtable" hyphen greater
LCarets2: 1 406
EndChar

StartChar: period
Encoding: 46 46 344
Width: 257
Flags: HW
HStem: 0 100<79 179>
VStem: 79 100<0 100>
LayerCount: 3
Fore
SplineSet
79 0 m 1
 79 100 l 1
 179 100 l 1
 179 0 l 1
 79 0 l 1
EndSplineSet
Validated: 1
Substitution2: "'ss01' Style Set 1 in Latin lookup 22 subtable" period.ss01
Substitution2: "'aalt' Access All Alternates in Latin lookup 0 subtable" period.ss01
EndChar

StartChar: comma
Encoding: 44 44 345
Width: 274
Flags: HW
HStem: -109 209<104 125>
VStem: 55 153
LayerCount: 3
Fore
SplineSet
125 -109 m 5
 55 -109 l 5
 104 100 l 5
 208 100 l 5
 125 -109 l 5
EndSplineSet
Validated: 1
Substitution2: "'ss01' Style Set 1 in Latin lookup 22 subtable" comma.ss01
Substitution2: "'aalt' Access All Alternates in Latin lookup 0 subtable" comma.ss01
EndChar

StartChar: exclam
Encoding: 33 33 349
Width: 274
Flags: HW
HStem: 0 100<87 188>
VStem: 87 101<0 100> 95 84<428.372 728> 107 60<206 505.628>
LayerCount: 3
Fore
SplineSet
107 206 m 1x90
 95 728 l 1
 179 728 l 1xa0
 167 206 l 1
 107 206 l 1x90
87 0 m 1xc0
 87 100 l 1
 188 100 l 1
 188 0 l 1
 87 0 l 1xc0
EndSplineSet
Validated: 1
Substitution2: "'ss01' Style Set 1 in Latin lookup 22 subtable" exclam.ss01
Substitution2: "'case' Case-Sensitive Forms in Latin lookup 20 subtable" exclam.case
AlternateSubs2: "'aalt' Access All Alternates in Latin lookup 1 subtable" exclam.case exclam.ss01
EndChar

StartChar: exclamdown
Encoding: 161 161 350
Width: 274
Flags: HW
HStem: 403 99<87 188>
VStem: 87 100<403 502> 95 84<-202 88> 107 60<6 296>
LayerCount: 3
Fore
SplineSet
95 -202 m 1xa0
 107 296 l 1
 167 296 l 1x90
 179 -202 l 1
 95 -202 l 1xa0
188 502 m 1xc0
 188 403 l 1
 87 403 l 1
 87 502 l 1
 188 502 l 1xc0
EndSplineSet
Validated: 1
Substitution2: "'ss01' Style Set 1 in Latin lookup 22 subtable" exclamdown.ss01
Substitution2: "'case' Case-Sensitive Forms in Latin lookup 20 subtable" exclamdown.case
AlternateSubs2: "'aalt' Access All Alternates in Latin lookup 1 subtable" exclamdown.case exclamdown.ss01
EndChar

StartChar: question
Encoding: 63 63 351
Width: 502
Flags: HW
HStem: 0 100<155 253> 635 86<90 188.49>
VStem: 155 98<0 100> 155 86<206 312.5> 346 90<484.582 618.459>
LayerCount: 3
Fore
SplineSet
155 206 m 1xd8
 155 289 159 338 250 413 c 0
 326 475 344 494 346 554 c 0
 349 674 209 674 90 635 c 1
 88 721 l 1
 125 733 169 739 222 739 c 0
 257 739 436 731 436 553 c 4
 436 492 416 439 336 384 c 0
 261 331 241 300 241 206 c 1
 155 206 l 1xd8
155 0 m 1xe8
 155 100 l 1
 253 100 l 1
 253 0 l 1
 155 0 l 1xe8
EndSplineSet
Validated: 33
Substitution2: "'ss01' Style Set 1 in Latin lookup 22 subtable" question.ss01
Substitution2: "'case' Case-Sensitive Forms in Latin lookup 20 subtable" question.case
AlternateSubs2: "'aalt' Access All Alternates in Latin lookup 1 subtable" question.case question.ss01
EndChar

StartChar: questiondown
Encoding: 191 191 352
Width: 547
Flags: HW
HStem: -165 72<166 381> 474 100<219 319>
VStem: 37 77<-47 89> 219 99<474 574> 232 73<260 368>
LayerCount: 3
Fore
SplineSet
305 368 m 1xe8
 305 322 302 289 296 271 c 0
 287 245 274 224 258 207 c 0
 242 190 226 173 210 160 c 0
 194 147 178 134 164 121 c 0
 150 108 138 93 128 78 c 0
 119 64 115 43 114 19 c 0
 113 -17 125 -44 152 -63 c 0
 180 -84 216 -94 259 -93 c 0
 302 -92 344 -85 382 -73 c 1
 385 -147 l 1
 348 -159 305 -165 252 -165 c 0
 203 -165 163 -156 132 -140 c 0
 105 -126 82 -106 64 -78 c 0
 46 -50 37 -17 37 21 c 0
 37 51 41 76 51 96 c 0
 61 116 73 134 87 148 c 0
 101 162 118 177 136 189 c 0
 159 205 176 219 188 231 c 0
 200 243 211 259 220 279 c 0
 229 299 232 329 232 368 c 1
 305 368 l 1xe8
319 574 m 1xf0
 319 474 l 1
 219 474 l 1
 219 574 l 1
 319 574 l 1xf0
EndSplineSet
Validated: 33
Substitution2: "'ss01' Style Set 1 in Latin lookup 22 subtable" questiondown.ss01
Substitution2: "'case' Case-Sensitive Forms in Latin lookup 20 subtable" questiondown.case
AlternateSubs2: "'aalt' Access All Alternates in Latin lookup 1 subtable" questiondown.case questiondown.ss01
EndChar

StartChar: bullet
Encoding: 8226 8226 354
Width: 306
Flags: HW
HStem: 294 150<79 229>
VStem: 79 151<294 444>
LayerCount: 3
Fore
SplineSet
79 294 m 1
 79 444 l 1
 229 444 l 1
 229 294 l 1
 79 294 l 1
EndSplineSet
Validated: 1
Substitution2: "'ss01' Style Set 1 in Latin lookup 22 subtable" bullet.ss01
Substitution2: "'case' Case-Sensitive Forms in Latin lookup 20 subtable" bullet.case
AlternateSubs2: "'aalt' Access All Alternates in Latin lookup 1 subtable" bullet.case bullet.ss01
EndChar

StartChar: asterisk
Encoding: 42 42 355
Width: 408
Flags: HW
HStem: 430 298
VStem: 54 301
LayerCount: 3
Fore
SplineSet
169 430 m 1
 190 554 l 1
 88 476 l 1
 54 534 l 1
 173 578 l 1
 54 624 l 1
 88 684 l 1
 190 605 l 1
 169 728 l 1
 239 728 l 1
 219 605 l 1
 320 684 l 1
 355 624 l 1
 235 578 l 1
 355 534 l 1
 320 476 l 1
 219 554 l 1
 239 430 l 1
 169 430 l 1
EndSplineSet
Validated: 1
EndChar

StartChar: numbersign
Encoding: 35 35 356
Width: 683
Flags: HW
HStem: 0 21G<149 218.797 370 440.768> 220 66<45 616> 432 66<70 641> 688 20G<244.232 315 466.203 536>
LayerCount: 3
Fore
SplineSet
149 0 m 1
 247 708 l 1
 315 708 l 1
 216 0 l 1
 149 0 l 1
370 0 m 1
 469 708 l 1
 536 708 l 1
 438 0 l 1
 370 0 l 1
70 498 m 1
 641 498 l 1
 641 432 l 1
 70 432 l 1
 70 498 l 1
45 286 m 1
 616 286 l 1
 616 220 l 1
 45 220 l 1
 45 286 l 1
EndSplineSet
Validated: 5
EndChar

StartChar: slash
Encoding: 47 47 357
Width: 425
Flags: HW
VStem: 58 310
LayerCount: 3
Fore
SplineSet
58 -59 m 5
 290 738 l 5
 368 738 l 5
 135 -59 l 5
 58 -59 l 5
EndSplineSet
Validated: 1
EndChar

StartChar: backslash
Encoding: 92 92 358
Width: 425
Flags: HW
VStem: 63 300
LayerCount: 3
Fore
SplineSet
63 738 m 1
 130 738 l 1
 363 -59 l 1
 295 -59 l 1
 63 738 l 1
EndSplineSet
Validated: 1
EndChar

StartChar: exclam.case
Encoding: 65639 -1 361
Width: 277
Flags: HW
HStem: 0 100<88 189> 689 19G<96 180>
VStem: 88 100<0 100> 96 84<415 708> 108 60<206 499>
LayerCount: 3
Fore
SplineSet
108 206 m 1xc8
 96 708 l 1
 180 708 l 1xd0
 168 206 l 1
 108 206 l 1xc8
88 0 m 1xe0
 88 100 l 1
 189 100 l 1
 189 0 l 1
 88 0 l 1xe0
EndSplineSet
Validated: 1
EndChar

StartChar: exclamdown.case
Encoding: 65640 -1 362
Width: 274
Flags: HW
HStem: 0 21G<95 179> 483 19G<106 168> 609 99<87 188>
VStem: 87 100<609 708> 95 84<0 293> 107 60<209 503>
LayerCount: 3
Fore
SplineSet
95 0 m 1xe8
 107 503 l 1
 167 503 l 1xe4
 179 0 l 1
 95 0 l 1xe8
188 708 m 1xf0
 188 609 l 1
 87 609 l 1
 87 708 l 1
 188 708 l 1xf0
EndSplineSet
Validated: 1
EndChar

StartChar: question.case
Encoding: 65641 -1 363
Width: 547
Flags: HW
HStem: 0 100<231 330> 505 21G<48 129> 649 70<202 388>
VStem: 48 78<505 573> 231 99<0 100> 245 73<206 298> 436 77<475 604>
LayerCount: 3
Fore
SplineSet
245 206 m 1xf6
 245 243 249 272 258 297 c 0
 267 322 280 342 294 359 c 0
 308 376 324 392 340 405 c 0
 356 418 372 431 386 443 c 0
 400 455 412 471 422 486 c 0
 432 501 436 521 436 544 c 0
 436 574 425 599 401 619 c 0
 377 639 341 649 293 649 c 0
 246 649 208 636 179 611 c 0
 150 586 132 550 126 505 c 1
 48 505 l 1
 52 548 64 587 86 619 c 0
 108 651 136 675 173 692 c 0
 210 709 250 719 296 719 c 256
 342 719 381 710 413 696 c 0
 445 682 470 660 487 634 c 0
 504 608 513 578 513 543 c 0
 513 513 509 488 499 468 c 0
 489 448 477 430 463 416 c 0
 449 402 432 388 415 376 c 0
 398 364 382 349 368 335 c 0
 354 321 341 304 331 283 c 0
 321 262 318 237 318 206 c 1
 245 206 l 1xf6
231 0 m 1xfa
 231 100 l 1
 330 100 l 1
 330 0 l 1
 231 0 l 1xfa
EndSplineSet
Validated: 1
EndChar

StartChar: questiondown.case
Encoding: 65642 -1 364
Width: 547
Flags: HW
HStem: -10 70<166 349> 483 19G<231 304> 609 99<217 318>
VStem: 35 78<107 246> 217 100<609 708> 231 73<416 503> 423 77<129 186>
LayerCount: 3
Fore
SplineSet
252 -10 m 0xf6
 211 -10 174 -2 141 11 c 0
 108 24 83 45 64 72 c 0
 45 99 35 133 35 171 c 0
 35 201 40 227 50 247 c 0
 60 267 72 285 86 299 c 0
 100 313 117 327 133 339 c 0
 149 351 166 365 180 379 c 0
 194 393 207 410 217 429 c 0
 227 448 231 473 231 503 c 1
 304 503 l 1
 304 468 300 439 290 416 c 0
 280 393 268 373 254 357 c 0
 240 341 224 325 208 313 c 0
 192 301 176 288 162 276 c 0
 148 264 136 249 127 233 c 0
 118 217 113 196 113 172 c 0
 113 135 127 108 154 89 c 0
 181 70 214 60 254 60 c 0
 297 60 336 70 367 92 c 0
 398 114 416 146 423 186 c 1
 499 186 l 1
 495 146 483 112 460 82 c 0
 437 52 409 28 373 13 c 0
 337 -2 296 -10 252 -10 c 0xf6
318 708 m 1xfa
 318 609 l 1
 217 609 l 1
 217 708 l 1
 318 708 l 1xfa
EndSplineSet
Validated: 1
EndChar

StartChar: bullet.case
Encoding: 65643 -1 365
Width: 695
Flags: HW
HStem: 116 538<79 617>
VStem: 79 538<116 654>
LayerCount: 3
Fore
SplineSet
79 116 m 1
 79 654 l 1
 617 654 l 1
 617 116 l 1
 79 116 l 1
EndSplineSet
Validated: 1
Substitution2: "'ss01' Style Set 1 in Latin lookup 22 subtable" bullet.case.ss01
Substitution2: "'aalt' Access All Alternates in Latin lookup 0 subtable" bullet.case.ss01
EndChar

StartChar: period.ss01
Encoding: 65645 -1 367
Width: 257
Flags: HW
HStem: -10 112<89 168>
VStem: 73 112<7 86>
LayerCount: 3
Fore
SplineSet
129 -10 m 0
 114 -10 100 -5 89 6 c 0
 78 17 73 30 73 47 c 0
 73 62 78 75 89 86 c 0
 100 97 114 102 129 102 c 0
 144 102 156 97 168 86 c 0
 180 75 185 62 185 46 c 256
 185 30 180 17 168 6 c 0
 156 -5 144 -10 129 -10 c 0
EndSplineSet
Validated: 1
EndChar

StartChar: comma.ss01
Encoding: 65646 -1 368
Width: 257
Flags: HW
HStem: -7 110<89 163>
VStem: 73 112<9 83>
LayerCount: 3
Fore
SplineSet
83 -139 m 1
 83 -100 l 1
 100 -92 114 -81 125 -66 c 0
 136 -51 140 -28 140 3 c 1
 163 6 l 1
 158 3 154 0 148 -3 c 0
 142 -6 136 -7 129 -7 c 0
 114 -7 100 -2 89 9 c 0
 78 20 73 31 73 46 c 0
 73 63 78 76 89 87 c 0
 100 98 113 102 126 102 c 0
 142 102 156 96 168 84 c 0
 180 72 185 51 185 21 c 0
 185 -20 175 -55 158 -83 c 0
 141 -111 115 -128 83 -139 c 1
EndSplineSet
Validated: 5
EndChar

StartChar: exclam.ss01
Encoding: 65650 -1 372
Width: 277
Flags: HW
HStem: -10 112<100 178>
VStem: 82 112<7 86> 96 84<424 728> 108 60<206 510>
LayerCount: 3
Fore
SplineSet
108 206 m 1x90
 96 728 l 1
 180 728 l 1xa0
 168 206 l 1
 108 206 l 1x90
139 -10 m 0
 124 -10 110 -5 99 6 c 0
 88 17 82 30 82 47 c 0
 82 62 88 75 99 86 c 0
 110 97 124 102 139 102 c 0
 154 102 166 97 178 86 c 0
 190 75 195 62 195 46 c 256xc0
 195 30 190 17 178 6 c 0
 166 -5 154 -10 139 -10 c 0
EndSplineSet
Validated: 1
EndChar

StartChar: exclamdown.ss01
Encoding: 65651 -1 373
Width: 286
Flags: HW
HStem: 400 112<106 183>
VStem: 87 112<416 496> 102 84<-202 88> 113 60<6 296>
LayerCount: 3
Fore
SplineSet
102 -202 m 1xa0
 113 296 l 1
 173 296 l 1x90
 185 -202 l 1
 102 -202 l 1xa0
144 511 m 0
 159 511 172 507 183 496 c 0
 194 485 200 471 200 455 c 256
 200 439 194 426 183 415 c 0
 172 404 159 400 144 400 c 0
 130 400 117 404 105 415 c 0
 93 426 87 439 87 455 c 256xc0
 87 471 93 485 105 496 c 0
 117 507 130 511 144 511 c 0
EndSplineSet
Validated: 1
EndChar

StartChar: question.ss01
Encoding: 65652 -1 374
Width: 547
Flags: HW
HStem: -10 112<241 319> 668 70<202 384>
VStem: 48 78<526 592> 225 112<7 86> 245 73<206 303> 436 77<484 620>
LayerCount: 3
Fore
SplineSet
245 206 m 1xec
 245 243 249 275 258 301 c 0
 267 327 280 349 294 366 c 0
 308 383 324 400 340 413 c 0
 356 426 372 440 386 453 c 0
 400 466 412 481 422 496 c 0
 432 511 436 531 436 554 c 0
 436 588 423 616 398 637 c 0
 373 658 337 668 293 668 c 0
 246 668 208 655 179 630 c 0
 150 605 132 571 126 526 c 1
 48 526 l 1
 52 569 64 606 86 638 c 0
 108 670 136 695 173 712 c 0
 210 729 250 738 296 738 c 0
 340 738 378 730 410 715 c 0
 442 700 467 680 485 652 c 0
 503 624 513 591 513 553 c 0
 513 523 509 498 499 478 c 0
 489 458 477 440 463 426 c 0
 449 412 432 396 415 384 c 0
 398 372 382 357 368 342 c 0
 354 327 341 309 331 287 c 0
 321 265 318 239 318 206 c 1
 245 206 l 1xec
281 -10 m 0
 265 -10 251 -5 240 6 c 0
 229 17 225 30 225 47 c 0
 225 62 229 75 240 86 c 0
 251 97 265 102 281 102 c 0
 295 102 308 97 320 86 c 0
 332 75 336 62 336 47 c 0xf4
 336 30 332 17 320 6 c 0
 308 -5 295 -10 281 -10 c 0
EndSplineSet
Validated: 1
EndChar

StartChar: questiondown.ss01
Encoding: 65653 -1 375
Width: 547
Flags: HW
HStem: -211 70<165 349> 400 112<229 307>
VStem: 35 78<-96 39> 211 112<416 496> 231 73<209 296> 423 77<-72 -15>
LayerCount: 3
Fore
SplineSet
252 -211 m 0xec
 211 -211 174 -204 141 -191 c 0
 108 -178 83 -157 64 -131 c 0
 45 -105 35 -73 35 -36 c 0
 35 -6 40 19 50 39 c 0
 60 59 72 78 86 92 c 0
 100 106 117 121 133 133 c 0
 149 145 166 158 180 172 c 0
 194 186 207 203 217 222 c 0
 227 241 231 266 231 296 c 1
 304 296 l 1
 304 261 300 232 290 209 c 0
 280 186 268 166 254 150 c 0
 240 134 224 119 208 107 c 0
 192 95 176 81 162 69 c 0
 148 57 136 42 127 26 c 0
 118 10 113 -11 113 -35 c 0
 113 -69 127 -94 154 -113 c 0
 181 -132 214 -141 254 -141 c 0
 297 -141 336 -132 367 -110 c 0
 398 -88 416 -55 423 -15 c 1
 499 -15 l 1
 495 -55 483 -91 460 -120 c 0
 437 -149 409 -173 373 -188 c 0
 337 -203 296 -211 252 -211 c 0xec
268 511 m 0
 283 511 296 507 307 496 c 0
 318 485 324 471 324 455 c 256
 324 439 318 426 307 415 c 0
 296 404 283 400 268 400 c 0
 254 400 241 404 229 415 c 0
 217 426 211 439 211 455 c 256xf4
 211 471 217 485 229 496 c 0
 241 507 254 511 268 511 c 0
EndSplineSet
Validated: 1
EndChar

StartChar: bullet.ss01
Encoding: 65655 -1 377
Width: 324
Flags: HW
HStem: 280 168<106 219>
VStem: 79 168<307 420>
LayerCount: 3
Fore
SplineSet
163 280 m 0
 139 280 120 288 104 303 c 0
 88 318 79 338 79 364 c 0
 79 388 88 408 104 424 c 0
 120 440 139 448 163 448 c 0
 185 448 206 440 222 424 c 0
 238 408 247 388 247 364 c 0
 247 338 238 318 222 303 c 0
 206 288 185 280 163 280 c 0
EndSplineSet
Validated: 1
EndChar

StartChar: bullet.case.ss01
Encoding: 65657 -1 379
Width: 758
Flags: HW
HStem: 64 603<263 494>
VStem: 79 603<247 482>
LayerCount: 3
Fore
SplineSet
382 64 m 0
 296 64 224 91 166 147 c 0
 108 203 79 276 79 368 c 0
 79 454 108 525 166 582 c 0
 224 639 296 667 382 667 c 0
 461 667 531 639 592 582 c 0
 653 525 682 454 682 368 c 0
 682 276 653 203 592 147 c 0
 531 91 461 64 382 64 c 0
EndSplineSet
Validated: 1
EndChar

StartChar: hyphen
Encoding: 45 45 381
Width: 453
Flags: HW
HStem: 232 73<82 371>
VStem: 82 289<232 305>
LayerCount: 3
Fore
SplineSet
82 232 m 1
 82 305 l 1
 371 305 l 1
 371 232 l 1
 82 232 l 1
EndSplineSet
Validated: 1
Substitution2: "'case' Case-Sensitive Forms in Latin lookup 20 subtable" hyphen.case
Substitution2: "'aalt' Access All Alternates in Latin lookup 0 subtable" hyphen.case
EndChar

StartChar: endash
Encoding: 8211 8211 382
Width: 570
Flags: HW
HStem: 234 67<21 551>
LayerCount: 3
Fore
SplineSet
21 234 m 5
 21 301 l 1
 551 301 l 1
 551 234 l 5
 21 234 l 5
EndSplineSet
Validated: 1
Substitution2: "'case' Case-Sensitive Forms in Latin lookup 20 subtable" endash.case
Substitution2: "'aalt' Access All Alternates in Latin lookup 0 subtable" endash.case
EndChar

StartChar: emdash
Encoding: 8212 8212 383
Width: 905
Flags: HW
HStem: 234 66<75 839>
LayerCount: 3
Fore
SplineSet
75 234 m 1
 75 301 l 1
 839 301 l 1
 839 234 l 1
 75 234 l 1
EndSplineSet
Validated: 1
Substitution2: "'case' Case-Sensitive Forms in Latin lookup 20 subtable" emdash.case
Substitution2: "'aalt' Access All Alternates in Latin lookup 0 subtable" emdash.case
EndChar

StartChar: hyphen.case
Encoding: 65659 -1 385
Width: 491
Flags: HW
HStem: 318 74<82 409>
VStem: 82 327<318 392>
LayerCount: 3
Fore
SplineSet
82 318 m 1
 82 392 l 1
 409 392 l 1
 409 318 l 1
 82 318 l 1
EndSplineSet
Validated: 1
EndChar

StartChar: endash.case
Encoding: 65660 -1 386
Width: 570
Flags: HW
HStem: 321 67<82 488>
LayerCount: 3
Fore
SplineSet
82 321 m 1
 82 387 l 1
 488 387 l 1
 488 321 l 1
 82 321 l 1
EndSplineSet
Validated: 1
EndChar

StartChar: emdash.case
Encoding: 65661 -1 387
Width: 853
Flags: HW
HStem: 321 67<82 771>
LayerCount: 3
Fore
SplineSet
82 321 m 1
 82 387 l 1
 771 387 l 1
 771 321 l 1
 82 321 l 1
EndSplineSet
Validated: 1
EndChar

StartChar: parenleft
Encoding: 40 40 388
Width: 402
Flags: HW
VStem: 83 72<164.24 464.093>
LayerCount: 3
Fore
SplineSet
276 -109 m 1
 211 -47 161 21 130 93 c 0
 99 165 83 239 83 315 c 0
 83 389 98 462 130 535 c 0
 162 608 211 676 276 738 c 1
 350 738 l 1
 285 676 236 609 204 539 c 0
 172 469 155 394 155 315 c 0
 155 235 171 160 204 90 c 0
 237 20 287 -47 350 -109 c 1
 276 -109 l 1
EndSplineSet
Validated: 1
Substitution2: "'case' Case-Sensitive Forms in Latin lookup 20 subtable" parenleft.case
Substitution2: "'aalt' Access All Alternates in Latin lookup 0 subtable" parenleft.case
EndChar

StartChar: parenright
Encoding: 41 41 389
Width: 402
Flags: HW
VStem: 248 72<169.392 468.036>
LayerCount: 3
Fore
SplineSet
128 742 m 1
 193 680 242 613 273 541 c 0
 304 469 320 395 320 319 c 0
 320 245 305 171 273 98 c 0
 241 25 193 -43 128 -105 c 1
 54 -105 l 1
 119 -43 168 23 200 94 c 0
 232 165 248 240 248 319 c 0
 248 399 231 474 198 544 c 0
 165 614 117 680 54 742 c 1
 128 742 l 1
EndSplineSet
Validated: 1
Substitution2: "'case' Case-Sensitive Forms in Latin lookup 20 subtable" parenright.case
Substitution2: "'aalt' Access All Alternates in Latin lookup 0 subtable" parenright.case
EndChar

StartChar: braceleft
Encoding: 123 123 390
Width: 402
Flags: HW
HStem: -107 63<204.589 339> 285 61<44 149.008> 676 62<204.589 339>
VStem: 44 295
LayerCount: 3
Fore
SplineSet
253 -107 m 2
 219 -107 192 -99 171 -86 c 0
 150 -73 136 -55 128 -32 c 0
 120 -9 119 16 124 42 c 2
 155 199 l 2
 162 230 159 252 148 265 c 0
 137 278 117 285 89 285 c 2
 44 285 l 1
 44 346 l 1
 89 346 l 2
 117 346 137 353 148 366 c 0
 159 379 162 402 155 433 c 2
 124 589 l 2
 119 616 120 641 128 664 c 0
 136 687 150 705 171 718 c 0
 192 731 219 738 253 738 c 2
 339 738 l 1
 339 676 l 1
 258 676 l 2
 233 676 216 668 204 654 c 0
 192 640 191 620 197 592 c 2
 226 454 l 2
 235 415 233 383 221 362 c 0
 209 341 191 326 166 316 c 1
 191 306 209 290 221 269 c 0
 233 248 235 217 226 178 c 2
 197 39 l 2
 191 11 192 -9 204 -23 c 0
 216 -37 233 -44 258 -44 c 2
 339 -44 l 1
 339 -107 l 1
 253 -107 l 2
EndSplineSet
Validated: 33
Substitution2: "'case' Case-Sensitive Forms in Latin lookup 20 subtable" braceleft.case
Substitution2: "'aalt' Access All Alternates in Latin lookup 0 subtable" braceleft.case
EndChar

StartChar: braceright
Encoding: 125 125 391
Width: 402
Flags: HW
HStem: -107 63<64 198.308> 285 61<252.907 359> 676 62<64 198.308>
VStem: 64 295
LayerCount: 3
Fore
SplineSet
149 738 m 2
 184 738 211 731 232 718 c 0
 253 705 268 687 276 664 c 0
 284 641 284 616 278 589 c 2
 248 433 l 2
 241 402 242 379 254 366 c 0
 266 353 286 346 314 346 c 2
 359 346 l 1
 359 285 l 1
 314 285 l 2
 286 285 266 278 254 265 c 0
 242 252 241 230 248 199 c 2
 278 42 l 2
 284 16 284 -9 276 -32 c 0
 268 -55 253 -73 232 -86 c 0
 211 -99 184 -107 149 -107 c 2
 64 -107 l 1
 64 -44 l 1
 144 -44 l 2
 170 -44 188 -37 199 -23 c 0
 210 -9 212 11 205 39 c 2
 177 178 l 2
 169 217 170 248 182 269 c 0
 194 290 211 306 236 316 c 1
 211 326 194 341 182 362 c 0
 170 383 169 415 177 454 c 2
 205 592 l 2
 212 620 210 640 199 654 c 0
 188 668 170 676 144 676 c 2
 64 676 l 1
 64 738 l 1
 149 738 l 2
EndSplineSet
Validated: 33
Substitution2: "'case' Case-Sensitive Forms in Latin lookup 20 subtable" braceright.case
Substitution2: "'aalt' Access All Alternates in Latin lookup 0 subtable" braceright.case
EndChar

StartChar: bracketleft
Encoding: 91 91 392
Width: 402
Flags: HW
HStem: -107 63<165 339> 676 62<165 339>
VStem: 93 72<-44 676>
LayerCount: 3
Fore
SplineSet
93 -107 m 1
 93 738 l 1
 339 738 l 1
 339 676 l 1
 165 676 l 1
 165 -44 l 1
 339 -44 l 1
 339 -107 l 1
 93 -107 l 1
EndSplineSet
Validated: 1
Substitution2: "'case' Case-Sensitive Forms in Latin lookup 20 subtable" bracketleft.case
Substitution2: "'aalt' Access All Alternates in Latin lookup 0 subtable" bracketleft.case
EndChar

StartChar: bracketright
Encoding: 93 93 393
Width: 402
Flags: HW
HStem: -107 63<64 238> 676 62<64 238>
VStem: 238 72<-44 676>
LayerCount: 3
Fore
SplineSet
310 738 m 1
 310 -107 l 1
 64 -107 l 1
 64 -44 l 1
 238 -44 l 1
 238 676 l 1
 64 676 l 1
 64 738 l 1
 310 738 l 1
EndSplineSet
Validated: 1
Substitution2: "'case' Case-Sensitive Forms in Latin lookup 20 subtable" bracketright.case
Substitution2: "'aalt' Access All Alternates in Latin lookup 0 subtable" bracketright.case
EndChar

StartChar: parenleft.case
Encoding: 65662 -1 394
Width: 402
Flags: HW
VStem: 83 72<214 494>
LayerCount: 3
Fore
SplineSet
276 -39 m 1
 232 -1 195 41 167 84 c 0
 139 127 118 171 105 216 c 0
 92 261 83 309 83 355 c 256
 83 401 92 448 105 493 c 0
 118 538 139 583 168 626 c 0
 197 669 233 710 276 748 c 1
 350 748 l 1
 285 690 236 628 204 563 c 0
 172 498 155 428 155 355 c 0
 155 281 171 210 204 145 c 0
 237 80 287 19 350 -39 c 1
 276 -39 l 1
EndSplineSet
Validated: 1
EndChar

StartChar: parenright.case
Encoding: 65663 -1 395
Width: 402
Flags: HW
VStem: 248 72<218 494>
LayerCount: 3
Fore
SplineSet
128 748 m 1
 171 710 207 670 235 627 c 0
 263 584 285 539 299 493 c 0
 313 447 320 401 320 355 c 0
 320 309 313 262 299 217 c 0
 285 172 263 127 235 84 c 0
 207 41 171 -1 128 -39 c 1
 54 -39 l 1
 119 19 168 80 200 146 c 0
 232 212 248 282 248 355 c 0
 248 429 231 498 198 563 c 0
 165 628 117 690 54 748 c 1
 128 748 l 1
EndSplineSet
Validated: 1
EndChar

StartChar: braceleft.case
Encoding: 65664 -1 396
Width: 402
Flags: HW
HStem: -39 62<204 339> 324 61<44 150> 686 62<204 339>
VStem: 44 295
CounterMasks: 1 e0
LayerCount: 3
Fore
SplineSet
253 -39 m 2
 219 -39 192 -32 170 -19 c 0
 148 -6 135 13 127 36 c 0
 119 59 118 84 124 110 c 2
 155 237 l 2
 163 268 161 291 149 304 c 0
 137 317 117 324 89 324 c 2
 44 324 l 1
 44 384 l 1
 89 384 l 2
 117 384 137 392 149 405 c 0
 161 418 163 440 155 471 c 2
 124 600 l 2
 118 627 119 651 127 674 c 0
 135 697 148 714 170 727 c 0
 192 740 219 748 253 748 c 2
 339 748 l 1
 339 686 l 1
 258 686 l 2
 233 686 216 679 204 665 c 0
 192 651 189 631 197 603 c 2
 226 492 l 2
 233 466 233 444 230 426 c 0
 227 408 220 393 208 381 c 0
 196 369 183 362 166 355 c 1
 183 348 196 339 208 327 c 0
 220 315 226 301 230 283 c 0
 234 265 234 242 226 216 c 2
 197 107 l 2
 189 79 192 58 204 44 c 0
 216 30 233 23 258 23 c 2
 339 23 l 1
 339 -39 l 1
 253 -39 l 2
EndSplineSet
Validated: 33
EndChar

StartChar: braceright.case
Encoding: 65665 -1 397
Width: 402
Flags: HW
HStem: -39 62<64 200> 324 61<253 359> 686 62<64 200>
VStem: 64 295
CounterMasks: 1 e0
LayerCount: 3
Fore
SplineSet
149 748 m 2
 184 748 211 740 232 727 c 0
 253 714 268 697 277 674 c 0
 286 651 286 627 278 600 c 2
 248 471 l 2
 240 440 241 418 253 405 c 0
 265 392 286 384 314 384 c 2
 359 384 l 1
 359 324 l 1
 314 324 l 2
 286 324 265 317 253 304 c 0
 241 291 240 268 248 237 c 2
 278 110 l 2
 286 84 286 59 277 36 c 0
 268 13 253 -6 232 -19 c 0
 211 -32 184 -39 149 -39 c 2
 64 -39 l 1
 64 23 l 1
 144 23 l 2
 170 23 189 30 201 44 c 0
 213 58 213 79 205 107 c 2
 178 216 l 2
 170 242 169 265 172 283 c 0
 175 301 182 315 194 327 c 0
 206 339 220 348 236 355 c 1
 220 362 206 369 194 381 c 0
 182 393 175 408 172 426 c 0
 169 444 170 466 177 492 c 2
 205 603 l 2
 213 631 213 651 201 665 c 0
 189 679 170 686 144 686 c 2
 64 686 l 1
 64 748 l 1
 149 748 l 2
EndSplineSet
Validated: 33
EndChar

StartChar: bracketleft.case
Encoding: 65666 -1 398
Width: 402
Flags: HW
HStem: -39 62<165 339> 686 62<165 339>
VStem: 93 72<23 686>
LayerCount: 3
Fore
SplineSet
93 -39 m 1
 93 748 l 1
 339 748 l 1
 339 686 l 1
 165 686 l 1
 165 23 l 1
 339 23 l 1
 339 -39 l 1
 93 -39 l 1
EndSplineSet
Validated: 1
EndChar

StartChar: bracketright.case
Encoding: 65667 -1 399
Width: 402
Flags: HW
HStem: -39 62<64 238> 686 62<64 238>
VStem: 238 72<23 686>
LayerCount: 3
Fore
SplineSet
310 748 m 1
 310 -39 l 1
 64 -39 l 1
 64 23 l 1
 238 23 l 1
 238 686 l 1
 64 686 l 1
 64 748 l 1
 310 748 l 1
EndSplineSet
Validated: 1
EndChar

StartChar: quoteleft
Encoding: 8216 8216 404
Width: 309
Flags: HW
HStem: 500 209<175 198>
VStem: 97 148
LayerCount: 3
Fore
SplineSet
198 500 m 5
 155 500 l 4
 97 500 l 1
 175 708 l 1
 245 708 l 1
 198 500 l 5
EndSplineSet
Validated: 1
Substitution2: "'ss01' Style Set 1 in Latin lookup 22 subtable" quoteleft.ss01
Substitution2: "'aalt' Access All Alternates in Latin lookup 0 subtable" quoteleft.ss01
EndChar

StartChar: quoteright
Encoding: 8217 8217 405
Width: 257
Flags: HW
HStem: 500 209<129 151>
VStem: 81 148
LayerCount: 3
Fore
SplineSet
151 500 m 1
 81 500 l 1
 129 708 l 1
 229 708 l 1
 151 500 l 1
EndSplineSet
Validated: 1
Substitution2: "'ss01' Style Set 1 in Latin lookup 22 subtable" quoteright.ss01
Substitution2: "'aalt' Access All Alternates in Latin lookup 0 subtable" quoteright.ss01
EndChar

StartChar: guillemotright
Encoding: 187 187 407
Width: 487
Flags: HW
LayerCount: 3
Fore
SplineSet
303 427 m 1
 429 247 l 1
 303 67 l 1
 226 67 l 1
 348 247 l 1
 226 427 l 1
 303 427 l 1
147 427 m 1
 274 247 l 1
 147 67 l 1
 69 67 l 1
 191 247 l 1
 69 427 l 1
 147 427 l 1
EndSplineSet
Validated: 1
EndChar

StartChar: guilsinglleft
Encoding: 8249 8249 408
Width: 331
Flags: HW
VStem: 59 205
LayerCount: 3
Fore
SplineSet
185 67 m 1
 59 247 l 1
 185 427 l 1
 264 427 l 1
 141 247 l 1
 264 67 l 1
 185 67 l 1
EndSplineSet
Validated: 1
EndChar

StartChar: guilsinglright
Encoding: 8250 8250 409
Width: 331
Flags: HW
VStem: 69 205
LayerCount: 3
Fore
SplineSet
147 67 m 1
 69 67 l 1
 191 247 l 1
 69 427 l 1
 147 427 l 1
 274 247 l 1
 147 67 l 1
EndSplineSet
Validated: 1
EndChar

StartChar: quotesingle
Encoding: 39 39 411
Width: 274
Flags: HW
HStem: 521 208<93 163>
VStem: 93 70<521 592.635>
LayerCount: 3
Fore
SplineSet
163 521 m 5
 93 521 l 5
 78 729 l 5
 183 729 l 5
 163 521 l 5
EndSplineSet
Validated: 1
EndChar

StartChar: quoteleft.ss01
Encoding: 65672 -1 416
Width: 266
Flags: HW
HStem: 486 110<101 178>
VStem: 79 116<505 579>
LayerCount: 3
Fore
SplineSet
139 486 m 0
 123 486 108 492 96 504 c 0
 84 516 79 538 79 568 c 0
 79 610 88 644 107 672 c 0
 126 700 153 718 190 728 c 1
 190 689 l 1
 168 682 153 670 141 655 c 0
 129 640 124 617 124 585 c 1
 101 582 l 1
 106 585 110 588 116 591 c 0
 122 594 127 596 134 596 c 0
 151 596 166 591 178 580 c 0
 190 569 195 556 195 541 c 0
 195 525 190 513 179 502 c 0
 168 491 154 486 139 486 c 0
EndSplineSet
Validated: 5
EndChar

StartChar: quoteright.ss01
Encoding: 65673 -1 417
Width: 257
Flags: HW
HStem: 504 39<74 117> 628 110<86 163>
VStem: 74 111<645 719>
LayerCount: 3
Fore
SplineSet
74 504 m 1
 74 544 l 1
 96 547 111 556 123 570 c 0
 135 584 140 607 140 639 c 1
 163 642 l 1
 158 639 154 635 148 632 c 0
 142 629 136 628 129 628 c 0
 112 628 97 633 86 644 c 0
 75 655 70 668 70 683 c 0
 70 699 74 712 85 723 c 0
 96 734 110 738 125 738 c 0
 141 738 155 732 167 720 c 0
 179 708 185 686 185 656 c 0
 185 614 175 580 156 553 c 0
 137 526 111 509 74 504 c 1
EndSplineSet
Validated: 5
EndChar

StartChar: less_hyphen.liga
Encoding: 65674 -1 418
Width: 823
GlyphClass: 3
LigCaretCntFixed: 1
Flags: HW
HStem: 320 69<168 764>
LayerCount: 3
Fore
SplineSet
764 320 m 1
 136 320 l 1
 168 346 l 1
 483 30 l 1
 387 30 l 1
 65 355 l 1
 388 679 l 1
 484 679 l 1
 168 362 l 1
 136 388 l 1
 764 388 l 1
 764 320 l 1
EndSplineSet
Validated: 5
Ligature2: "'liga' Standard Ligatures in Latin lookup 21 subtable" less hyphen
LCarets2: 1 406
EndChar

StartChar: at
Encoding: 64 64 419
Width: 836
Flags: HW
HStem: -10 59<288.453 557.438> 6 91<573.23 611.332> 150 63<331.175 442.615 563.881 652.21> 498 64<366.809 485.522> 659 60<332.176 577.305>
VStem: 54 63<212.014 445.731> 222 77<246.987 418.835> 533 12<441 466.584> 721 63<309.067 521.245>
LayerCount: 3
Fore
SplineSet
422 -10 m 0xbf80
 348 -10 284 4 229 32 c 0
 174 60 131 97 100 147 c 0
 69 197 54 255 54 322 c 0
 54 378 64 430 83 478 c 0
 102 526 131 567 168 604 c 0
 205 641 247 668 297 688 c 0
 347 708 400 719 459 719 c 0
 523 719 579 706 628 681 c 0
 677 656 715 622 743 578 c 0
 771 534 784 483 784 426 c 0
 784 389 779 354 768 320 c 0
 757 286 742 258 723 232 c 0
 704 206 682 185 657 171 c 0
 632 157 606 150 578 150 c 0
 558 150 540 153 526 163 c 0
 512 173 503 188 498 206 c 0
 493 224 493 246 501 272 c 1
 508 240 l 1
 491 211 470 188 445 173 c 0
 420 158 394 150 365 150 c 0
 323 150 288 165 261 195 c 0
 234 225 222 265 222 314 c 0
 222 348 226 378 237 408 c 0
 248 438 262 465 280 488 c 0
 298 511 321 529 345 542 c 0
 369 555 394 562 421 562 c 0
 459 562 490 551 513 529 c 0
 536 507 546 478 545 441 c 1
 533 441 l 1
 561 545 l 1
 636 545 l 1
 567 277 l 2
 561 254 560 236 565 224 c 0
 570 212 581 207 596 207 c 256
 611 207 627 212 641 224 c 0
 655 236 669 252 681 272 c 0
 693 292 703 314 710 340 c 0
 717 366 721 392 721 420 c 0
 721 468 709 510 687 546 c 0
 665 582 635 609 596 629 c 0
 557 649 510 659 457 659 c 0
 407 659 361 650 320 633 c 0
 279 616 242 593 212 562 c 0
 182 531 158 495 142 455 c 0
 126 415 117 370 117 324 c 0
 117 269 130 221 154 180 c 0
 178 139 212 107 257 84 c 0
 302 61 357 49 421 49 c 0xbf80
 457 49 491 53 527 62 c 0
 563 71 594 82 624 97 c 1
 648 46 l 1
 620 29 587 17 548 6 c 0x7f80
 509 -5 466 -10 422 -10 c 0xbf80
389 213 m 0
 406 213 422 218 437 228 c 0
 452 238 466 251 478 268 c 0
 490 285 500 304 507 325 c 0
 514 346 518 369 518 392 c 0
 518 424 509 450 493 469 c 0
 477 488 455 498 427 498 c 0
 410 498 393 493 378 484 c 0
 363 475 349 463 337 447 c 0
 325 431 316 411 309 390 c 0
 302 369 299 346 299 322 c 0
 299 288 308 261 324 242 c 0
 340 223 362 213 389 213 c 0
EndSplineSet
Validated: 37
EndChar

StartChar: ampersand
Encoding: 65675 -1 420
Width: 728
Flags: HW
HStem: -10 68<204 411> 0 21G<581 699> 653 65<249 386>
VStem: 51 79<127 285> 140 78<498 624> 421 76<502 620> 555 77<228 381>
LayerCount: 3
Fore
SplineSet
599 0 m 1x7e
 229 395 l 2
 208 417 191 438 178 456 c 0
 165 474 155 493 149 510 c 0
 143 527 140 546 140 564 c 0
 140 594 148 621 163 644 c 0
 178 667 200 686 227 699 c 0
 254 712 284 719 319 719 c 0
 353 719 382 712 409 700 c 0
 436 688 459 670 474 647 c 0
 489 624 497 598 497 566 c 0
 497 527 482 491 451 460 c 0
 420 429 374 403 311 381 c 1
 272 431 l 1
 322 444 358 462 383 484 c 0
 408 506 421 532 421 562 c 0
 421 590 411 612 391 628 c 0
 371 644 346 653 317 653 c 256
 288 653 264 644 246 629 c 0
 228 614 217 592 217 563 c 0
 217 550 221 537 226 524 c 0
 231 511 240 495 253 479 c 0
 266 463 284 441 308 416 c 2
 699 0 l 1
 599 0 l 1x7e
301 -10 m 0xbe
 251 -10 207 -1 170 16 c 0
 133 33 103 58 82 90 c 0
 61 122 51 160 51 202 c 0
 51 254 69 299 105 338 c 0
 141 377 189 406 251 421 c 1
 293 372 l 1
 256 363 228 351 204 336 c 0
 180 321 161 303 149 282 c 0
 137 261 130 237 130 209 c 0
 130 161 145 123 177 97 c 0
 209 71 251 58 304 58 c 0
 344 58 379 66 410 79 c 0
 441 92 467 112 489 140 c 0
 511 168 526 202 538 242 c 0
 550 282 555 328 555 381 c 1
 632 381 l 1
 632 331 627 286 616 245 c 0
 605 204 590 167 571 135 c 0
 552 103 527 77 499 56 c 0
 471 35 442 19 408 7 c 0
 374 -5 339 -10 301 -10 c 0xbe
EndSplineSet
Validated: 5
Substitution2: "'calt' Contextual Alternates in Latin lookup 32 subtable" ampersand
Substitution2: "'aalt' Access All Alternates in Latin lookup 0 subtable" ampersand
EndChar

StartChar: paragraph
Encoding: 182 182 421
Width: 684
Flags: HW
HStem: 647 62<409 532>
VStem: 45 364<418 608> 346 64<-128 321> 532 65<-128 647>
LayerCount: 3
Fore
SplineSet
346 -128 m 1xb0
 346 321 l 1xb0
 238 321 l 2
 201 321 167 329 138 345 c 0
 109 361 86 383 70 412 c 0
 54 441 45 474 45 511 c 0xd0
 45 549 54 584 70 614 c 0
 86 644 109 667 139 683 c 0
 169 699 203 708 241 708 c 2
 598 708 l 1
 598 -128 l 1
 532 -128 l 1
 532 647 l 1
 409 647 l 1
 409 -128 l 1
 346 -128 l 1xb0
EndSplineSet
Validated: 1
EndChar

StartChar: section
Encoding: 167 167 422
Width: 482
Flags: HW
HStem: -69 64<163 310> 175 54<256 290> 421 54<192 226> 654 64<173 319>
VStem: 46 74<285 393> 53 75<30 80> 74 73<526 629> 334 74<19 126> 354 74<570 620> 362 74<258 363>
LayerCount: 3
Fore
SplineSet
254 175 m 1xf240
 256 230 l 1
 289 230 316 238 334 252 c 0
 352 266 362 286 362 310 c 0
 362 331 356 348 344 362 c 0
 332 376 311 388 281 397 c 2
 189 424 l 2
 152 435 125 453 105 479 c 0
 85 505 74 537 74 575 c 0xf240
 74 617 89 651 120 678 c 0
 151 705 193 719 246 719 c 0
 299 719 341 705 374 679 c 0
 407 653 424 617 428 570 c 1
 354 570 l 1xf880
 350 598 339 618 320 632 c 0
 301 646 275 654 243 654 c 0
 213 654 189 646 172 633 c 0
 155 620 147 601 147 579 c 0
 147 558 153 541 165 527 c 0
 177 513 199 500 228 490 c 2
 303 466 l 2
 346 453 378 433 401 407 c 0
 424 381 436 349 436 309 c 0
 436 267 420 233 388 210 c 0
 356 187 311 175 254 175 c 1xf240
236 -69 m 256
 183 -69 141 -56 109 -30 c 0
 77 -4 58 34 53 80 c 1
 128 80 l 1xf5
 132 52 143 30 162 16 c 0
 181 2 207 -5 239 -5 c 0
 270 -5 294 2 310 15 c 0
 326 28 334 48 334 70 c 0
 334 92 329 110 317 124 c 0
 305 138 284 150 254 160 c 2
 179 183 l 2
 135 196 102 216 80 242 c 0
 58 268 46 301 46 340 c 0
 46 383 62 417 94 440 c 0
 126 463 171 476 228 476 c 1
 226 421 l 1
 193 421 166 413 148 399 c 0
 130 385 120 364 120 340 c 0
 120 318 126 300 138 286 c 0
 150 272 171 262 201 253 c 2
 293 225 l 2
 330 214 357 197 377 171 c 0
 397 145 408 114 408 76 c 0xf9
 408 34 392 -2 361 -29 c 0
 330 -56 289 -69 236 -69 c 256
EndSplineSet
Validated: 5
EndChar

StartChar: copyright
Encoding: 169 169 423
Width: 845
Flags: HW
HStem: -14 37<315 531> 137 43<346 501> 528 43<347 500> 686 37<315 531>
VStem: 54 39<242 466> 226 49<258 450> 555 48<235 293 415 473> 752 39<242 466>
LayerCount: 3
Fore
SplineSet
423 -14 m 256
 372 -14 323 -6 279 13 c 0
 235 32 196 59 162 93 c 0
 128 127 101 166 82 210 c 0
 63 254 54 304 54 355 c 256
 54 406 63 454 82 498 c 0
 101 542 128 582 162 616 c 0
 196 650 235 676 279 695 c 0
 323 714 372 724 423 724 c 256
 474 724 523 714 567 695 c 0
 611 676 650 650 684 616 c 0
 718 582 745 542 764 498 c 0
 783 454 792 406 792 355 c 256
 792 304 783 254 764 210 c 0
 745 166 718 127 684 93 c 0
 650 59 611 32 567 13 c 0
 523 -6 474 -14 423 -14 c 256
423 23 m 256
 468 23 511 32 551 49 c 0
 591 66 626 89 656 120 c 0
 686 151 710 187 727 227 c 0
 744 267 752 310 752 355 c 256
 752 400 744 442 727 482 c 0
 710 522 686 557 656 588 c 0
 626 619 591 643 551 660 c 0
 511 677 468 686 423 686 c 256
 378 686 335 677 295 660 c 0
 255 643 220 619 190 588 c 0
 160 557 136 522 119 482 c 0
 102 442 93 400 93 355 c 256
 93 310 102 267 119 227 c 0
 136 187 160 151 190 120 c 0
 220 89 255 66 295 49 c 0
 335 32 378 23 423 23 c 256
425 137 m 0
 387 137 352 148 322 166 c 0
 292 184 268 209 251 242 c 0
 234 275 226 313 226 355 c 256
 226 397 234 433 251 466 c 0
 268 499 292 525 322 543 c 0
 352 561 386 571 424 571 c 0
 471 571 511 557 544 528 c 0
 577 499 595 461 602 415 c 1
 554 415 l 1
 549 450 536 478 513 498 c 0
 490 518 461 528 425 528 c 0
 380 528 344 512 316 480 c 0
 288 448 275 406 275 355 c 0
 275 303 288 261 316 229 c 0
 344 197 380 181 424 181 c 0
 461 181 491 191 514 211 c 0
 537 231 550 259 555 293 c 1
 603 293 l 1
 596 246 577 208 545 180 c 0
 513 152 473 137 425 137 c 0
EndSplineSet
Validated: 1
EndChar

StartChar: registered
Encoding: 174 174 424
Width: 845
Flags: HW
HStem: -14 37<315 531> 332 39<321 475> 339 15<477 508> 524 42<333 510> 686 37<315 531>
VStem: 54 39<242 466> 285 48<142 332 371 524> 321 12<332 371> 529 48<143 310> 536 48<142 192 396 501> 752 39<242 466>
LayerCount: 3
Fore
SplineSet
423 -14 m 256x9c20
 372 -14 323 -6 279 13 c 0
 235 32 196 59 162 93 c 0
 128 127 101 166 82 210 c 0
 63 254 54 304 54 355 c 256
 54 406 63 454 82 498 c 0
 101 542 128 582 162 616 c 0
 196 650 235 676 279 695 c 0
 323 714 372 724 423 724 c 256
 474 724 523 714 567 695 c 0
 611 676 650 650 684 616 c 0
 718 582 745 542 764 498 c 0
 783 454 792 406 792 355 c 256
 792 304 783 254 764 210 c 0
 745 166 718 127 684 93 c 0
 650 59 611 32 567 13 c 0
 523 -6 474 -14 423 -14 c 256x9c20
423 23 m 256
 468 23 511 32 551 49 c 0
 591 66 626 89 656 120 c 0
 686 151 710 187 727 227 c 0
 744 267 752 310 752 355 c 256
 752 400 744 442 727 482 c 0
 710 522 686 557 656 588 c 0
 626 619 591 643 551 660 c 0
 511 677 468 686 423 686 c 256
 378 686 335 677 295 660 c 0
 255 643 220 619 190 588 c 0
 160 557 136 522 119 482 c 0
 102 442 93 400 93 355 c 256
 93 310 102 267 119 227 c 0
 136 187 160 151 190 120 c 0
 220 89 255 66 295 49 c 0
 335 32 378 23 423 23 c 256
285 142 m 1xde60
 285 566 l 1
 442 566 l 2
 486 566 520 556 546 535 c 0
 572 514 584 487 584 451 c 0
 584 393 548 355 472 339 c 1
 477 356 l 1xbe60
 508 357 532 348 550 332 c 0
 568 316 577 292 577 262 c 2
 577 193 l 2
 577 185 577 179 578 170 c 0
 579 161 580 152 582 142 c 1
 533 142 l 1
 532 148 531 155 530 164 c 0
 529 173 529 182 529 193 c 2
 529 253 l 2
 529 279 521 298 507 311 c 0
 493 324 472 332 445 332 c 2
 321 332 l 1
 321 371 l 1xdda0
 440 371 l 2
 471 371 495 379 511 392 c 0
 527 405 536 425 536 449 c 256
 536 473 527 492 511 504 c 0
 495 516 471 524 440 524 c 2
 333 524 l 1
 333 142 l 1
 285 142 l 1xde60
EndSplineSet
Validated: 37
EndChar

StartChar: trademark
Encoding: 8482 8482 425
Width: 818
Flags: HW
HStem: 654 54<64 175 238 351> 654 41<175 238>
VStem: 175 63<355 696> 436 10<659 682> 692 11<662 685>
LayerCount: 3
Fore
SplineSet
175 355 m 1x78
 175 696 l 1
 238 696 l 1
 238 355 l 1
 175 355 l 1x78
64 654 m 1xb8
 64 708 l 1
 351 708 l 1
 351 654 l 1
 64 654 l 1xb8
387 355 m 1
 387 708 l 1
 481 708 l 1
 588 368 l 1
 552 368 l 1
 659 708 l 1
 755 708 l 1
 755 355 l 1
 692 355 l 1
 692 685 l 1
 702 685 l 1
 602 355 l 1
 536 355 l 1
 436 682 l 1
 446 682 l 1
 446 355 l 1
 387 355 l 1
EndSplineSet
Validated: 5
EndChar

StartChar: degree
Encoding: 176 176 426
Width: 390
Flags: HW
HStem: 442 48<136 255> 675 48<136 255>
VStem: 55 49<523 643> 287 49<523 643>
LayerCount: 3
Fore
SplineSet
197 442 m 0
 171 442 147 449 125 461 c 0
 103 473 86 491 74 513 c 0
 62 535 55 557 55 583 c 256
 55 609 62 632 74 653 c 0
 86 674 103 692 125 704 c 0
 147 716 171 724 197 724 c 0
 224 724 248 716 269 704 c 0
 290 692 306 674 318 653 c 0
 330 632 336 609 336 583 c 256
 336 557 330 535 318 513 c 0
 306 491 290 473 269 461 c 0
 248 449 224 442 197 442 c 0
197 490 m 0
 223 490 244 499 261 517 c 0
 278 535 287 557 287 583 c 0
 287 609 278 632 261 649 c 0
 244 666 223 675 197 675 c 0
 170 675 147 666 130 649 c 0
 113 632 105 609 105 583 c 0
 105 557 113 535 130 517 c 0
 147 499 170 490 197 490 c 0
EndSplineSet
Validated: 1
EndChar

StartChar: bar
Encoding: 124 124 427
Width: 244
Flags: HW
VStem: 88 68<-128 777>
LayerCount: 3
Fore
SplineSet
88 -128 m 1
 88 777 l 1
 156 777 l 1
 156 -128 l 1
 88 -128 l 1
EndSplineSet
Validated: 1
EndChar

StartChar: ampersand
Encoding: 38 38 428
Width: 708
Flags: HW
HStem: 0 64<195.006 504> 339 65<239.066 682> 363 20<140.417 232> 649 69<217.934 446.068>
VStem: 43 93<120.521 277.845> 72 92<455.953 599.655> 464 80<64 537> 464 40<0 64>
LayerCount: 3
Fore
SplineSet
448 637 m 1xb4
 414.19140625 648.26953125 375.466796875 649 321 649 c 4
 285.81640625 649 164 649 164 529 c 4xb4
 164 506.354492188 170.708984375 404 292 404 c 6
 682 404 l 1
 682 339 l 1
 272 339 l 2
 171.766601562 339 136 258.474609375 136 198 c 0
 136 123.993164062 185.9921875 64 265 64 c 2
 504 64 l 1
 504 0 l 1
 256 0 l 2
 144.680664062 0 43 63.234375 43 190 c 0xd9
 43 296.893554688 118.2109375 383 232 383 c 1
 236 363 l 1
 140.416992188 363 72 438.891601562 72 536 c 0
 72 595.815429688 98.498046875 718 315 718 c 0
 339.58984375 718 399.654296875 717.115234375 448 701 c 1
 448 637 l 1xb4
464 0 m 1x91
 464 537 l 1
 544 588 l 1
 544 0 l 1x92
 464 0 l 1x91
EndSplineSet
Validated: 5
EndChar

StartChar: cent
Encoding: 162 162 429
Width: 516
GlyphClass: 2
Flags: HW
HStem: -10 30<240 303> 475 37<240 303>
VStem: 45 79<144 361> 240 63<-108 19 475 606> 405 72<112 167 333 387>
AnchorPoint: "Anchor-2" 271 0 basechar 0
AnchorPoint: "Anchor-0" 275 502 basechar 0
LayerCount: 3
Fore
SplineSet
240 475 m 1
 240 606 l 1
 303 606 l 1
 303 475 l 1
 240 475 l 1
303 19 m 1
 303 -108 l 1
 240 -108 l 1
 240 19 l 1
 303 19 l 1
274 -10 m 0
 230 -10 189 2 155 24 c 0
 121 46 94 77 75 116 c 0
 56 155 45 202 45 253 c 256
 45 304 56 349 75 387 c 0
 94 425 120 457 155 479 c 0
 190 501 230 511 274 511 c 0
 311 511 342 504 371 490 c 0
 400 476 424 455 442 428 c 0
 460 401 471 370 476 333 c 1
 404 333 l 1
 398 367 384 394 362 415 c 0
 340 436 312 446 275 446 c 0
 244 446 217 437 195 422 c 0
 173 407 155 385 143 356 c 0
 131 327 124 292 124 253 c 256
 124 214 131 180 143 150 c 0
 155 120 172 97 195 81 c 0
 218 65 245 56 276 56 c 0
 311 56 339 66 362 87 c 0
 385 108 399 134 405 167 c 1
 477 167 l 1
 472 132 460 102 441 75 c 0
 422 48 399 26 370 12 c 0
 341 -2 310 -10 274 -10 c 0
EndSplineSet
Validated: 1048581
Substitution2: "'ss12' Style Set 12 in Latin lookup 33 subtable" cent.ss12
Substitution2: "'aalt' Access All Alternates in Latin lookup 0 subtable" cent.ss12
EndChar

StartChar: dollar
Encoding: 36 36 430
Width: 584
GlyphClass: 2
Flags: HW
HStem: -9 75<216.988 386.549> 505 21G<419 509> 645 75<221.761 380.858>
VStem: 83 91<105.236 227> 108 85<463.208 616.183> 268 63<-108 344 380 817> 419 86<505 609.556> 429 84<106.92 261.241>
AnchorPoint: "Anchor-2" 302 0 basechar 0
AnchorPoint: "Anchor-0" 302 708 basechar 0
LayerCount: 3
Fore
SplineSet
296 -9 m 4xed
 145 -9 59 87 83 227 c 5
 174 227 l 5
 162 179 166 140 187 112 c 4
 195 101 206 93 218 86 c 4
 241 74 269 66 304 66 c 4
 388 66 429 105 429 183 c 4xf5
 429 245 404 284 350 304 c 6
 251 340 l 6
 157 375 108 440 108 533 c 4
 108 647 184 720 305 720 c 4
 377 720 438 695 473 650 c 4
 502 613 513 563 505 505 c 5
 419 505 l 5xee
 436 593 391 645 296 645 c 4
 223 645 193 615 193 543 c 4
 193 478 216 442 275 419 c 6
 380 379 l 6
 466 345 513 277 513 188 c 4
 513 68 428 -9 296 -9 c 4xed
268 380 m 1
 268 817 l 1
 331 817 l 1
 331 380 l 1
 268 380 l 1
331 344 m 1
 331 231 l 0
 331 -108 l 1
 268 -108 l 1
 268 344 l 1
 331 344 l 1
EndSplineSet
Validated: 1048613
Substitution2: "'ss12' Style Set 12 in Latin lookup 33 subtable" dollar.ss12
Substitution2: "'aalt' Access All Alternates in Latin lookup 0 subtable" dollar.ss12
EndChar

StartChar: Euro
Encoding: 8364 8364 431
Width: 672
Flags: HW
HStem: -10 72<297 475> 251 65<20 442> 395 66<20 469> 647 72<297 475>
VStem: 91 82<317 394> 540 84<121 172 536 585>
LayerCount: 3
Fore
SplineSet
385 -10 m 0
 343 -10 304 -1 268 16 c 0
 232 33 201 59 175 92 c 0
 149 125 127 164 113 208 c 0
 99 252 91 301 91 355 c 256
 91 409 99 458 113 502 c 0
 127 546 149 584 175 617 c 0
 201 650 230 675 266 692 c 0
 302 709 339 719 381 719 c 0
 421 719 460 710 493 696 c 0
 526 682 553 660 576 633 c 0
 599 606 614 573 622 536 c 1
 539 536 l 1
 532 571 515 599 487 618 c 0
 459 637 425 647 385 647 c 0
 343 647 306 634 274 610 c 0
 242 586 216 551 199 508 c 0
 182 465 173 414 173 355 c 0
 173 296 183 245 200 201 c 0
 217 157 242 122 274 98 c 0
 306 74 342 62 383 62 c 0
 423 62 459 72 488 91 c 0
 517 110 533 137 540 172 c 1
 623 172 l 1
 615 134 600 102 578 75 c 0
 556 48 529 26 495 12 c 0
 461 -2 425 -10 385 -10 c 0
6 395 m 1
 20 460 l 1
 481 460 l 1
 469 395 l 1
 6 395 l 1
6 251 m 1
 20 316 l 1
 455 316 l 1
 442 251 l 1
 6 251 l 1
EndSplineSet
Validated: 5
EndChar

StartChar: sterling
Encoding: 163 163 432
Width: 568
Flags: HW
HStem: 0 70<106 496> 305 65<26 425> 649 70<196 375>
VStem: 64 78<431 596> 136 74<178 305> 438 78<523 586>
LayerCount: 3
Fore
SplineSet
58 0 m 1xec
 58 70 l 1
 88 116 108 156 120 189 c 0
 132 222 136 251 136 275 c 0xec
 136 299 134 320 126 338 c 0
 118 356 111 376 101 393 c 0
 91 410 83 429 75 450 c 0
 67 471 64 496 64 525 c 0
 64 563 73 596 89 626 c 0
 105 656 130 678 163 694 c 0
 196 710 236 719 283 719 c 0
 329 719 369 710 403 694 c 0
 437 678 463 655 482 625 c 0
 501 595 513 561 516 523 c 1
 438 523 l 1
 433 565 417 596 390 617 c 0
 363 638 328 649 286 649 c 0
 239 649 204 636 179 613 c 0
 154 590 142 559 142 521 c 0xf4
 142 499 145 477 152 459 c 0
 159 441 166 422 176 404 c 0
 186 386 194 367 201 347 c 0
 208 327 210 305 210 280 c 0
 210 250 202 215 188 176 c 0
 174 137 146 91 106 36 c 1
 104 70 l 1
 496 70 l 1
 496 0 l 1
 58 0 l 1xec
26 305 m 1
 26 370 l 1
 425 370 l 1
 425 305 l 1
 26 305 l 1
EndSplineSet
Validated: 5
EndChar

StartChar: yen
Encoding: 165 165 433
Width: 592
Flags: HW
HStem: 0 21G<256 336> 251 65<54 539> 395 66<54 218 389 539> 689 19G<29 135 466 565>
VStem: 256 80<0 322>
LayerCount: 3
Fore
SplineSet
256 0 m 1
 256 322 l 1
 29 708 l 1
 124 708 l 1
 319 369 l 1
 282 369 l 1
 477 708 l 1
 565 708 l 1
 336 322 l 1
 336 0 l 1
 256 0 l 1
54 251 m 1
 54 316 l 1
 539 316 l 1
 539 251 l 1
 54 251 l 1
253 395 m 1
 54 395 l 1
 54 460 l 1
 218 460 l 1
 253 395 l 1
389 460 m 1
 539 460 l 1
 539 395 l 1
 349 395 l 1
 389 460 l 1
EndSplineSet
Validated: 5
EndChar

StartChar: cent.ss12
Encoding: 65676 -1 434
Width: 516
Flags: HW
HStem: -10 65<200 351> 447 65<198 352>
VStem: 45 78<143 362> 240 63<-108 606> 406 71<112 167 333 388>
LayerCount: 3
Fore
SplineSet
274 -10 m 0
 230 -10 189 2 155 24 c 0
 121 46 94 77 75 116 c 0
 56 155 45 202 45 253 c 256
 45 304 56 349 75 387 c 0
 94 425 120 457 155 479 c 0
 190 501 230 511 274 511 c 0
 311 511 342 504 371 490 c 0
 400 476 424 455 442 428 c 0
 460 401 471 370 476 333 c 1
 405 333 l 1
 399 367 385 395 363 416 c 0
 341 437 312 447 275 447 c 0
 229 447 192 430 164 395 c 0
 136 360 123 313 123 253 c 0
 123 194 136 147 164 110 c 0
 192 73 230 55 276 55 c 0
 311 55 339 65 362 86 c 0
 385 107 400 133 406 167 c 1
 477 167 l 1
 472 132 460 102 441 75 c 0
 422 48 399 26 370 12 c 0
 341 -2 310 -10 274 -10 c 0
240 -108 m 1
 240 13 l 1
 240 35 l 1
 240 466 l 1
 240 489 l 1
 240 606 l 1
 303 606 l 1
 303 486 l 1
 302 465 l 1
 302 35 l 1
 303 17 l 1
 303 -108 l 1
 240 -108 l 1
EndSplineSet
Validated: 5
EndChar

StartChar: dollar.ss12
Encoding: 65677 -1 435
Width: 584
Flags: HW
HStem: -9 69<212 415> 505 21G<450 530> 651 69<200 387>
VStem: 45 77<152 227> 76 77<478 606> 269 63<-108 817> 454 76<505 576> 463 77<105 245>
LayerCount: 3
Fore
SplineSet
317 -9 m 0xed
 237 -9 173 12 127 52 c 0
 81 92 53 151 45 227 c 1
 122 227 l 1
 129 172 147 130 180 102 c 0
 213 74 258 60 316 60 c 0
 365 60 401 70 426 89 c 0
 451 108 463 137 463 174 c 0xf5
 463 206 455 232 438 251 c 0
 421 270 395 287 358 300 c 2
 242 345 l 2
 185 367 143 393 116 423 c 0
 89 453 76 491 76 535 c 0
 76 572 86 605 104 632 c 0
 122 659 147 681 180 696 c 0
 213 711 253 720 297 720 c 0
 365 720 420 701 461 664 c 0
 502 627 525 573 530 505 c 1
 454 505 l 1xee
 446 555 429 593 404 616 c 0
 379 639 343 651 295 651 c 0
 250 651 215 641 190 623 c 0
 165 605 153 577 153 542 c 0
 153 513 162 489 179 471 c 0
 196 453 223 436 260 423 c 2
 383 375 l 2
 435 356 474 329 500 296 c 0
 526 263 540 223 540 175 c 0
 540 116 520 71 481 39 c 0
 442 7 388 -9 317 -9 c 0xed
269 -108 m 1
 269 13 l 1
 270 35 l 1
 270 677 l 1
 269 700 l 1
 269 817 l 1
 331 817 l 1
 331 697 l 1
 331 676 l 1
 331 35 l 1
 331 17 l 1
 331 -108 l 1
 269 -108 l 1
EndSplineSet
Validated: 5
EndChar

StartChar: plus
Encoding: 43 43 436
Width: 533
Flags: HW
HStem: 332 66<65 470>
VStem: 234 67<151 580>
LayerCount: 3
Fore
SplineSet
234 151 m 1
 234 580 l 1
 301 580 l 1
 301 151 l 1
 234 151 l 1
65 332 m 1
 65 398 l 1
 470 398 l 1
 470 332 l 1
 65 332 l 1
EndSplineSet
Validated: 5
Substitution2: "'tnum' Tabular Numbers in Latin lookup 19 subtable" plus.tf
Substitution2: "'aalt' Access All Alternates in Latin lookup 0 subtable" plus.tf
EndChar

StartChar: minus
Encoding: 8722 8722 437
Width: 533
Flags: HW
HStem: 332 65<65 470>
LayerCount: 3
Fore
SplineSet
65 332 m 1
 65 398 l 1
 470 398 l 1
 470 332 l 1
 65 332 l 1
EndSplineSet
Validated: 1
Substitution2: "'tnum' Tabular Numbers in Latin lookup 19 subtable" minus.tf
Substitution2: "'aalt' Access All Alternates in Latin lookup 0 subtable" minus.tf
EndChar

StartChar: multiply
Encoding: 215 215 438
Width: 533
Flags: HW
LayerCount: 3
Fore
SplineSet
415 171 m 1
 73 514 l 1
 119 560 l 1
 461 217 l 1
 415 171 l 1
119 171 m 1
 73 217 l 1
 415 560 l 1
 461 514 l 1
 119 171 l 1
EndSplineSet
Validated: 5
Substitution2: "'tnum' Tabular Numbers in Latin lookup 19 subtable" multiply.tf
Substitution2: "'aalt' Access All Alternates in Latin lookup 0 subtable" multiply.tf
EndChar

StartChar: divide
Encoding: 247 247 439
Width: 533
Flags: HW
HStem: 146 112<228 306> 332 65<65 470> 474 111<228 306>
VStem: 211 111<161 241 489 569>
LayerCount: 3
Fore
SplineSet
65 332 m 1
 65 398 l 1
 470 398 l 1
 470 332 l 1
 65 332 l 1
268 474 m 0
 252 474 239 477 228 488 c 0
 217 499 211 512 211 529 c 0
 211 545 217 558 228 569 c 0
 239 580 252 584 268 584 c 0
 283 584 295 580 306 569 c 0
 317 558 323 545 323 529 c 0
 323 512 317 499 306 488 c 0
 295 477 283 474 268 474 c 0
268 146 m 0
 252 146 239 149 228 160 c 0
 217 171 211 185 211 202 c 0
 211 218 217 231 228 242 c 0
 239 253 252 258 268 258 c 0
 283 258 295 253 306 242 c 0
 317 231 323 218 323 202 c 0
 323 185 317 171 306 160 c 0
 295 149 283 146 268 146 c 0
EndSplineSet
Validated: 1
Substitution2: "'tnum' Tabular Numbers in Latin lookup 19 subtable" divide.tf
Substitution2: "'aalt' Access All Alternates in Latin lookup 0 subtable" divide.tf
EndChar

StartChar: equal
Encoding: 61 61 440
Width: 533
Flags: HW
HStem: 234 65<65 470> 431 65<65 470>
LayerCount: 3
Fore
SplineSet
65 431 m 1
 65 496 l 1
 470 496 l 1
 470 431 l 1
 65 431 l 1
65 234 m 1
 65 299 l 1
 470 299 l 1
 470 234 l 1
 65 234 l 1
EndSplineSet
Validated: 1
Substitution2: "'tnum' Tabular Numbers in Latin lookup 19 subtable" equal.tf
Substitution2: "'aalt' Access All Alternates in Latin lookup 0 subtable" equal.tf
EndChar

StartChar: greater
Encoding: 62 62 441
Width: 533
Flags: HW
LayerCount: 3
Fore
SplineSet
60 170 m 5
 60 240 l 5
 417 377 l 5
 417 353 l 5
 60 480 l 5
 60 550 l 5
 475 403 l 5
 475 328 l 5
 60 170 l 5
EndSplineSet
Validated: 5
Substitution2: "'tnum' Tabular Numbers in Latin lookup 19 subtable" greater.tf
Substitution2: "'aalt' Access All Alternates in Latin lookup 0 subtable" greater.tf
EndChar

StartChar: less
Encoding: 60 60 442
Width: 533
Flags: HW
LayerCount: 3
Fore
SplineSet
475 560 m 5
 475 490 l 5
 117 354 l 5
 117 378 l 5
 475 250 l 5
 475 180 l 5
 60 328 l 5
 60 403 l 5
 475 560 l 5
EndSplineSet
Validated: 5
Substitution2: "'tnum' Tabular Numbers in Latin lookup 19 subtable" less.tf
Substitution2: "'aalt' Access All Alternates in Latin lookup 0 subtable" less.tf
EndChar

StartChar: asciitilde
Encoding: 126 126 443
Width: 533
Flags: HW
HStem: 292 60<296.143 431.707> 353 58<103.074 232.985>
VStem: 32 54<302 339.614>
LayerCount: 3
Fore
SplineSet
378 292 m 0
 402 292 424 296 440 305 c 0
 456 314 470 325 481 341 c 0
 492 357 498 378 501 402 c 1
 449 402 l 1
 446 385 438 372 427 363 c 0
 416 354 403 352 387 352 c 0
 370 352 351 354 334 360 c 0
 317 366 297 372 279 381 c 0
 261 390 241 397 220 403 c 0
 199 409 178 411 155 411 c 0
 131 411 110 408 94 399 c 0
 78 390 65 378 54 362 c 0
 43 346 36 326 32 302 c 1
 86 302 l 1
 89 319 96 332 107 340 c 0
 118 348 133 353 148 353 c 0
 166 353 185 349 202 343 c 0
 219 337 236 331 254 322 c 0
 272 313 293 307 313 301 c 0
 333 295 354 292 378 292 c 0
EndSplineSet
Validated: 9
EndChar

StartChar: asciicircum
Encoding: 94 94 444
Width: 533
Flags: HW
HStem: 483 245
LayerCount: 3
Fore
SplineSet
146 483 m 1
 83 483 l 1
 230 728 l 1
 304 728 l 1
 450 483 l 1
 390 483 l 1
 248 688 l 1
 286 688 l 1
 146 483 l 1
EndSplineSet
Validated: 5
EndChar

StartChar: percent
Encoding: 37 37 445
Width: 763
Flags: HW
HStem: -10 54<513.877 621.835> 0 21G<84 178.718> 297 55<513.551 621.512> 358 53<141.718 248.806> 664 55<140.899 249.487> 688 20G<590.282 685>
VStem: 40 67<447.847 628.225> 284 68<449.752 627.021> 412 69<79.271 262.945> 657 68<82.2539 258.766>
LayerCount: 3
Fore
SplineSet
84 0 m 1x77c0
 605 708 l 1
 685 708 l 1
 164 0 l 1
 84 0 l 1x77c0
568 -10 m 0xb3c0
 541 -10 516 -3 492 10 c 0
 468 23 448 42 434 69 c 0
 420 96 412 130 412 171 c 0
 412 211 420 245 434 272 c 0
 448 299 467 319 491 332 c 0
 515 345 540 352 568 352 c 0
 597 352 623 345 647 332 c 0
 671 319 690 299 704 272 c 0
 718 245 725 211 725 171 c 0
 725 130 717 96 703 69 c 0
 689 42 669 23 645 10 c 0
 621 -3 596 -10 568 -10 c 0xb3c0
568 44 m 256
 594 44 616 55 632 77 c 0
 648 99 657 131 657 172 c 0
 657 212 648 242 632 264 c 0
 616 286 594 297 568 297 c 256
 542 297 519 286 504 265 c 0
 489 244 481 212 481 172 c 0
 481 130 489 99 504 77 c 0
 519 55 542 44 568 44 c 256
196 358 m 256
 168 358 143 366 119 378 c 0
 95 390 75 410 61 437 c 0
 47 464 40 498 40 538 c 0
 40 579 47 614 61 640 c 0
 75 666 94 686 118 699 c 0
 142 712 168 719 196 719 c 0x3bc0
 225 719 251 712 275 699 c 0
 299 686 317 666 331 640 c 0
 345 614 352 579 352 538 c 0
 352 498 344 464 330 437 c 0
 316 410 297 390 273 378 c 0
 249 366 224 358 196 358 c 256
196 411 m 0
 222 411 243 422 259 444 c 0
 275 466 284 498 284 539 c 0
 284 579 275 611 259 632 c 0
 243 653 222 664 196 664 c 256
 170 664 147 653 131 632 c 0
 115 611 107 580 107 539 c 256
 107 498 115 466 131 444 c 0
 147 422 170 411 196 411 c 0
EndSplineSet
Validated: 1
Substitution2: "'tnum' Tabular Numbers in Latin lookup 19 subtable" percent.tf
Substitution2: "'aalt' Access All Alternates in Latin lookup 0 subtable" percent.tf
EndChar

StartChar: perthousand
Encoding: 8240 8240 446
Width: 829
Flags: HW
HStem: -10 53<436 516 628 706> 0 21G<69 157> 298 53<436 516 627 707> 358 52<128 217> 665 53<127 218> 689 19G<502 589>
VStem: 35 63<443 633> 247 63<444 632> 349 63<74 269> 548 47<110 233> 732 63<74 269>
LayerCount: 3
Fore
SplineSet
172 358 m 256x3be0
 148 358 126 366 105 378 c 0
 84 390 66 410 54 437 c 0
 42 464 35 498 35 538 c 0
 35 579 42 614 54 640 c 0
 66 666 83 686 104 699 c 0
 125 712 147 719 172 719 c 0
 210 719 243 704 270 675 c 0
 297 646 310 600 310 538 c 0
 310 498 303 464 290 437 c 0
 277 410 260 390 239 378 c 0
 218 366 196 358 172 358 c 256x3be0
172 410 m 0
 194 410 212 421 226 443 c 0
 240 465 247 497 247 539 c 0
 247 579 240 610 227 632 c 0
 214 654 194 665 172 665 c 256
 150 665 132 654 119 633 c 0
 106 612 99 580 99 539 c 0
 99 497 106 465 119 443 c 0
 132 421 150 410 172 410 c 0
69 0 m 1x77e0
 515 708 l 1
 589 708 l 1
 145 0 l 1
 69 0 l 1x77e0
476 -10 m 0xb3e0
 455 -10 435 -3 415 10 c 0
 395 23 379 42 367 69 c 0
 355 96 349 130 349 171 c 0
 349 211 355 245 367 272 c 0
 379 299 395 319 414 332 c 0
 433 345 454 352 476 352 c 0
 510 352 538 337 561 307 c 0
 584 277 596 232 596 171 c 0
 596 109 584 65 560 35 c 0
 536 5 508 -10 476 -10 c 0xb3e0
476 43 m 0
 495 43 512 54 524 76 c 0
 536 98 542 130 542 172 c 0
 542 212 536 243 524 265 c 0
 512 287 495 298 476 298 c 256
 457 298 441 287 429 266 c 0
 417 245 411 213 411 172 c 0
 411 130 417 98 429 76 c 0
 441 54 457 43 476 43 c 0
667 43 m 0
 686 43 703 54 715 76 c 0
 727 98 732 130 732 172 c 0
 732 213 727 245 715 266 c 0
 703 287 686 298 667 298 c 0
 648 298 632 287 620 265 c 0
 608 243 601 212 601 172 c 0
 601 130 609 98 621 76 c 0
 633 54 649 43 667 43 c 0
667 -10 m 0
 635 -10 607 5 583 35 c 0
 559 65 548 109 548 171 c 0
 548 232 559 277 582 307 c 0
 605 337 633 352 667 352 c 0
 689 352 710 345 729 332 c 0
 748 319 765 299 777 272 c 0
 789 245 795 211 795 171 c 0
 795 130 789 96 777 69 c 0
 765 42 748 23 729 10 c 0
 710 -3 689 -10 667 -10 c 0
EndSplineSet
Validated: 5
Substitution2: "'tnum' Tabular Numbers in Latin lookup 19 subtable" perthousand.tf
Substitution2: "'aalt' Access All Alternates in Latin lookup 0 subtable" perthousand.tf
EndChar

StartChar: plus.tf
Encoding: 65678 -1 447
Width: 589
Flags: HW
HStem: 332 65<80 511>
VStem: 262 67<151 580>
LayerCount: 3
Fore
SplineSet
262 151 m 1
 262 580 l 1
 328 580 l 1
 328 151 l 1
 262 151 l 1
80 332 m 1
 80 398 l 1
 511 398 l 1
 511 332 l 1
 80 332 l 1
EndSplineSet
Validated: 5
Substitution2: "'pnum' Proportional Numbers in Latin lookup 18 subtable" plus
Substitution2: "'aalt' Access All Alternates in Latin lookup 0 subtable" plus
EndChar

StartChar: minus.tf
Encoding: 65679 -1 448
Width: 589
Flags: HW
HStem: 332 65<80 511>
LayerCount: 3
Fore
SplineSet
80 332 m 1
 80 398 l 1
 511 398 l 1
 511 332 l 1
 80 332 l 1
EndSplineSet
Validated: 1
Substitution2: "'pnum' Proportional Numbers in Latin lookup 18 subtable" minus
Substitution2: "'aalt' Access All Alternates in Latin lookup 0 subtable" minus
EndChar

StartChar: multiply.tf
Encoding: 65680 -1 449
Width: 589
Flags: HW
LayerCount: 3
Fore
SplineSet
461 171 m 1
 82 514 l 1
 128 560 l 1
 506 217 l 1
 461 171 l 1
128 171 m 1
 82 217 l 1
 461 560 l 1
 506 514 l 1
 128 171 l 1
EndSplineSet
Validated: 5
Substitution2: "'pnum' Proportional Numbers in Latin lookup 18 subtable" multiply
Substitution2: "'aalt' Access All Alternates in Latin lookup 0 subtable" multiply
EndChar

StartChar: divide.tf
Encoding: 65681 -1 450
Width: 589
Flags: HW
HStem: 146 112<254 335> 332 65<80 511> 474 111<254 335>
VStem: 237 116<161 241 489 569>
LayerCount: 3
Fore
SplineSet
80 332 m 1
 80 398 l 1
 511 398 l 1
 511 332 l 1
 80 332 l 1
296 474 m 0
 279 474 265 477 253 488 c 0
 241 499 237 512 237 529 c 0
 237 545 241 558 253 569 c 0
 265 580 279 584 296 584 c 0
 310 584 323 580 335 569 c 0
 347 558 353 545 353 529 c 0
 353 512 347 499 335 488 c 0
 323 477 310 474 296 474 c 0
296 146 m 0
 279 146 265 149 253 160 c 0
 241 171 237 185 237 202 c 0
 237 218 241 231 253 242 c 0
 265 253 279 258 296 258 c 0
 310 258 323 253 335 242 c 0
 347 231 353 218 353 202 c 0
 353 185 347 171 335 160 c 0
 323 149 310 146 296 146 c 0
EndSplineSet
Validated: 1
Substitution2: "'pnum' Proportional Numbers in Latin lookup 18 subtable" divide
Substitution2: "'aalt' Access All Alternates in Latin lookup 0 subtable" divide
EndChar

StartChar: equal.tf
Encoding: 65682 -1 451
Width: 589
Flags: HW
HStem: 234 65<80 511> 431 65<80 511>
LayerCount: 3
Fore
SplineSet
80 431 m 1
 80 496 l 1
 511 496 l 1
 511 431 l 1
 80 431 l 1
80 234 m 1
 80 299 l 1
 511 299 l 1
 511 234 l 1
 80 234 l 1
EndSplineSet
Validated: 1
Substitution2: "'pnum' Proportional Numbers in Latin lookup 18 subtable" equal
Substitution2: "'aalt' Access All Alternates in Latin lookup 0 subtable" equal
EndChar

StartChar: greater.tf
Encoding: 65683 -1 452
Width: 589
Flags: HW
LayerCount: 3
Fore
SplineSet
84 170 m 1
 84 240 l 1
 451 377 l 1
 451 353 l 1
 84 480 l 1
 84 550 l 1
 516 403 l 1
 516 328 l 1
 84 170 l 1
EndSplineSet
Validated: 5
Substitution2: "'pnum' Proportional Numbers in Latin lookup 18 subtable" greater
Substitution2: "'aalt' Access All Alternates in Latin lookup 0 subtable" greater
EndChar

StartChar: less.tf
Encoding: 65684 -1 453
Width: 589
Flags: HW
LayerCount: 3
Fore
SplineSet
470 560 m 1
 470 490 l 1
 112 354 l 1
 112 378 l 1
 470 250 l 1
 470 180 l 1
 65 328 l 1
 65 403 l 1
 470 560 l 1
EndSplineSet
Validated: 5
Substitution2: "'pnum' Proportional Numbers in Latin lookup 18 subtable" less
Substitution2: "'aalt' Access All Alternates in Latin lookup 0 subtable" less
EndChar

StartChar: percent.tf
Encoding: 65685 -1 454
Width: 589
Flags: HW
HStem: -10 54<391 466> 0 21G<43 126> 294 54<390 467> 360 54<123 198> 664 54<122 200> 689 19G<470 552>
VStem: 32 67<442 637> 224 68<443 637> 299 68<72 268> 491 68<73 267>
LayerCount: 3
Fore
SplineSet
43 0 m 1x77c0
 482 708 l 1
 552 708 l 1
 113 0 l 1
 43 0 l 1x77c0
428 -10 m 0xb3c0
 406 -10 384 -3 365 10 c 0
 346 23 329 43 317 70 c 0
 305 97 299 130 299 170 c 256
 299 210 305 244 317 270 c 0
 329 296 346 316 365 329 c 0
 384 342 406 348 428 348 c 0
 452 348 474 342 494 329 c 0
 514 316 529 296 541 270 c 0
 553 244 559 210 559 170 c 256
 559 130 553 97 541 70 c 0
 529 43 513 23 493 10 c 0
 473 -3 451 -10 428 -10 c 0xb3c0
428 44 m 256
 444 44 460 55 472 74 c 0
 484 93 491 126 491 171 c 0
 491 215 485 246 473 265 c 0
 461 284 445 294 428 294 c 0
 412 294 397 284 385 266 c 0
 373 248 367 215 367 171 c 0
 367 126 373 93 385 74 c 0
 397 55 412 44 428 44 c 256
160 360 m 256
 138 360 116 367 97 380 c 0
 78 393 62 413 50 440 c 0
 38 467 32 500 32 540 c 256
 32 580 38 614 50 640 c 0
 62 666 78 686 97 699 c 0
 116 712 138 719 160 719 c 0x3bc0
 183 719 205 712 225 699 c 0
 245 686 261 666 273 640 c 0
 285 614 291 580 291 540 c 0
 291 500 285 466 273 439 c 0
 261 412 244 393 224 380 c 0
 204 367 182 360 160 360 c 256
160 414 m 256
 176 414 192 425 204 444 c 0
 216 463 224 496 224 541 c 0
 224 585 216 617 204 636 c 0
 192 655 177 664 160 664 c 0
 144 664 129 654 117 636 c 0
 105 618 99 585 99 541 c 0
 99 496 105 463 117 444 c 0
 129 425 144 414 160 414 c 256
EndSplineSet
Validated: 1
Substitution2: "'pnum' Proportional Numbers in Latin lookup 18 subtable" percent
Substitution2: "'aalt' Access All Alternates in Latin lookup 0 subtable" percent
EndChar

StartChar: perthousand.tf
Encoding: 65686 -1 455
Width: 589
Flags: HW
HStem: -10 53<223 294 399 471> 254 52<223 295 399 472> 401 53<119 190> 665 53<118 191>
VStem: 41 57<473 641> 146 57<63 234> 212 57<476 644> 316 63<118 181> 323 49<99 199> 492 57<65 234>
LayerCount: 3
Fore
SplineSet
63 278 m 1xfe40
 44 335 l 1
 517 483 l 1
 535 425 l 1
 63 278 l 1xfe40
258 -10 m 256
 228 -10 202 4 179 32 c 0
 156 60 146 98 146 149 c 256
 146 200 157 238 179 265 c 0
 201 292 227 306 258 306 c 0
 290 306 317 292 339 265 c 0
 361 238 372 200 372 149 c 0xfec0
 372 99 361 60 338 32 c 0
 315 4 288 -10 258 -10 c 256
258 43 m 0
 274 43 289 54 300 73 c 0
 311 92 316 118 316 150 c 0xff40
 316 181 311 206 300 225 c 0
 289 244 275 254 258 254 c 256
 241 254 229 244 218 225 c 0
 207 206 203 181 203 150 c 0
 203 118 207 92 218 73 c 0
 229 54 241 43 258 43 c 0
435 -10 m 0
 405 -10 378 5 356 33 c 0
 334 61 323 100 323 149 c 0xfec0
 323 199 333 236 355 264 c 0
 377 292 404 306 435 306 c 0
 467 306 494 292 516 265 c 0
 538 238 549 200 549 149 c 0
 549 98 538 60 515 32 c 0
 492 4 466 -10 435 -10 c 0
435 43 m 0
 451 43 464 54 475 73 c 0
 486 92 492 118 492 150 c 0
 492 181 487 206 476 225 c 0
 465 244 452 254 435 254 c 256
 418 254 405 244 394 225 c 0
 383 206 378 181 378 150 c 0xff40
 378 118 383 92 394 73 c 0
 405 54 418 43 435 43 c 0
155 401 m 0
 124 401 98 414 75 442 c 0
 52 470 41 509 41 560 c 256
 41 611 53 649 75 677 c 0
 97 705 123 719 155 719 c 256
 187 719 214 704 236 677 c 0
 258 650 270 611 270 560 c 0
 270 509 258 470 235 442 c 0
 212 414 185 401 155 401 c 0
155 454 m 0
 170 454 184 464 196 483 c 0
 208 502 212 529 212 561 c 0
 212 593 207 618 196 637 c 0
 185 656 171 665 155 665 c 0
 138 665 124 656 113 637 c 0
 102 618 99 593 99 561 c 0
 99 529 102 502 113 483 c 0
 124 464 138 454 155 454 c 0
EndSplineSet
Validated: 5
Substitution2: "'pnum' Proportional Numbers in Latin lookup 18 subtable" perthousand
Substitution2: "'aalt' Access All Alternates in Latin lookup 0 subtable" perthousand
EndChar

StartChar: arrowup
Encoding: 8593 8593 456
Width: 778
Flags: HW
HStem: 688 19G<370 409>
VStem: 355 69<9 604>
LayerCount: 3
Fore
SplineSet
355 9 m 1
 355 637 l 1
 381 604 l 1
 65 289 l 1
 65 385 l 1
 390 707 l 1
 715 384 l 1
 715 288 l 1
 398 604 l 1
 424 637 l 1
 424 9 l 1
 355 9 l 1
EndSplineSet
Validated: 5
EndChar

StartChar: uni2197
Encoding: 8599 8599 457
Width: 661
Flags: HW
LayerCount: 3
Fore
SplineSet
78 150 m 1
 522 592 l 1
 518 550 l 1
 71 552 l 1
 139 621 l 1
 597 618 l 1
 598 160 l 1
 529 91 l 1
 528 539 l 1
 571 543 l 1
 127 100 l 1
 78 150 l 1
EndSplineSet
Validated: 5
EndChar

StartChar: arrowright
Encoding: 8594 8594 458
Width: 827
Flags: HW
HStem: 320 69<65 660>
LayerCount: 3
Fore
SplineSet
65 388 m 1
 693 388 l 1
 660 362 l 1
 346 679 l 1
 442 679 l 1
 764 355 l 1
 441 30 l 1
 345 30 l 1
 660 346 l 1
 693 320 l 1
 65 320 l 1
 65 388 l 1
EndSplineSet
Validated: 5
EndChar

StartChar: uni2198
Encoding: 8600 8600 459
Width: 662
Flags: HW
VStem: 529 69<168 547>
LayerCount: 3
Fore
SplineSet
127 608 m 1
 570 164 l 1
 527 168 l 1
 529 615 l 1
 598 547 l 1
 596 89 l 1
 137 88 l 1
 69 157 l 1
 517 158 l 1
 521 115 l 1
 78 559 l 1
 127 608 l 1
EndSplineSet
Validated: 5
EndChar

StartChar: arrowdown
Encoding: 8595 8595 460
Width: 778
Flags: HW
HStem: 1 21G<370 409>
VStem: 355 69<105 700>
LayerCount: 3
Fore
SplineSet
355 700 m 1
 424 700 l 1
 424 72 l 1
 398 105 l 1
 715 420 l 1
 715 324 l 1
 390 1 l 1
 65 323 l 1
 65 419 l 1
 381 105 l 1
 355 72 l 1
 355 700 l 1
EndSplineSet
Validated: 5
EndChar

StartChar: uni2199
Encoding: 8601 8601 461
Width: 661
Flags: HW
HStem: 87 69<145 524>
VStem: 65 68<169 548>
LayerCount: 3
Fore
SplineSet
584 560 m 1
 141 116 l 1
 145 159 l 1
 592 157 l 1
 524 87 l 1
 66 90 l 1
 65 548 l 1
 132 617 l 1
 133 169 l 1
 91 165 l 1
 535 608 l 1
 584 560 l 1
EndSplineSet
Validated: 5
EndChar

StartChar: arrowleft
Encoding: 8592 8592 462
Width: 827
Flags: HW
HStem: 320 69<168 764>
LayerCount: 3
Fore
SplineSet
764 320 m 1
 136 320 l 1
 168 346 l 1
 483 30 l 1
 387 30 l 1
 65 355 l 1
 388 679 l 1
 484 679 l 1
 168 362 l 1
 136 388 l 1
 764 388 l 1
 764 320 l 1
EndSplineSet
Validated: 5
EndChar

StartChar: uni2196
Encoding: 8598 8598 463
Width: 662
Flags: HW
HStem: 552 68<147 525>
LayerCount: 3
Fore
SplineSet
536 100 m 1
 93 544 l 1
 135 540 l 1
 133 93 l 1
 65 161 l 1
 68 619 l 1
 525 620 l 1
 595 552 l 1
 147 551 l 1
 143 593 l 1
 585 150 l 1
 536 100 l 1
EndSplineSet
Validated: 5
EndChar

StartChar: arrowboth
Encoding: 8596 8596 464
Width: 1010
Flags: HW
HStem: 320 69<196 817>
LayerCount: 3
Fore
SplineSet
388 30 m 1
 65 355 l 1
 387 679 l 1
 483 679 l 1
 196 388 l 1
 817 388 l 1
 528 679 l 1
 624 679 l 1
 946 355 l 1
 623 30 l 1
 527 30 l 1
 817 320 l 1
 196 320 l 1
 484 30 l 1
 388 30 l 1
EndSplineSet
Validated: 1
EndChar

StartChar: arrowupdn
Encoding: 8597 8597 465
Width: 778
Flags: HW
VStem: 355 69<44 665>
LayerCount: 3
Fore
SplineSet
390 -86 m 1
 65 235 l 1
 65 332 l 1
 355 44 l 1
 355 665 l 1
 65 377 l 1
 65 474 l 1
 390 795 l 1
 715 473 l 1
 715 376 l 1
 424 665 l 1
 424 44 l 1
 715 332 l 1
 715 236 l 1
 390 -86 l 1
EndSplineSet
Validated: 1
EndChar

StartChar: uni0308
Encoding: 776 776 466
Width: 11
GlyphClass: 4
Flags: HW
HStem: 617 91<65 155 285 375>
VStem: 65 89<617 708> 285 89<617 708>
AnchorPoint: "Anchor-7" 220 708 basemark 0
AnchorPoint: "Anchor-7" 220 502 mark 0
AnchorPoint: "Anchor-4" 220 502 mark 0
AnchorPoint: "Anchor-0" 220 502 mark 0
LayerCount: 3
Fore
SplineSet
285 617 m 1
 285 708 l 1
 375 708 l 1
 375 617 l 1
 285 617 l 1
65 617 m 1
 65 708 l 1
 155 708 l 1
 155 617 l 1
 65 617 l 1
EndSplineSet
Validated: 1
Substitution2: "'ss01' Style Set 1 in Latin lookup 22 subtable" uni0308.ss01
Substitution2: "'aalt' Access All Alternates in Latin lookup 0 subtable" uni0308.ss01
EndChar

StartChar: uni0307
Encoding: 775 775 467
Width: 11
GlyphClass: 4
Flags: HW
HStem: 617 91<65 155>
VStem: 65 90<617 708>
AnchorPoint: "Anchor-7" 110 708 basemark 0
AnchorPoint: "Anchor-7" 110 502 mark 0
AnchorPoint: "Anchor-4" 110 502 mark 0
AnchorPoint: "Anchor-0" 110 502 mark 0
LayerCount: 3
Fore
SplineSet
65 617 m 1
 65 708 l 1
 155 708 l 1
 155 617 l 1
 65 617 l 1
EndSplineSet
Validated: 1
Substitution2: "'ss01' Style Set 1 in Latin lookup 22 subtable" uni0307.ss01
Substitution2: "'aalt' Access All Alternates in Latin lookup 0 subtable" uni0307.ss01
EndChar

StartChar: gravecomb
Encoding: 768 768 468
Width: 11
GlyphClass: 4
Flags: HW
HStem: 574 154
VStem: 65 225
AnchorPoint: "Anchor-7" 213 728 basemark 0
AnchorPoint: "Anchor-7" 213 502 mark 0
AnchorPoint: "Anchor-4" 213 502 mark 0
AnchorPoint: "Anchor-0" 213 502 mark 0
LayerCount: 3
Fore
SplineSet
218 574 m 1
 65 728 l 1
 181 728 l 1
 290 574 l 1
 218 574 l 1
EndSplineSet
Validated: 1
EndChar

StartChar: acutecomb
Encoding: 769 769 469
Width: 11
GlyphClass: 4
Flags: HW
HStem: 574 155
VStem: 65 225
AnchorPoint: "Anchor-7" 142 728 basemark 0
AnchorPoint: "Anchor-7" 142 502 mark 0
AnchorPoint: "Anchor-4" 142 502 mark 0
AnchorPoint: "Anchor-0" 142 502 mark 0
LayerCount: 3
Fore
SplineSet
136 574 m 1
 65 574 l 1
 173 728 l 1
 290 728 l 1
 136 574 l 1
EndSplineSet
Validated: 1
EndChar

StartChar: uni030B
Encoding: 779 779 470
Width: 11
GlyphClass: 4
Flags: HW
HStem: 574 155<118 128 309 319>
AnchorPoint: "Anchor-7" 207 728 basemark 0
AnchorPoint: "Anchor-7" 207 502 mark 0
AnchorPoint: "Anchor-4" 207 502 mark 0
AnchorPoint: "Anchor-0" 207 502 mark 0
LayerCount: 3
Fore
SplineSet
128 574 m 1
 65 574 l 1
 118 728 l 1
 210 728 l 1
 128 574 l 1
319 574 m 1
 255 574 l 1
 309 728 l 1
 401 728 l 1
 319 574 l 1
EndSplineSet
Validated: 1
EndChar

StartChar: uni030C.alt
Encoding: 65687 -1 471
Width: 11
GlyphClass: 4
Flags: HW
HStem: 495 213<65 113>
VStem: 65 74<651 708> 65 48<495 553>
AnchorPoint: "Anchor-1" 65 708 mark 0
LayerCount: 3
Fore
SplineSet
113 495 m 1xa0
 65 495 l 1xa0
 65 708 l 1
 139 708 l 1xc0
 113 495 l 1xa0
EndSplineSet
Validated: 1
EndChar

StartChar: uni0302
Encoding: 770 770 472
Width: 11
GlyphClass: 4
Flags: HW
HStem: 574 155 689 19G<204 280>
AnchorPoint: "Anchor-7" 242 728 basemark 0
AnchorPoint: "Anchor-7" 242 502 mark 0
AnchorPoint: "Anchor-4" 242 502 mark 0
AnchorPoint: "Anchor-0" 242 502 mark 0
LayerCount: 3
Fore
SplineSet
65 574 m 1x80
 201 728 l 1
 283 728 l 1
 419 574 l 1
 350 574 l 1x80
 204 708 l 1
 280 708 l 1x40
 134 574 l 1
 65 574 l 1x80
EndSplineSet
Validated: 5
EndChar

StartChar: uni030C
Encoding: 780 780 473
Width: 11
GlyphClass: 4
Flags: HW
HStem: 574 155
AnchorPoint: "Anchor-7" 242 728 basemark 0
AnchorPoint: "Anchor-7" 242 502 mark 0
AnchorPoint: "Anchor-4" 242 502 mark 0
AnchorPoint: "Anchor-0" 242 502 mark 0
LayerCount: 3
Fore
SplineSet
201 574 m 1
 65 728 l 1
 134 728 l 1
 280 593 l 1
 204 593 l 1
 350 728 l 1
 419 728 l 1
 283 574 l 1
 201 574 l 1
EndSplineSet
Validated: 5
EndChar

StartChar: uni0306
Encoding: 774 774 474
Width: 11
GlyphClass: 4
Flags: HW
HStem: 570 65<155 291>
VStem: 65 61<665 728> 320 62<665 728>
AnchorPoint: "Anchor-7" 224 728 basemark 0
AnchorPoint: "Anchor-7" 224 502 mark 0
AnchorPoint: "Anchor-4" 224 502 mark 0
AnchorPoint: "Anchor-0" 224 502 mark 0
LayerCount: 3
Fore
SplineSet
224 570 m 0
 194 570 167 577 143 589 c 0
 119 601 98 620 85 644 c 0
 72 668 65 695 65 728 c 1
 126 728 l 1
 126 698 135 675 152 659 c 0
 169 643 193 634 224 634 c 0
 254 634 277 643 294 659 c 0
 311 675 320 698 320 728 c 1
 381 728 l 1
 381 695 374 668 360 644 c 0
 346 620 328 601 304 589 c 0
 280 577 254 570 224 570 c 0
EndSplineSet
Validated: 1
EndChar

StartChar: uni030A
Encoding: 778 778 475
Width: 11
GlyphClass: 4
Flags: HW
HStem: 552 48<129 213> 715 48<130 213>
VStem: 65 50<614 701> 227 50<614 701>
AnchorPoint: "Anchor-7" 171 764 basemark 0
AnchorPoint: "Anchor-7" 171 502 mark 0
AnchorPoint: "Anchor-4" 171 502 mark 0
AnchorPoint: "Anchor-0" 171 502 mark 0
LayerCount: 3
Fore
SplineSet
171 552 m 256
 141 552 115 562 95 583 c 0
 75 604 65 628 65 658 c 0
 65 687 75 711 95 732 c 0
 115 753 141 764 171 764 c 256
 201 764 227 753 247 732 c 0
 267 711 277 687 277 658 c 0
 277 628 267 604 247 583 c 0
 227 562 201 552 171 552 c 256
171 601 m 0
 187 601 200 605 211 617 c 0
 222 629 227 642 227 658 c 0
 227 673 222 687 211 699 c 0
 200 711 187 715 171 715 c 256
 155 715 141 711 130 699 c 0
 119 687 115 673 115 658 c 0
 115 642 119 629 130 617 c 0
 141 605 154 601 171 601 c 0
EndSplineSet
Validated: 1
EndChar

StartChar: tildecomb
Encoding: 771 771 476
Width: 11
GlyphClass: 4
Flags: HW
HStem: 584 58<275 359> 652 58<130 216>
VStem: 65 55<594 638> 370 55<656 701>
AnchorPoint: "Anchor-7" 245 710 basemark 0
AnchorPoint: "Anchor-7" 245 502 mark 0
AnchorPoint: "Anchor-4" 245 502 mark 0
AnchorPoint: "Anchor-0" 245 502 mark 0
LayerCount: 3
Fore
SplineSet
319 584 m 0
 300 584 283 588 270 595 c 0
 257 602 244 610 232 619 c 0
 220 628 211 635 200 642 c 0
 189 649 178 652 166 652 c 0
 153 652 142 649 133 639 c 0
 124 629 120 614 120 594 c 1
 65 594 l 1
 65 619 69 641 79 658 c 0
 89 675 101 689 117 698 c 0
 133 707 153 710 174 710 c 0
 193 710 211 708 224 701 c 0
 237 694 248 685 259 676 c 0
 270 667 279 659 290 652 c 0
 301 645 311 643 323 643 c 0
 336 643 347 646 356 656 c 0
 365 666 370 681 370 701 c 1
 425 701 l 1
 425 677 421 656 411 639 c 0
 401 622 390 609 374 599 c 0
 358 589 339 584 319 584 c 0
EndSplineSet
Validated: 1
EndChar

StartChar: uni0304
Encoding: 772 772 477
Width: 11
GlyphClass: 4
Flags: HW
HStem: 632 55<65 396>
AnchorPoint: "Anchor-7" 230 688 basemark 0
AnchorPoint: "Anchor-7" 230 502 mark 0
AnchorPoint: "Anchor-4" 230 502 mark 0
AnchorPoint: "Anchor-0" 230 502 mark 0
LayerCount: 3
Fore
SplineSet
65 632 m 1
 65 688 l 1
 396 688 l 1
 396 632 l 1
 65 632 l 1
EndSplineSet
Validated: 1
EndChar

StartChar: uni0312
Encoding: 786 786 478
Width: 11
GlyphClass: 4
Flags: HW
HStem: 572 99<115 172> 666 5<86 115>
VStem: 70 102<572 665>
AnchorPoint: "Anchor-7" 121 789 basemark 0
AnchorPoint: "Anchor-7" 121 502 mark 0
AnchorPoint: "Anchor-4" 121 502 mark 0
AnchorPoint: "Anchor-0" 121 502 mark 0
LayerCount: 3
Fore
SplineSet
70 572 m 1xa0
 70 649 l 2
 70 681 78 709 94 735 c 0
 110 761 136 779 172 789 c 1
 172 750 l 1
 155 742 141 732 130 719 c 0
 119 706 115 688 115 666 c 1
 86 671 l 1x60
 172 671 l 1
 172 572 l 1
 70 572 l 1xa0
EndSplineSet
Validated: 5
Substitution2: "'ss01' Style Set 1 in Latin lookup 22 subtable" uni0312.ss01
Substitution2: "'aalt' Access All Alternates in Latin lookup 0 subtable" uni0312.ss01
EndChar

StartChar: uni0326
Encoding: 806 806 479
Width: 11
GlyphClass: 4
Flags: HW
HStem: -170 99<70 127> -170 5<127 155>
VStem: 70 102<-164 -71>
AnchorPoint: "Anchor-6" 121 -288 basemark 0
AnchorPoint: "Anchor-6" 121 0 mark 0
AnchorPoint: "Anchor-5" 121 0 mark 0
AnchorPoint: "Anchor-2" 121 0 mark 0
LayerCount: 3
Fore
SplineSet
70 -288 m 1xa0
 70 -249 l 1
 87 -241 100 -230 111 -217 c 0
 122 -204 127 -186 127 -165 c 1
 155 -170 l 1x60
 70 -170 l 1
 70 -71 l 1
 172 -71 l 1
 172 -148 l 2
 172 -180 163 -208 147 -234 c 0
 131 -260 105 -277 70 -288 c 1xa0
EndSplineSet
Validated: 5
Substitution2: "'ss01' Style Set 1 in Latin lookup 22 subtable" uni0326.ss01
Substitution2: "'aalt' Access All Alternates in Latin lookup 0 subtable" uni0326.ss01
EndChar

StartChar: uni0327
Encoding: 807 807 480
Width: 11
GlyphClass: 4
Flags: HW
HStem: -211 50<124 230> -85 96<166 205>
VStem: 65 54<-154 -125> 233 57<-156 -99>
AnchorPoint: "Anchor-6" 178 -211 basemark 0
AnchorPoint: "Anchor-6" 187 0 mark 0
AnchorPoint: "Anchor-5" 187 0 mark 0
AnchorPoint: "Anchor-2" 187 0 mark 0
LayerCount: 3
Fore
SplineSet
178 -211 m 0
 144 -211 117 -203 97 -188 c 0
 77 -173 66 -151 65 -125 c 1
 119 -125 l 1
 120 -138 127 -147 139 -153 c 0
 151 -159 165 -161 180 -161 c 0
 194 -161 206 -159 217 -153 c 0
 228 -147 233 -140 233 -129 c 0
 233 -117 226 -107 214 -99 c 0
 202 -91 179 -87 143 -85 c 1
 166 12 l 1
 222 12 l 1
 205 -44 l 1
 236 -51 259 -62 271 -77 c 0
 283 -92 290 -110 290 -128 c 0
 290 -155 279 -176 258 -190 c 0
 237 -204 211 -211 178 -211 c 0
EndSplineSet
Validated: 1
EndChar

StartChar: uni0328
Encoding: 808 808 481
Width: 11
GlyphClass: 4
Flags: HW
HStem: -212 50<128 201>
VStem: 65 57<-157 -69>
AnchorPoint: "Anchor-3" 215 0 mark 0
LayerCount: 3
Fore
SplineSet
148 -212 m 0
 121 -212 100 -204 86 -190 c 0
 72 -176 65 -157 65 -135 c 0
 65 -106 77 -78 101 -52 c 0
 125 -26 153 -3 190 16 c 1
 215 0 l 1
 186 -21 163 -42 147 -62 c 0
 131 -82 122 -104 122 -127 c 0
 122 -139 124 -147 130 -153 c 0
 136 -159 144 -162 154 -162 c 0
 167 -162 178 -158 187 -148 c 1
 218 -187 l 1
 208 -197 199 -203 187 -207 c 0
 175 -211 163 -212 148 -212 c 0
EndSplineSet
Validated: 1
EndChar

StartChar: uni0308.ss01
Encoding: 65688 -1 482
Width: 11
GlyphClass: 4
Flags: HW
HStem: 598 110<81 156 303 378>
VStem: 65 109<613 691> 286 109<613 691>
AnchorPoint: "Anchor-7" 230 706 basemark 0
AnchorPoint: "Anchor-7" 230 502 mark 0
AnchorPoint: "Anchor-4" 230 502 mark 0
AnchorPoint: "Anchor-0" 230 502 mark 0
LayerCount: 3
Fore
SplineSet
119 598 m 0
 105 598 92 602 81 613 c 0
 70 624 65 637 65 652 c 0
 65 668 70 682 81 692 c 0
 92 702 105 706 119 706 c 0
 134 706 146 702 157 692 c 0
 168 682 173 668 173 652 c 0
 173 637 168 624 157 613 c 0
 146 602 134 598 119 598 c 0
340 598 m 0
 326 598 314 602 303 613 c 0
 292 624 286 637 286 652 c 0
 286 668 292 682 303 692 c 0
 314 702 326 706 340 706 c 0
 355 706 367 702 378 692 c 0
 389 682 395 668 395 652 c 0
 395 637 389 624 378 613 c 0
 367 602 355 598 340 598 c 0
EndSplineSet
Validated: 1
EndChar

StartChar: uni0307.ss01
Encoding: 65689 -1 483
Width: 11
GlyphClass: 4
Flags: HW
HStem: 598 110<81 156>
VStem: 65 109<613 691>
AnchorPoint: "Anchor-7" 119 706 basemark 0
AnchorPoint: "Anchor-7" 119 502 mark 0
AnchorPoint: "Anchor-4" 119 502 mark 0
AnchorPoint: "Anchor-0" 119 502 mark 0
LayerCount: 3
Fore
SplineSet
119 598 m 0
 105 598 92 602 81 613 c 0
 70 624 65 637 65 652 c 0
 65 668 70 682 81 692 c 0
 92 702 105 706 119 706 c 0
 134 706 146 702 157 692 c 0
 168 682 173 668 173 652 c 0
 173 637 168 624 157 613 c 0
 146 602 134 598 119 598 c 0
EndSplineSet
Validated: 1
EndChar

StartChar: uni0312.ss01
Encoding: 65690 -1 484
Width: 11
GlyphClass: 4
Flags: HW
HStem: 567 110<87 160>
VStem: 65 112<586 660>
AnchorPoint: "Anchor-7" 121 789 basemark 0
AnchorPoint: "Anchor-7" 121 502 mark 0
AnchorPoint: "Anchor-4" 121 502 mark 0
AnchorPoint: "Anchor-0" 121 502 mark 0
LayerCount: 3
Fore
SplineSet
123 567 m 0
 108 567 94 573 82 585 c 0
 70 597 65 619 65 649 c 0
 65 671 69 690 78 708 c 0
 87 726 97 743 111 757 c 0
 125 771 144 781 166 789 c 1
 166 750 l 1
 149 742 136 732 125 719 c 0
 114 706 109 687 109 666 c 1
 86 663 l 1
 91 666 96 669 102 672 c 0
 108 675 113 676 120 676 c 0
 136 676 150 672 161 661 c 0
 172 650 177 637 177 622 c 256
 177 607 172 593 161 582 c 0
 150 571 138 567 123 567 c 0
EndSplineSet
Validated: 5
EndChar

StartChar: uni0326.ss01
Encoding: 65691 -1 485
Width: 11
GlyphClass: 4
Flags: HW
HStem: -175 110<81 155>
VStem: 65 112<-160 -86>
AnchorPoint: "Anchor-6" 121 -288 basemark 0
AnchorPoint: "Anchor-6" 121 0 mark 0
AnchorPoint: "Anchor-5" 121 0 mark 0
AnchorPoint: "Anchor-2" 121 0 mark 0
LayerCount: 3
Fore
SplineSet
76 -288 m 1
 76 -249 l 1
 93 -241 105 -230 116 -217 c 0
 127 -204 131 -186 131 -165 c 1
 155 -162 l 1
 150 -165 146 -168 140 -171 c 0
 134 -174 128 -175 121 -175 c 0
 106 -175 92 -171 81 -160 c 0
 70 -149 65 -136 65 -121 c 0
 65 -105 70 -92 81 -81 c 0
 92 -70 105 -66 118 -66 c 0
 134 -66 148 -73 160 -85 c 0
 172 -97 177 -118 177 -148 c 0
 177 -168 173 -188 165 -207 c 0
 157 -226 145 -243 130 -257 c 0
 115 -271 97 -280 76 -288 c 1
EndSplineSet
Validated: 5
EndChar

StartChar: uni20B1
Encoding: 8369 8369 501
Width: 743
Flags: HW
HStem: 0 21G<160 240> 221 70<218 458> 380 56<95 671> 496 57<95 672> 639 70<240 458>
VStem: 160 80<0 221 291 639> 218 22<221 291> 527 79<438 490>
LayerCount: 3
Fore
SplineSet
83 496 m 1xf9
 95 553 l 1
 683 552 l 1
 672 495 l 1
 83 496 l 1xf9
83 380 m 1
 95 436 l 1
 683 435 l 1
 671 379 l 1
 83 380 l 1
160 0 m 1xfd
 160 708 l 1xfd
 373 708 l 2
 529 708 606 627 606 466 c 0
 606 303 529 221 373 221 c 2
 218 221 l 1
 218 291 l 1xfb
 370 291 l 2
 475 291 527 349 527 466 c 0
 527 580 475 639 370 639 c 2
 240 639 l 1
 240 0 l 1
 160 0 l 1xfd
EndSplineSet
Validated: 5
EndChar

StartChar: http_liga
Encoding: 65694 -1 502
Width: 1869
Flags: HW
HStem: -11 68<1550 1695> 0 75<768 805 1148 1186> 444 68<236 380 1552 1691> 689 19G<82 169>
VStem: 82 86<0 708> 421 86<0 400> 661 91<91 135> 1042 91<91 135> 1387 87<145 357> 1764 90<139 364>
AnchorPoint: "Anchor-1" 300 767 basechar 0
AnchorPoint: "Anchor-0" 308 502 basechar 0
AnchorPoint: "Anchor-2" 308 0 basechar 0
LayerCount: 3
Fore
SplineSet
1182 0 m 3x7fc0
 1222 0 1278 0 1278 0 c 1
 1277 73 l 1
 1265 73 1231 74 1186 75 c 0
 1152 76 1134 108 1134 135 c 2
 1134 646 l 1
 1042 616 l 1
 1042 135 l 2
 1042 3 1168 0 1182 0 c 3x7fc0
1619 442 m 0
 1650 442 1764 433 1764 254 c 0
 1764 138 1716 58 1623 58 c 256xbfc0
 1580 58 1542 74 1516 109 c 0
 1490 143 1478 190 1478 251 c 0
 1478 312 1491 357 1517 391 c 0
 1543 425 1579 442 1619 442 c 0
801 0 m 3x7fc0
 841 0 976 0 976 0 c 5
 975 73 l 5
 963 73 850 74 805 75 c 0
 771 76 752 108 752 135 c 2
 752 646 l 1
 661 616 l 1
 661 135 l 2
 661 3 787 0 801 0 c 3x7fc0
82 0 m 1
 82 708 l 1
 169 708 l 1
 169 0 l 1
 82 0 l 1
421 0 m 1
 421 299 l 2
 421 399 386 444 310 444 c 3
 221 444 169 381 169 271 c 1
 151 388 l 1
 185 471 242 511 328 511 c 0
 443 511 508 446 508 327 c 2
 508 0 l 1
 421 0 l 1
1636 510 m 0
 1554 511 1506 473 1471 416 c 1
 1471 502 l 1
 509 502 l 1
 509 441 l 1
 1384 441 l 1
 1387 361 1387 330 1387 202 c 0
 1387 126 1387 18 1387 -155 c 1
 1475 -155 l 1
 1475 87 l 1
 1514 19 1571 -11 1645 -11 c 0xbfc0
 1687 -11 1720 -1 1752 20 c 0
 1784 41 1811 73 1829 112 c 0
 1846 149 1854 194 1854 242 c 0
 1854 299 1843 345 1825 385 c 0
 1807 423 1783 454 1748 477 c 0
 1717 497 1681 510 1636 510 c 0
EndSplineSet
Validated: 1048613
EndChar

StartChar: afii61352
Encoding: 8470 8470 503
Width: 1064
Flags: HW
LayerCount: 3
Fore
SplineSet
81 0 m 1
 81 716 l 1
 168 716 l 1
 168 717 274 535 487 171 c 1
 495 171 l 1
 495 716 l 1
 583 716 l 1
 583 0 l 1
 497 0 l 1
 179 541 l 1
 171 541 l 1
 171 0 l 1
 81 0 l 1
823 350 m 128
 772 350 731 365 701 395 c 128
 671 425 656 465 656 515 c 2
 656 561 l 2
 656 611 671 651 701 681 c 128
 731 711 771 726 822 726 c 0
 874 726 915 711 944 681 c 128
 973 651 989 611 989 561 c 2
 989 515 l 2
 989 465 973 425 944 395 c 128
 915 365 874 350 823 350 c 128
823 420 m 0
 850 420 871 429 884 446 c 0
 897 464 904 487 904 515 c 2
 904 561 l 2
 904 589 897 611 884 628 c 128
 871 645 850 653 822 653 c 256
 794 653 774 645 761 628 c 128
 748 611 741 589 741 561 c 2
 741 515 l 2
 741 486 748 463 761 446 c 128
 774 429 795 420 823 420 c 0
671 215 m 1
 671 288 l 1
 977 288 l 1
 977 215 l 1
 671 215 l 1
EndSplineSet
Validated: 33
EndChar

StartChar: uni21A9
Encoding: 8617 8617 504
Width: 1083
Flags: HW
LayerCount: 3
Fore
SplineSet
390 0 m 1
 77 313 l 1
 390 627 l 1
 444 573 l 1
 445 573 411 539 343 472 c 2
 323 452 301 431 279 410 c 128
 257 389 235 369 214 350 c 1
 229 351 243 351 258 351 c 128
 273 351 288 352 303 352 c 2
 778 352 l 2
 806 352 833 359 856 373 c 128
 879 387 898 406 912 429 c 128
 926 452 933 477 933 506 c 256
 933 534 926 561 912 584 c 128
 898 607 879 626 856 640 c 128
 833 654 807 661 778 661 c 2
 743 661 l 1
 743 738 l 1
 778 738 l 2
 820 738 859 728 894 707 c 128
 929 686 958 658 979 623 c 128
 1000 588 1010 549 1010 506 c 256
 1010 464 1000 425 979 390 c 128
 958 355 930 327 895 306 c 128
 860 285 821 275 778 275 c 2
 303 275 l 2
 288 275 273 275 258 276 c 128
 243 277 229 277 214 277 c 1
 235 258 257 237 279 216 c 128
 301 195 323 175 343 155 c 2
 444 54 l 1
 390 0 l 1
EndSplineSet
Validated: 33
EndChar

StartChar: uni21AA
Encoding: 8618 8618 505
Width: 1083
Flags: HW
LayerCount: 3
Fore
SplineSet
694 0 m 1
 640 54 l 1
 639 54 673 88 741 155 c 2
 761 175 783 196 805 217 c 128
 827 238 848 258 869 277 c 1
 854 276 840 275 825 275 c 128
 810 275 796 275 781 275 c 2
 305 275 l 2
 263 275 224 285 189 306 c 128
 154 327 126 355 105 390 c 128
 84 425 74 463 74 506 c 256
 74 548 84 588 105 623 c 128
 126 658 154 686 189 707 c 128
 224 728 262 738 305 738 c 2
 341 738 l 1
 341 661 l 1
 305 661 l 2
 277 661 251 654 228 640 c 128
 205 626 186 607 172 584 c 128
 158 561 151 535 151 506 c 256
 151 478 158 452 172 429 c 128
 186 406 205 387 228 373 c 128
 251 359 276 352 305 352 c 2
 781 352 l 2
 796 352 810 352 825 351 c 128
 840 350 854 350 869 350 c 1
 848 369 827 389 805 410 c 128
 783 431 761 452 741 472 c 2
 640 573 l 1
 694 627 l 1
 1007 313 l 1
 694 0 l 1
EndSplineSet
Validated: 33
EndChar
